<?xml version="1.0" standalone="no"?>
<!DOCTYPE svg PUBLIC "-//W3C//DTD SVG 1.1//EN" "http://www.w3.org/Graphics/SVG/1.1/DTD/svg11.dtd" >
<svg xmlns="http://www.w3.org/2000/svg">
<metadata></metadata>
<defs>
<font id="sf_fourcheregular" horiz-adv-x="1310" >
<font-face units-per-em="2048" ascent="1638" descent="-410" />
<missing-glyph horiz-adv-x="1024" />
<glyph horiz-adv-x="0" />
<glyph unicode="&#xd;" horiz-adv-x="1024" />
<glyph unicode=" "  horiz-adv-x="1024" />
<glyph unicode="&#x09;" horiz-adv-x="1024" />
<glyph unicode="&#xa0;" horiz-adv-x="1024" />
<glyph unicode="!" horiz-adv-x="532" d="M123 0v287h287v-287h-287zM123 1536h287l-41 -1085h-205z" />
<glyph unicode="&#x22;" horiz-adv-x="901" d="M123 1536h287l-62 -717h-164zM492 1536h286l-61 -717h-164z" />
<glyph unicode="#" horiz-adv-x="1392" d="M123 573v164h272l25 246h-236v164h254l31 287h164l-31 -287h246l31 287h163l-30 -287h258v-164h-277l-24 -246h239v-164h-258l-28 -286h-164l30 286h-247l-29 -286h-164l29 286h-254zM559 737h246l26 246h-247z" />
<glyph unicode="$" horiz-adv-x="1454" d="M92 1014q0 119 31 199.5t88 130t139 70t182 20.5h113v204h164v-204h512v-246h-512v-348h113q100 0 182 -21.5t139 -71t88 -130t31 -197.5q0 -121 -31 -201t-88 -129t-139 -69.5t-182 -20.5h-113v-205h-164v205h-512v246h512v348h-113q-100 0 -182 21.5t-139 70.5t-88 130 t-31 198zM379 1014q0 -96 57.5 -135t136.5 -39h72v348h-72q-80 0 -137 -38t-57 -136zM809 246h72q80 0 137 38t57 136q0 96 -57 135t-137 39h-72v-348z" />
<glyph unicode="%" horiz-adv-x="2039" d="M123 1065q0 109 28.5 182.5t78 119.5t116 66.5t141.5 20.5q74 0 140.5 -20.5t116 -66.5t79 -119.5t29.5 -182.5t-29.5 -183.5t-79 -120.5t-116 -66.5t-140.5 -20.5q-76 0 -142 20.5t-115.5 66.5t-78 120.5t-28.5 183.5zM299 1065q0 -68 14.5 -114t40 -72.5t59 -38 t74.5 -11.5q39 0 73 11.5t59.5 38t41 72.5t15.5 114t-15.5 113t-41 71.5t-59.5 37.5t-73 11q-41 0 -74.5 -11t-59 -37.5t-40 -71.5t-14.5 -113zM610 0l635 1434h185l-635 -1434h-185zM1188 371q0 109 28.5 182.5t77.5 119.5t116 66.5t142 20.5q74 0 140.5 -20.5t116 -66.5 t79 -120t29.5 -182q0 -109 -29.5 -183.5t-79 -121t-116 -66.5t-140.5 -20q-76 0 -142.5 20t-115.5 66.5t-77.5 121t-28.5 183.5zM1364 371q0 -68 14.5 -114t40 -72.5t59 -38t74.5 -11.5q39 0 73 11.5t59.5 38t41 72.5t15.5 114t-15.5 112.5t-41 71.5t-59.5 38t-73 11 q-41 0 -74.5 -11t-59 -38t-40 -71.5t-14.5 -112.5z" />
<glyph unicode="&#x26;" horiz-adv-x="1433" d="M102 389q0 133 52.5 214t142.5 124q-72 45 -113 122t-41 195q0 111 36 185t99.5 120t146.5 65.5t179 19.5h502v-246h-502q-72 0 -123 -39t-51 -135q0 -98 51 -136t123 -38h215v-246h-256q-72 0 -123 -42t-51 -146q0 -55 13.5 -92.5t37 -59t55 -30.5t68.5 -9h92 q74 0 139.5 22.5t116 77t80 145.5t33.5 228v152h287v-840h-287v158q-88 -102 -207 -145.5t-254 -43.5q-96 0 -179 20.5t-146.5 70t-99.5 130t-36 199.5z" />
<glyph unicode="'" horiz-adv-x="532" d="M123 1536h287l-62 -717h-164z" />
<glyph unicode="(" horiz-adv-x="778" d="M123 20v1106q0 86 22.5 144.5t60.5 95.5t89 52.5t111 15.5h249v-185h-194q-39 0 -65.5 -24.5t-26.5 -91.5v-1119q0 -68 26.5 -92t65.5 -24h194v-185h-249q-59 0 -110.5 15.5t-89.5 52.5t-60.5 95t-22.5 144z" />
<glyph unicode=")" horiz-adv-x="778" d="M123 -102h194q39 0 66 24.5t27 91.5v1119q0 68 -27 92t-66 24h-194v185h250q57 0 109.5 -15.5t90 -52.5t60 -95.5t22.5 -144.5v-1106q0 -86 -22.5 -144t-60 -95t-90 -52.5t-109.5 -15.5h-250v185z" />
<glyph unicode="*" horiz-adv-x="1200" d="M123 784l334 158l-334 158l102 176l303 -211l-30 369h204l-30 -369l303 211l102 -176l-334 -158l334 -158l-102 -176l-303 209l30 -366h-204l30 366l-303 -209z" />
<glyph unicode="+" horiz-adv-x="1228" d="M123 512v205h389v389h205v-389h389v-205h-389v-389h-205v389h-389z" />
<glyph unicode="," horiz-adv-x="532" d="M123 287h287l-62 -574h-164z" />
<glyph unicode="-" horiz-adv-x="1064" d="M123 502v225h819v-225h-819z" />
<glyph unicode="." horiz-adv-x="532" d="M123 0v287h287v-287h-287z" />
<glyph unicode="/" horiz-adv-x="942" d="M-20 -287l798 1803h185l-799 -1803h-184z" />
<glyph unicode="0" horiz-adv-x="1638" d="M184 717q0 207 50.5 350t136.5 231t201.5 127t246.5 39t247 -39t202 -127t136 -231t50 -350t-50 -350.5t-136 -231.5t-202 -127t-247 -39t-246.5 39t-201.5 127t-136.5 231.5t-50.5 350.5zM471 717q0 -145 27.5 -242.5t75 -155t110.5 -81t135 -23.5t135.5 23.5t110.5 81 t74.5 154.5t27.5 243q0 145 -27.5 242.5t-74.5 154.5t-110.5 81t-135.5 24t-135 -24t-110.5 -81t-75 -154.5t-27.5 -242.5z" />
<glyph unicode="1" horiz-adv-x="778" d="M246 0v1372l286 103v-1475h-286z" />
<glyph unicode="2" horiz-adv-x="1679" d="M215 0v420q0 117 30.5 197.5t88 130t139.5 71t182 21.5h328q80 0 137.5 39t57.5 135q0 98 -57.5 136t-137.5 38h-727v246h768q100 0 182 -20.5t139.5 -70t88 -130t30.5 -199.5q0 -117 -30.5 -198t-88 -130t-139.5 -70.5t-182 -21.5h-328q-80 0 -137 -39t-57 -135v-174 h942v-246h-1229z" />
<glyph unicode="3" horiz-adv-x="1628" d="M225 0v246h748q72 0 123 38t51 136q0 96 -51.5 135t-122.5 39h-543v246h502q72 0 123 37.5t51 136.5q0 96 -51 135t-123 39h-707v246h707q94 0 178 -19.5t147.5 -65.5t99.5 -120t36 -185q0 -119 -41 -195.5t-113 -121.5q88 -43 141.5 -124t53.5 -214q0 -111 -36 -184.5 t-99.5 -119.5t-147.5 -65.5t-178 -19.5h-748z" />
<glyph unicode="4" horiz-adv-x="1740" d="M164 287v286l842 861h366v-902h205v-245h-205v-287h-287v287h-921zM492 532h593v621z" />
<glyph unicode="5" horiz-adv-x="1679" d="M215 0v246h768q80 0 137.5 42t57.5 152q0 106 -57.5 150.5t-137.5 44.5h-768v799h1167v-246h-880v-307h522q100 0 182 -22.5t139.5 -75t88 -136.5t30.5 -207q0 -127 -30.5 -211t-88 -135t-139.5 -72.5t-182 -21.5h-809z" />
<glyph unicode="6" horiz-adv-x="1689" d="M184 717q0 199 48.5 336t132.5 222t196.5 122t239.5 37h608v-246h-567q-61 0 -115.5 -13.5t-99.5 -44t-80 -82t-53 -126.5h585q88 0 166 -21.5t135.5 -72t91 -134.5t33.5 -207q0 -135 -33.5 -228t-91 -150.5t-135.5 -83t-166 -25.5h-278q-127 0 -239.5 37t-196.5 122 t-132.5 221t-48.5 337zM471 678q4 -127 34 -210t80 -132t115.5 -69.5t141.5 -20.5h174q39 0 75.5 13t65.5 42t45.5 75t16.5 111q0 55 -16.5 91t-45.5 58.5t-65.5 32t-75.5 9.5h-545z" />
<glyph unicode="7" horiz-adv-x="1484" d="M174 1188v246h1167v-246l-737 -1188h-368l757 1188h-819z" />
<glyph unicode="8" horiz-adv-x="1699" d="M195 389q0 133 52 214t142 124q-72 45 -112.5 122t-40.5 195q0 111 35.5 185t99 120t146.5 65.5t179 19.5h308q94 0 178 -19.5t147.5 -65.5t99 -120t35.5 -185q0 -119 -41 -195.5t-112 -121.5q88 -43 141 -124t53 -214q0 -111 -35.5 -184.5t-99 -119.5t-147.5 -65.5 t-179 -19.5h-389q-96 0 -179 19.5t-146.5 65.5t-99 119.5t-35.5 184.5zM481 420q0 -98 51.5 -136t122.5 -38h389q72 0 123.5 38t51.5 136q0 96 -51.5 135t-123.5 39h-389q-72 0 -123 -39t-51 -135zM522 1014q0 -98 51.5 -136t122.5 -38h308q72 0 123 37.5t51 136.5 q0 96 -51.5 135t-122.5 39h-308q-72 0 -123 -39t-51 -135z" />
<glyph unicode="9" horiz-adv-x="1689" d="M184 946q0 135 34 228.5t91.5 150.5t135 83t165.5 26h279q127 0 239.5 -37t196.5 -122t132 -222.5t48 -335.5q0 -201 -48 -337t-132 -221t-196.5 -122t-239.5 -37h-608v246h567q61 0 115.5 13t99.5 44t80 82t53 127h-586q-88 0 -165.5 21.5t-135 71.5t-91.5 134t-34 207z M471 946q0 -55 16.5 -91t45 -58.5t64.5 -31.5t77 -9h545q-4 125 -35 208t-81 133t-115.5 70.5t-139.5 20.5h-174q-41 0 -77 -13.5t-64.5 -42t-45 -74.5t-16.5 -112z" />
<glyph unicode=":" horiz-adv-x="532" d="M123 0v287h287v-287h-287zM123 655v287h287v-287h-287z" />
<glyph unicode=";" horiz-adv-x="532" d="M123 287h287l-62 -574h-164zM123 655v287h287v-287h-287z" />
<glyph unicode="&#x3c;" horiz-adv-x="1220" d="M123 512v205l885 430l90 -184l-758 -349l758 -348l-90 -184z" />
<glyph unicode="=" horiz-adv-x="1228" d="M123 307v205h983v-205h-983zM123 717v205h983v-205h-983z" />
<glyph unicode="&#x3e;" horiz-adv-x="1220" d="M123 266l758 348l-758 349l90 184l885 -430v-205l-885 -430z" />
<glyph unicode="?" horiz-adv-x="1372" d="M123 0v287h287v-287h-287zM137 557q0 131 36 208t94.5 117t131 50t144.5 10h225q80 0 137.5 39t57.5 135q0 98 -57.5 136t-137.5 38h-604v246h645q100 0 182 -20.5t139.5 -69.5t88 -130t30.5 -200q0 -117 -30.5 -197.5t-88 -130t-139.5 -71t-182 -21.5h-266 q-33 0 -61.5 -8t-49 -34.5t-32 -75t-11.5 -127.5h-246q-6 57 -6 106z" />
<glyph unicode="@" horiz-adv-x="1740" d="M123 717q0 156 58.5 292t159.5 237.5t237.5 159.5t291.5 58q156 0 292 -58t237.5 -159.5t160 -238t58.5 -291.5q0 -156 -58.5 -292t-160 -237.5t-237.5 -160t-292 -58.5t-292 58.5t-237 160t-159.5 237.5t-58.5 292zM266 717q0 -125 47 -235.5t129 -192.5t192.5 -129 t235.5 -47t236 47t192.5 129t129 192.5t47.5 235.5t-47.5 235.5t-129 192.5t-192.5 129t-236 47t-235.5 -47t-192.5 -129t-129 -192.5t-47 -235.5zM518 578q0 66 17.5 109.5t47 70t69.5 38t85 11.5h297q0 78 -52 108.5t-126 30.5h-289v139h310q66 0 123 -14t100 -47 t68.5 -86t25.5 -131v-459h-457q-45 0 -85 12.5t-69.5 39t-47 71t-17.5 107.5zM678 578q0 -49 27.5 -70t64.5 -21h264v183h-264q-37 0 -64.5 -19.5t-27.5 -72.5z" />
<glyph unicode="A" horiz-adv-x="1505" d="M-41 0l639 1434h309l639 -1434h-319l-121 287h-707l-120 -287h-320zM504 532h497l-249 586z" />
<glyph unicode="B" horiz-adv-x="1525" d="M123 0v1434h829q94 0 178 -19.5t147.5 -65.5t99.5 -120t36 -185q0 -119 -41 -195.5t-112 -121.5q88 -43 141 -124t53 -214q0 -111 -36 -184.5t-99.5 -119.5t-147.5 -65.5t-178 -19.5h-870zM410 246h583q72 0 123 38t51 136q0 96 -51 135t-123 39h-583v-348zM410 840h542 q72 0 123 37.5t51 136.5q0 96 -51 135t-123 39h-542v-348z" />
<glyph unicode="C" d="M61 717q0 199 48.5 336t132.5 221t195.5 122t238.5 38h532v-246h-491q-76 0 -143.5 -22.5t-117.5 -77t-79 -144.5t-29 -227t29 -227.5t79 -144.5t117.5 -76.5t143.5 -22.5h491v-246h-532q-127 0 -238.5 38t-195.5 122t-132.5 221t-48.5 336z" />
<glyph unicode="D" horiz-adv-x="1495" d="M123 0v1434h696q127 0 238.5 -38t195.5 -122t132.5 -221.5t48.5 -335.5q0 -199 -48.5 -336t-132.5 -221t-195.5 -122t-238.5 -38h-696zM410 246h368q76 0 143.5 22.5t118 76.5t79 144.5t28.5 227.5t-28.5 227t-79 144.5t-118 77t-143.5 22.5h-368v-942z" />
<glyph unicode="E" horiz-adv-x="1331" d="M61 717q0 199 48.5 336t132.5 221t195.5 122t238.5 38h532v-246h-491q-68 0 -127.5 -17.5t-107.5 -57.5t-81.5 -106.5t-46.5 -166.5h854v-246h-854q12 -100 46 -167t82 -106.5t107.5 -57t127.5 -17.5h491v-246h-532q-127 0 -238.5 38t-195.5 122t-132.5 221t-48.5 336z " />
<glyph unicode="F" horiz-adv-x="1331" d="M102 0v758q0 188 48.5 317t132.5 209t195.5 115t238.5 35h532v-246h-491q-70 0 -132.5 -17.5t-110.5 -57.5t-81 -106.5t-41 -166.5h856v-246h-860v-594h-287z" />
<glyph unicode="G" horiz-adv-x="1495" d="M61 717q0 199 48.5 336t132.5 221t195.5 122t238.5 38h696v-246h-655q-76 0 -143.5 -22.5t-117.5 -77t-79 -144.5t-29 -227t29 -227.5t79 -144.5t117.5 -76.5t143.5 -22.5h368v348h-286v246h573v-840h-696q-127 0 -238.5 38t-195.5 122t-132.5 221t-48.5 336z" />
<glyph unicode="H" horiz-adv-x="1474" d="M123 0v1434h287v-594h655v594h287v-1434h-287v594h-655v-594h-287z" />
<glyph unicode="I" horiz-adv-x="532" d="M123 0v1434h287v-1434h-287z" />
<glyph unicode="J" horiz-adv-x="1044" d="M41 0v246h246q76 0 143.5 16.5t117.5 54t78.5 100t28.5 156.5v861h287v-861q0 -162 -52 -271t-141.5 -177t-208 -96.5t-253.5 -28.5h-246z" />
<glyph unicode="K" horiz-adv-x="1351" d="M123 0v1434h287v-654l571 654h371l-639 -717l639 -717h-371l-571 653v-653h-287z" />
<glyph unicode="L" horiz-adv-x="1167" d="M102 573v861h287v-861q0 -94 28.5 -156.5t79 -100t118 -54t143.5 -16.5h368v-246h-368q-135 0 -254 28.5t-208 96.5t-141.5 177.5t-52.5 270.5z" />
<glyph unicode="M" horiz-adv-x="1841" d="M123 0v1434h414l383 -1063l385 1063h413v-1434h-280v1006l-363 -1006h-309l-356 1006v-1006h-287z" />
<glyph unicode="N" horiz-adv-x="1474" d="M123 0v1434h369l573 -1043v1043h287v-1434h-369l-573 1042v-1042h-287z" />
<glyph unicode="O" horiz-adv-x="1515" d="M61 717q0 207 54.5 350t148.5 231t221 127t273 39q141 0 268 -39t222 -127t150.5 -231t55.5 -350t-55.5 -350.5t-150.5 -231.5t-222 -127t-268 -39q-145 0 -272.5 39t-221.5 127t-148.5 231.5t-54.5 350.5zM348 717q0 -145 32 -242.5t87 -155t130 -81t161 -23.5 q84 0 158.5 23.5t130 81t88 154.5t32.5 243q0 145 -32.5 242.5t-88 154.5t-130 81t-158.5 24q-86 0 -161 -24t-130 -81t-87 -154.5t-32 -242.5z" />
<glyph unicode="P" horiz-adv-x="1495" d="M123 0v1434h829q98 0 186.5 -25t154 -80t103.5 -145t38 -221q0 -141 -38 -235.5t-103.5 -152t-153.5 -81t-187 -23.5h-542v-471h-287zM410 717h542q39 0 75 12t62.5 40t42 75t15.5 119q0 123 -57.5 174t-137.5 51h-542v-471z" />
<glyph unicode="Q" horiz-adv-x="1515" d="M61 717q0 207 54.5 350t148.5 231t221 127t273 39q141 0 268 -39t222 -127t150.5 -231t55.5 -350q0 -180 -43 -311.5t-116.5 -220.5t-175 -139t-218.5 -66v-267h-287v267q-119 16 -220 65t-175 138t-116 220.5t-42 313.5zM348 717q0 -115 19.5 -198t55.5 -141.5t84 -93 t107 -51.5v156h287v-156q57 18 106.5 53.5t84 93.5t55 141t20.5 196q0 145 -32.5 242.5t-88 154.5t-130 81t-158.5 24q-86 0 -161 -24t-130 -81t-87 -154.5t-32 -242.5z" />
<glyph unicode="R" horiz-adv-x="1525" d="M123 0v1434h850q94 0 178 -22.5t147.5 -73t99.5 -133.5t36 -201q0 -104 -25 -181.5t-69 -130.5t-104 -83.5t-130 -45.5l326 -563h-332l-303 553h-387v-553h-287zM410 799h563q72 0 123 44t51 161q0 102 -51.5 143t-122.5 41h-563v-389z" />
<glyph unicode="S" horiz-adv-x="1454" d="M92 1014q0 119 31 199.5t88 130t139 70t182 20.5h789v-246h-748q-80 0 -137 -38t-57 -136q0 -96 57.5 -135t136.5 -39h349q100 0 182 -21.5t139 -71t88 -130t31 -197.5q0 -121 -31 -201t-88 -129t-139 -69.5t-182 -20.5h-789v246h748q80 0 137 38t57 136q0 96 -57 135 t-137 39h-349q-100 0 -182 21.5t-139 70.5t-88 130t-31 198z" />
<glyph unicode="T" horiz-adv-x="1294" d="M-8 1188v246h1311v-246h-512v-1188h-287v1188h-512z" />
<glyph unicode="U" horiz-adv-x="1515" d="M102 594v840h287v-840q0 -109 28.5 -181.5t79 -116.5t117 -62.5t144.5 -18.5q76 0 142.5 18.5t116.5 62.5t79.5 116.5t29.5 181.5v840h287v-840q0 -178 -52 -298t-141.5 -192.5t-208 -103.5t-253.5 -31t-255 31t-209 103.5t-140.5 192.5t-51.5 298z" />
<glyph unicode="V" horiz-adv-x="1505" d="M-41 1434h320l473 -1121l475 1121h319l-639 -1434h-309z" />
<glyph unicode="W" horiz-adv-x="2056" d="M-20 1434h305l321 -1004l275 1004h295l272 -1004l324 1004h305l-482 -1434h-305l-262 965l-262 -965h-305z" />
<glyph unicode="X" horiz-adv-x="1351" d="M0 0l510 717l-510 717h348l328 -478l328 478h348l-510 -717l510 -717h-348l-328 475l-328 -475h-348z" />
<glyph unicode="Y" horiz-adv-x="1351" d="M-20 1434h348l348 -560l348 560h348l-553 -828v-606h-287v606z" />
<glyph unicode="Z" horiz-adv-x="1413" d="M92 0v246l860 942h-860v246h1229v-246l-860 -942h860v-246h-1229z" />
<glyph unicode="[" horiz-adv-x="778" d="M123 -287v1721h532v-185h-286v-1351h286v-185h-532z" />
<glyph unicode="\" horiz-adv-x="942" d="M-20 1516h184l799 -1803h-185z" />
<glyph unicode="]" horiz-adv-x="778" d="M123 -102h287v1351h-287v185h532v-1721h-532v185z" />
<glyph unicode="^" d="M123 549l430 885h205l430 -885l-184 -90l-349 758l-348 -758z" />
<glyph unicode="_" horiz-adv-x="1024" d="M-20 -164h1064v-164h-1064v164z" />
<glyph unicode="`" horiz-adv-x="690" d="M123 1571l98 133l346 -289l-61 -84z" />
<glyph unicode="a" horiz-adv-x="1290" d="M61 383q0 109 29 182.5t78 117.5t115.5 63.5t142.5 19.5h496q0 63 -25 108.5t-64.5 72t-93 38.5t-114.5 12h-482v232h516q109 0 204 -23.5t168 -79t115 -143.5t42 -217v-766h-762q-76 0 -142.5 19.5t-115.5 64.5t-78 119t-29 180zM328 383q0 -84 46 -118t107 -34h441v306 h-441q-61 0 -107 -33t-46 -121z" />
<glyph unicode="b" d="M123 0v1638h266v-409h332q109 0 205 -32t167.5 -104.5t113.5 -189.5t42 -289t-42 -288.5t-113.5 -189.5t-168 -104.5t-204.5 -31.5h-598zM389 231h297q61 0 115.5 18.5t94.5 62.5t63.5 118t23.5 184q0 111 -23.5 184.5t-63.5 118t-94 62.5t-116 18h-297v-766z" />
<glyph unicode="c" horiz-adv-x="1148" d="M61 614q0 172 42 289t114 189.5t168 104.5t205 32h457v-232h-422q-61 0 -115.5 -18t-94.5 -62.5t-63.5 -118t-23.5 -184.5t23.5 -184.5t63.5 -117.5t94 -62.5t116 -18.5h422v-231h-457q-109 0 -205 31.5t-168 104.5t-114 189.5t-42 288.5z" />
<glyph unicode="d" d="M61 614q0 172 42 289t114 189.5t168 104.5t205 32h332v409h266v-1638h-598q-109 0 -205 31.5t-168 104.5t-114 189.5t-42 288.5zM328 614q0 -111 23.5 -184.5t63.5 -117.5t94 -62.5t116 -18.5h297v766h-297q-61 0 -115.5 -18t-94.5 -62.5t-63.5 -118t-23.5 -184.5z" />
<glyph unicode="e" horiz-adv-x="1169" d="M61 614q0 172 42 289t114 189.5t168 104.5t205 32h457v-232h-422q-53 0 -100.5 -13t-85.5 -44t-64.5 -82t-38.5 -127h711v-233h-711q12 -78 38.5 -129.5t64.5 -82t85 -43t101 -12.5h422v-231h-457q-109 0 -205 31.5t-168 104.5t-114 189.5t-42 288.5z" />
<glyph unicode="f" horiz-adv-x="901" d="M61 997v232h205v102q0 86 29 144.5t78 95.5t115.5 52t142.5 15h188v-225h-194q-39 0 -66 -16.5t-27 -59.5v-108h287v-232h-287v-997h-266v997h-205z" />
<glyph unicode="g" d="M61 614q0 172 42 289t114 189.5t168 104.5t205 32h598v-1229q0 -115 -32 -192.5t-87 -126t-129 -70t-158 -21.5h-639v232h564q90 0 152.5 40t62.5 138h-332q-109 0 -205 31.5t-168 104.5t-114 189.5t-42 288.5zM328 614q0 -111 23.5 -184.5t63.5 -117.5t94 -62.5 t116 -18.5h297v766h-297q-61 0 -115.5 -18t-94.5 -62.5t-63.5 -118t-23.5 -184.5z" />
<glyph unicode="h" d="M123 0v1638h266v-409h291q109 0 205 -23.5t167.5 -79t113.5 -144.5t42 -218v-764h-266v764q0 66 -23.5 110t-63.5 71.5t-94 39.5t-116 12h-256v-997h-266z" />
<glyph unicode="i" horiz-adv-x="512" d="M123 0v1229h266v-1229h-266zM123 1372v266h266v-266h-266z" />
<glyph unicode="j" horiz-adv-x="512" d="M-164 -178h113q72 0 123 29.5t51 107.5v1270h266v-1229q0 -115 -31.5 -192.5t-87 -126t-129 -70t-157.5 -21.5h-148v232zM123 1372v266h266v-266h-266z" />
<glyph unicode="k" horiz-adv-x="1259" d="M123 0v1638h287v-960l481 551h369l-547 -615l547 -614h-369l-481 551v-551h-287z" />
<glyph unicode="l" horiz-adv-x="512" d="M123 0v1638h266v-1638h-266z" />
<glyph unicode="m" horiz-adv-x="1802" d="M123 0v1229h1130q92 0 173 -23.5t142.5 -79t96.5 -144.5t35 -218v-764h-266v764q0 66 -17.5 110t-46.5 71.5t-67.5 39.5t-83.5 12h-175v-997h-266v997h-389v-997h-266z" />
<glyph unicode="n" d="M123 0v1229h557q109 0 205 -23.5t167.5 -79t113.5 -144.5t42 -218v-764h-266v764q0 66 -23.5 110t-63.5 71.5t-94 39.5t-116 12h-256v-997h-266z" />
<glyph unicode="o" horiz-adv-x="1320" d="M61 614q0 178 47.5 301t128 200t189.5 111t233 34q123 0 231.5 -34t190.5 -111t130.5 -199.5t48.5 -301.5q0 -178 -48.5 -301t-130.5 -199.5t-190.5 -110.5t-231.5 -34q-125 0 -233.5 34t-189 110.5t-128 199.5t-47.5 301zM328 614q0 -119 26.5 -198.5t71.5 -126.5 t105 -67.5t128 -20.5t128.5 20.5t105.5 67.5t71.5 127t26.5 198q0 119 -26.5 199t-71.5 127t-105.5 67.5t-128.5 20.5t-128 -20.5t-105 -67.5t-71.5 -127t-26.5 -199z" />
<glyph unicode="p" d="M123 -410v1639h598q109 0 205 -32t167.5 -104.5t113.5 -189.5t42 -289t-42 -288.5t-113.5 -189.5t-168 -104.5t-204.5 -31.5h-332v-410h-266zM389 231h297q61 0 115.5 18.5t94.5 62.5t63.5 118t23.5 184q0 111 -23.5 184.5t-63.5 118t-94 62.5t-116 18h-297v-766z" />
<glyph unicode="q" d="M61 614q0 172 42 289t114 189.5t168 104.5t205 32h598v-1639h-266v410h-332q-109 0 -205 31.5t-168 104.5t-114 189.5t-42 288.5zM328 614q0 -111 23.5 -184.5t63.5 -117.5t94 -62.5t116 -18.5h297v766h-297q-61 0 -115.5 -18t-94.5 -62.5t-63.5 -118t-23.5 -184.5z" />
<glyph unicode="r" horiz-adv-x="1105" d="M102 0v764q0 129 42 218t114 144.5t168 79t205 23.5h393v-492h-266v260h-92q-61 0 -115.5 -12t-94.5 -39.5t-63.5 -72t-23.5 -109.5v-764h-267z" />
<glyph unicode="s" horiz-adv-x="1275" d="M92 866q0 102 26.5 172t76 112t120 60.5t156.5 18.5h678v-232h-643q-70 0 -119 -29.5t-49 -101.5q0 -78 49 -106.5t119 -28.5h299q86 0 156.5 -18.5t119.5 -61.5t76 -113.5t27 -175.5q0 -102 -27 -171.5t-76 -111.5t-119.5 -60.5t-156.5 -18.5h-678v231h643q70 0 118 30 t48 101q0 78 -48 107t-118 29h-299q-86 0 -156.5 18.5t-120 61.5t-76 113.5t-26.5 174.5z" />
<glyph unicode="t" horiz-adv-x="901" d="M61 1004v231h205v301h266v-301h287v-231h-287v-635q0 -78 51.5 -108t123.5 -30h112v-231h-147q-84 0 -158 21.5t-129 69.5t-87 126t-32 193v594h-205z" />
<glyph unicode="u" d="M102 465v764h267v-764q0 -66 23.5 -110t63.5 -71.5t94 -40t116 -12.5h256v998h266v-1229h-557q-109 0 -205 23.5t-168 79t-114 144.5t-42 218z" />
<glyph unicode="v" horiz-adv-x="1282" d="M-41 1229h299l383 -903l383 903h299l-549 -1229h-266z" />
<glyph unicode="w" horiz-adv-x="1757" d="M-20 1229h282l260 -809l221 809h273l219 -807l260 807h283l-412 -1229h-272l-215 791l-213 -791h-273z" />
<glyph unicode="x" horiz-adv-x="1175" d="M0 0l440 614l-440 615h311l275 -402l276 402h314l-443 -615l443 -614h-314l-276 401l-275 -401h-311z" />
<glyph unicode="y" d="M102 465v764h267v-764q0 -131 66.5 -182.5t189.5 -51.5h297v998h266v-1229q0 -115 -32 -192.5t-87 -126t-129 -70t-158 -21.5h-598v232h523q90 0 152.5 40t62.5 138h-332q-109 0 -199 23.5t-154.5 79t-99.5 144.5t-35 218z" />
<glyph unicode="z" horiz-adv-x="1236" d="M92 0v231l713 766h-713v232h1053v-232l-713 -766h713v-231h-1053z" />
<glyph unicode="{" horiz-adv-x="901" d="M123 522v185h113q39 0 65.5 24.5t26.5 91.5v303q0 86 22.5 144.5t60.5 95.5t89 52.5t110 15.5h168v-185h-112q-39 0 -66 -24.5t-27 -91.5v-232q0 -123 -44 -191.5t-115 -95.5q72 -29 115.5 -96t43.5 -190v-314q0 -68 27 -92t66 -24h112v-185h-168q-59 0 -110 15.5 t-89 52.5t-60.5 95t-22.5 144v386q0 68 -27 92t-65 24h-113z" />
<glyph unicode="|" horiz-adv-x="696" d="M246 -410v1946h205v-1946h-205z" />
<glyph unicode="}" horiz-adv-x="901" d="M123 -102h113q39 0 65.5 24.5t26.5 91.5v314q0 123 43 190.5t114 95.5q-72 27 -114.5 95.5t-42.5 191.5v232q0 68 -27 92t-65 24h-113v185h168q57 0 109.5 -15.5t90 -52.5t60 -95.5t22.5 -144.5v-303q0 -68 27 -92t66 -24h112v-185h-112q-39 0 -66 -24.5t-27 -91.5v-386 q0 -86 -22.5 -144t-60 -95t-90 -52.5t-109.5 -15.5h-168v185z" />
<glyph unicode="~" horiz-adv-x="1419" d="M123 647q29 10 66.5 30.5t85 40t101.5 35t116 15.5q74 0 128 -17.5t101 -37t94 -37t111 -17.5q78 0 148.5 33t135.5 68l86 -193q-35 -10 -75.5 -28.5t-87 -37t-98.5 -32.5t-109 -14q-76 0 -129.5 17t-99.5 38.5t-94 39t-111 17.5q-29 0 -69 -12t-81 -28.5t-77 -37 t-56 -34.5z" />
<glyph unicode="&#xa1;" horiz-adv-x="532" d="M123 -307l41 1085h205l41 -1085h-287zM123 942v287h287v-287h-287z" />
<glyph unicode="&#xa2;" horiz-adv-x="1394" d="M123 819q0 172 42 289t113.5 189.5t168 104.5t204.5 32h76v204h164v-204h381v-232h-381v-766h381v-231h-381v-205h-164v205h-76q-109 0 -205 31.5t-167.5 104.5t-113.5 189.5t-42 288.5zM389 819q0 -111 23.5 -184.5t63.5 -117.5t94.5 -62.5t115.5 -18.5h41v766h-41 q-61 0 -115.5 -18.5t-94.5 -62.5t-63.5 -117.5t-23.5 -184.5z" />
<glyph unicode="&#xa3;" horiz-adv-x="1433" d="M123 0v246h246v368h-205v205h205v225q0 109 36.5 184t100 121t149.5 65.5t185 19.5h348v-246h-307q-96 0 -161 -32t-65 -112v-225h369v-205h-369v-368h656v-246h-1188z" />
<glyph unicode="&#xa5;" horiz-adv-x="1515" d="M61 1434h349l348 -560l348 560h348l-520 -779h377v-143h-410v-143h410v-144h-410v-225h-287v225h-409v144h409v143h-409v143h377z" />
<glyph unicode="&#xa6;" horiz-adv-x="696" d="M246 -287v799h205v-799h-205zM246 737v697h205v-697h-205z" />
<glyph unicode="&#xa7;" horiz-adv-x="1337" d="M123 573q0 98 41 158t115 88q-74 31 -115 90.5t-41 161.5t26.5 172t75.5 112t120 60.5t157 18.5h678v-232h-643q-70 0 -119 -29.5t-49 -101.5q0 -78 49 -105.5t119 -27.5h299q86 0 156.5 -18.5t119.5 -61.5t75.5 -113.5t26.5 -175.5q0 -98 -40.5 -157.5t-112.5 -87.5 q74 -31 113.5 -91.5t39.5 -158.5q0 -102 -26.5 -172t-75.5 -112t-119.5 -59.5t-156.5 -17.5h-678v232h643q70 0 118 28.5t48 100.5q0 78 -48.5 105.5t-117.5 27.5h-299q-86 0 -157 18.5t-120 60.5t-75.5 112.5t-26.5 174.5zM369 573q0 -78 49 -106.5t119 -28.5h264 q70 0 118 30t48 101q0 78 -48.5 107t-117.5 29h-264q-70 0 -119 -30t-49 -102z" />
<glyph unicode="&#xa8;" horiz-adv-x="819" d="M123 1352v225h225v-225h-225zM471 1352v225h225v-225h-225z" />
<glyph unicode="&#xa9;" horiz-adv-x="1740" d="M123 717q0 156 58.5 292t159.5 237.5t237.5 159.5t291.5 58q156 0 292 -58t237.5 -159.5t160 -238t58.5 -291.5q0 -156 -58.5 -292t-160 -237.5t-237.5 -160t-292 -58.5t-292 58.5t-237 160t-159.5 237.5t-58.5 292zM266 717q0 -125 47 -235.5t129 -192.5t192.5 -129 t235.5 -47t236 47t192.5 129t129 192.5t47.5 235.5t-47.5 235.5t-129 192.5t-192.5 129t-236 47t-235.5 -47t-192.5 -129t-129 -192.5t-47 -235.5zM461 717q0 119 28.5 200.5t78.5 133t118 74t143 22.5h320v-148h-295q-45 0 -85 -13t-70.5 -46t-48 -87t-17.5 -136 t17.5 -136.5t48 -87t70.5 -46t85 -13.5h295v-147h-320q-76 0 -143.5 22.5t-117.5 73.5t-78.5 133t-28.5 201z" />
<glyph unicode="&#xaa;" horiz-adv-x="921" d="M123 926q0 66 17.5 109.5t47 70.5t69.5 38t85 11h297q0 78 -52 108.5t-126 30.5h-289v140h309q66 0 123.5 -14.5t100.5 -47.5t68.5 -86t25.5 -131v-459h-457q-45 0 -85 12.5t-69.5 39t-47 70.5t-17.5 108zM283 926q0 -49 27.5 -69.5t64.5 -20.5h264v182h-264 q-37 0 -64.5 -19.5t-27.5 -72.5z" />
<glyph unicode="&#xab;" horiz-adv-x="1220" d="M123 614l328 570l176 -103l-289 -467l289 -467l-176 -102zM594 614l328 570l176 -103l-289 -467l289 -467l-176 -102z" />
<glyph unicode="&#xac;" horiz-adv-x="1228" d="M123 512v205h983v-512h-205v307h-778z" />
<glyph unicode="&#xad;" horiz-adv-x="1064" d="M123 502v225h819v-225h-819z" />
<glyph unicode="&#xae;" horiz-adv-x="1740" d="M123 717q0 156 58.5 292t159.5 237.5t237.5 159.5t291.5 58q156 0 292 -58t237.5 -159.5t160 -238t58.5 -291.5q0 -156 -58.5 -292t-160 -237.5t-237.5 -160t-292 -58.5t-292 58.5t-237 160t-159.5 237.5t-58.5 292zM266 717q0 -125 47 -235.5t129 -192.5t192.5 -129 t235.5 -47t236 47t192.5 129t129 192.5t47.5 235.5t-47.5 235.5t-129 192.5t-192.5 129t-236 47t-235.5 -47t-192.5 -129t-129 -192.5t-47 -235.5zM500 287v860h510q57 0 107 -13.5t88 -44t59.5 -79.5t21.5 -121q0 -127 -56 -187.5t-140 -76.5l194 -338h-199l-182 331h-231 v-331h-172zM672 766h338q43 0 73.5 25.5t30.5 97.5q0 61 -30.5 85.5t-73.5 24.5h-338v-233z" />
<glyph unicode="&#xaf;" horiz-adv-x="860" d="M123 1352v123h614v-123h-614z" />
<glyph unicode="&#xb0;" horiz-adv-x="798" d="M123 1188q0 57 21.5 107.5t59.5 88t88 59t107 21.5t107.5 -21.5t88.5 -59t59.5 -88t21.5 -107.5t-21.5 -107.5t-59.5 -88.5t-88.5 -59.5t-107.5 -21.5t-107 21.5t-88 59.5t-59.5 88t-21.5 108zM246 1188q0 -66 43.5 -110t109.5 -44q63 0 108.5 44t45.5 110q0 63 -45 108 t-109 45q-66 0 -109.5 -45t-43.5 -108z" />
<glyph unicode="&#xb1;" horiz-adv-x="1228" d="M123 0v205h983v-205h-983zM123 840v204h389v390h205v-390h389v-204h-389v-389h-205v389h-389z" />
<glyph unicode="&#xb2;" horiz-adv-x="933" d="M92 573v252q0 141 70.5 196.5t193.5 55.5h197q47 0 82 22.5t35 82.5q0 59 -35 81.5t-82 22.5h-436v148h461q61 0 109 -12.5t83 -42t53.5 -78t18.5 -119.5q0 -141 -71 -196.5t-193 -55.5h-197q-47 0 -82 -22.5t-35 -82.5v-104h565v-148h-737z" />
<glyph unicode="&#xb3;" horiz-adv-x="899" d="M102 573v148h449q43 0 73.5 22.5t30.5 81.5t-30.5 82t-73.5 23h-326v147h301q43 0 74 22.5t31 82.5q0 59 -31 81.5t-74 22.5h-424v148h424q57 0 107.5 -11.5t88.5 -39t59.5 -72.5t21.5 -111q0 -72 -25.5 -118t-66.5 -72q53 -27 84.5 -76t31.5 -127q0 -66 -21.5 -111 t-59 -72.5t-88 -39t-107.5 -11.5h-449z" />
<glyph unicode="&#xb4;" horiz-adv-x="690" d="M123 1415l346 289l98 -133l-383 -240z" />
<glyph unicode="&#xb6;" horiz-adv-x="1361" d="M123 1178q0 72 28.5 121t76.5 78.5t114 43t139 13.5h758v-164h-225v-1557h-205v1557h-123v-1557h-205v1188q-74 0 -139.5 13.5t-113.5 46t-76.5 85t-28.5 132.5z" />
<glyph unicode="&#xb7;" horiz-adv-x="532" d="M123 471v287h287v-287h-287z" />
<glyph unicode="&#xb8;" horiz-adv-x="735" d="M123 -242q4 0 24.5 -8t50 -17t66.5 -17.5t72 -8.5q16 0 36.5 4t39 12.5t31 21.5t12.5 34q0 35 -30 47t-65 12t-66.5 -7t-47.5 -11l41 241h123l-21 -131q104 0 163.5 -47t59.5 -106q0 -49 -23.5 -84t-61.5 -57.5t-87 -34t-100 -11.5q-59 0 -115.5 13.5t-101.5 40.5v114z " />
<glyph unicode="&#xb9;" horiz-adv-x="417" d="M123 582v823l172 61v-884h-172z" />
<glyph unicode="&#xba;" horiz-adv-x="964" d="M123 1065q0 106 27.5 180t76.5 120t115 66.5t139 20.5q74 0 139.5 -20.5t114.5 -66.5t78 -120t29 -180t-29 -180t-78 -120t-114.5 -66.5t-139.5 -20.5t-139.5 20.5t-114.5 66.5t-76.5 119.5t-27.5 180.5zM283 1065q0 -72 15 -119t43 -75.5t63.5 -41t76.5 -12.5t78 12.5 t63.5 41t42 75.5t15.5 119t-15.5 119t-42 75.5t-63.5 41t-78 12.5t-76.5 -12.5t-63.5 -41t-43 -75.5t-15 -119z" />
<glyph unicode="&#xbb;" horiz-adv-x="1220" d="M123 147l289 467l-289 467l176 103l328 -570l-328 -569zM594 147l289 467l-289 467l176 103l328 -570l-328 -569z" />
<glyph unicode="&#xbc;" horiz-adv-x="1830" d="M123 582v823l172 61v-884h-172zM264 0l701 1434h184l-700 -1434h-185zM860 172v172l506 516h219v-541h123v-147h-123v-172h-172v172h-553zM1057 319h356v371z" />
<glyph unicode="&#xbd;" horiz-adv-x="1886" d="M123 582v823l172 61v-884h-172zM264 0l701 1434h184l-700 -1434h-185zM1014 0v252q0 141 70.5 196.5t193.5 55.5h197q47 0 81.5 22.5t34.5 81.5t-34.5 82t-81.5 23h-437v147h461q61 0 109.5 -12t83 -42t53 -78t18.5 -120q0 -141 -70.5 -196.5t-193.5 -55.5h-196 q-47 0 -82 -22.5t-35 -81.5v-105h565v-147h-737z" />
<glyph unicode="&#xbe;" horiz-adv-x="2260" d="M123 573v148h448q43 0 74 22.5t31 81.5t-31 82t-74 23h-325v147h301q43 0 73.5 22.5t30.5 82.5q0 59 -30.5 81.5t-73.5 22.5h-424v148h424q57 0 107.5 -11.5t88 -39t59 -72.5t21.5 -111q0 -72 -25.5 -118t-66.5 -72q53 -27 85 -76t32 -127q0 -66 -21.5 -111t-59.5 -72.5 t-88 -39t-108 -11.5h-448zM694 0l701 1434h184l-700 -1434h-185zM1290 172v172l506 516h219v-541h123v-147h-123v-172h-172v172h-553zM1487 319h356v371z" />
<glyph unicode="&#xbf;" horiz-adv-x="1372" d="M123 113q0 117 30.5 197.5t88 129.5t139.5 70.5t182 21.5h266q33 0 62 8.5t49.5 35t31.5 74.5t11 128h246q6 -59 6 -106q0 -133 -36 -209t-94 -116t-131 -50t-145 -10h-225q-80 0 -137 -39t-57 -135q0 -98 57 -136t137 -38h604v-246h-645q-100 0 -182 20.5t-139.5 69.5 t-88 129t-30.5 201zM963 942v287h286v-287h-286z" />
<glyph unicode="&#xc0;" horiz-adv-x="1505" d="M-41 0l639 1434h309l639 -1434h-319l-121 287h-707l-120 -287h-320zM504 532h497l-249 586zM531 1776l98 133l346 -289l-61 -84z" />
<glyph unicode="&#xc1;" horiz-adv-x="1505" d="M-41 0l639 1434h309l639 -1434h-319l-121 287h-707l-120 -287h-320zM504 532h497l-249 586zM531 1620l346 289l98 -133l-383 -240z" />
<glyph unicode="&#xc2;" horiz-adv-x="1505" d="M-41 0l639 1434h309l639 -1434h-319l-121 287h-707l-120 -287h-320zM406 1620l346 289l346 -277l-61 -96l-285 178l-285 -178zM504 532h497l-249 586z" />
<glyph unicode="&#xc3;" horiz-adv-x="1505" d="M-41 0l639 1434h309l639 -1434h-319l-121 287h-707l-120 -287h-320zM377 1673q18 8 42.5 23.5t54.5 30t64.5 24.5t73.5 10q47 0 82 -12t65 -26.5t59.5 -26.5t70.5 -12q51 0 96 23.5t86 47.5l55 -139q-23 -6 -49 -19.5t-55 -26.5t-62.5 -23.5t-70.5 -10.5q-47 0 -81 12.5 t-63.5 27.5t-60.5 27.5t-72 12.5q-18 0 -43.5 -8t-51 -20.5t-49.5 -26t-36 -25.5zM504 532h497l-249 586z" />
<glyph unicode="&#xc4;" horiz-adv-x="1505" d="M-41 0l639 1434h309l639 -1434h-319l-121 287h-707l-120 -287h-320zM465 1557v225h225v-225h-225zM504 532h497l-249 586zM813 1557v225h225v-225h-225z" />
<glyph unicode="&#xc5;" horiz-adv-x="1505" d="M-41 0l639 1434h309l639 -1434h-319l-121 287h-707l-120 -287h-320zM504 532h497l-249 586zM516 1761q0 49 18.5 91.5t51 75t74.5 51t91 18.5t91.5 -18.5t75 -51t51 -74.5t18.5 -92q0 -49 -18.5 -91t-51 -74.5t-75 -51t-91.5 -18.5t-91 18.5t-74.5 51t-51 74.5t-18.5 91z M639 1761q0 -47 32.5 -79.5t79.5 -32.5t80 32.5t33 79.5t-32.5 80t-80.5 33q-47 0 -79.5 -32.5t-32.5 -80.5z" />
<glyph unicode="&#xc6;" horiz-adv-x="2232" d="M102 0v758q0 188 48.5 317t132.5 209t195.5 115t238.5 35h532v-111q68 59 152 85t176 26h532v-246h-491q-68 0 -127 -17.5t-107.5 -57.5t-82 -106.5t-46.5 -166.5h854v-246h-854q12 -100 46 -167t82.5 -106.5t107.5 -57t127 -17.5h491v-246h-532q-92 0 -176 25.5 t-152 85.5v-111h-286v389h-574v-389h-287zM389 635h574v553h-205q-76 0 -143.5 -20.5t-118 -69.5t-79 -132t-28.5 -208v-123z" />
<glyph unicode="&#xc7;" d="M61 717q0 199 48.5 336t132.5 221t195.5 122t238.5 38h532v-246h-491q-76 0 -143.5 -22.5t-117.5 -77t-79 -144.5t-29 -227t29 -227.5t79 -144.5t117.5 -76.5t143.5 -22.5h491v-246h-440l-10 -70q104 0 163.5 -47t59.5 -106q0 -49 -23.5 -84t-61.5 -57.5t-87 -34 t-100 -11.5q-59 0 -115.5 13.5t-101.5 40.5v114q4 0 24.5 -8t50 -17t66.5 -17.5t72 -8.5q16 0 36.5 4t39 12.5t30.5 21.5t12 34q0 35 -29.5 47t-64.5 12t-66.5 -7t-48.5 -11l31 180q-121 4 -227.5 44t-185 125t-125 220t-46.5 328z" />
<glyph unicode="&#xc8;" horiz-adv-x="1331" d="M61 717q0 199 48.5 336t132.5 221t195.5 122t238.5 38h532v-246h-491q-68 0 -127.5 -17.5t-107.5 -57.5t-81.5 -106.5t-46.5 -166.5h854v-246h-854q12 -100 46 -167t82 -106.5t107.5 -57t127.5 -17.5h491v-246h-532q-127 0 -238.5 38t-195.5 122t-132.5 221t-48.5 336z M442 1776l98 133l346 -289l-61 -84z" />
<glyph unicode="&#xc9;" horiz-adv-x="1331" d="M61 717q0 199 48.5 336t132.5 221t195.5 122t238.5 38h532v-246h-491q-68 0 -127.5 -17.5t-107.5 -57.5t-81.5 -106.5t-46.5 -166.5h854v-246h-854q12 -100 46 -167t82 -106.5t107.5 -57t127.5 -17.5h491v-246h-532q-127 0 -238.5 38t-195.5 122t-132.5 221t-48.5 336z M442 1620l346 289l98 -133l-383 -240z" />
<glyph unicode="&#xca;" horiz-adv-x="1331" d="M61 717q0 199 48.5 336t132.5 221t195.5 122t238.5 38h532v-246h-491q-68 0 -127.5 -17.5t-107.5 -57.5t-81.5 -106.5t-46.5 -166.5h854v-246h-854q12 -100 46 -167t82 -106.5t107.5 -57t127.5 -17.5h491v-246h-532q-127 0 -238.5 38t-195.5 122t-132.5 221t-48.5 336z M320 1620l346 289l346 -277l-61 -96l-285 178l-285 -178z" />
<glyph unicode="&#xcb;" horiz-adv-x="1331" d="M61 717q0 199 48.5 336t132.5 221t195.5 122t238.5 38h532v-246h-491q-68 0 -127.5 -17.5t-107.5 -57.5t-81.5 -106.5t-46.5 -166.5h854v-246h-854q12 -100 46 -167t82 -106.5t107.5 -57t127.5 -17.5h491v-246h-532q-127 0 -238.5 38t-195.5 122t-132.5 221t-48.5 336z M379 1557v225h225v-225h-225zM727 1557v225h225v-225h-225z" />
<glyph unicode="&#xcc;" horiz-adv-x="532" d="M49 1776l98 133l346 -289l-61 -84zM123 0v1434h287v-1434h-287z" />
<glyph unicode="&#xcd;" horiz-adv-x="532" d="M49 1620l346 289l98 -133l-383 -240zM123 0v1434h287v-1434h-287z" />
<glyph unicode="&#xce;" horiz-adv-x="532" d="M-76 1620l346 289l346 -277l-61 -96l-285 178l-285 -178zM123 0v1434h287v-1434h-287z" />
<glyph unicode="&#xcf;" horiz-adv-x="532" d="M-16 1557v225h225v-225h-225zM123 0v1434h287v-1434h-287zM332 1557v225h225v-225h-225z" />
<glyph unicode="&#xd0;" horiz-adv-x="1536" d="M41 614v205h123v615h696q127 0 238.5 -38t195.5 -122t132.5 -221.5t48.5 -335.5q0 -199 -48.5 -336t-132.5 -221t-195.5 -122t-238.5 -38h-696v614h-123zM451 246h368q76 0 143.5 22.5t117.5 76.5t79 144.5t29 227.5t-29 227t-79 144.5t-117.5 77t-143.5 22.5h-368v-369 h409v-205h-409v-368z" />
<glyph unicode="&#xd1;" horiz-adv-x="1474" d="M123 0v1434h369l573 -1043v1043h287v-1434h-369l-573 1042v-1042h-287zM363 1673q18 8 42.5 23.5t54.5 30t64.5 24.5t73.5 10q47 0 82 -12t65 -26.5t59.5 -26.5t70.5 -12q51 0 96 23.5t86 47.5l55 -139q-23 -6 -49 -19.5t-55 -26.5t-62.5 -23.5t-70.5 -10.5 q-47 0 -81 12.5t-63.5 27.5t-60.5 27.5t-72 12.5q-18 0 -43.5 -8t-51 -20.5t-49.5 -26t-36 -25.5z" />
<glyph unicode="&#xd2;" horiz-adv-x="1515" d="M61 717q0 207 54.5 350t148.5 231t221 127t273 39q141 0 268 -39t222 -127t150.5 -231t55.5 -350t-55.5 -350.5t-150.5 -231.5t-222 -127t-268 -39q-145 0 -272.5 39t-221.5 127t-148.5 231.5t-54.5 350.5zM348 717q0 -145 32 -242.5t87 -155t130 -81t161 -23.5 q84 0 158.5 23.5t130 81t88 154.5t32.5 243q0 145 -32.5 242.5t-88 154.5t-130 81t-158.5 24q-86 0 -161 -24t-130 -81t-87 -154.5t-32 -242.5zM535 1776l98 133l346 -289l-61 -84z" />
<glyph unicode="&#xd3;" horiz-adv-x="1515" d="M61 717q0 207 54.5 350t148.5 231t221 127t273 39q141 0 268 -39t222 -127t150.5 -231t55.5 -350t-55.5 -350.5t-150.5 -231.5t-222 -127t-268 -39q-145 0 -272.5 39t-221.5 127t-148.5 231.5t-54.5 350.5zM348 717q0 -145 32 -242.5t87 -155t130 -81t161 -23.5 q84 0 158.5 23.5t130 81t88 154.5t32.5 243q0 145 -32.5 242.5t-88 154.5t-130 81t-158.5 24q-86 0 -161 -24t-130 -81t-87 -154.5t-32 -242.5zM535 1620l346 289l98 -133l-383 -240z" />
<glyph unicode="&#xd4;" horiz-adv-x="1515" d="M61 717q0 207 54.5 350t148.5 231t221 127t273 39q141 0 268 -39t222 -127t150.5 -231t55.5 -350t-55.5 -350.5t-150.5 -231.5t-222 -127t-268 -39q-145 0 -272.5 39t-221.5 127t-148.5 231.5t-54.5 350.5zM348 717q0 -145 32 -242.5t87 -155t130 -81t161 -23.5 q84 0 158.5 23.5t130 81t88 154.5t32.5 243q0 145 -32.5 242.5t-88 154.5t-130 81t-158.5 24q-86 0 -161 -24t-130 -81t-87 -154.5t-32 -242.5zM412 1620l346 289l346 -277l-61 -96l-285 178l-285 -178z" />
<glyph unicode="&#xd5;" horiz-adv-x="1515" d="M61 717q0 207 54.5 350t148.5 231t221 127t273 39q141 0 268 -39t222 -127t150.5 -231t55.5 -350t-55.5 -350.5t-150.5 -231.5t-222 -127t-268 -39q-145 0 -272.5 39t-221.5 127t-148.5 231.5t-54.5 350.5zM348 717q0 -145 32 -242.5t87 -155t130 -81t161 -23.5 q84 0 158.5 23.5t130 81t88 154.5t32.5 243q0 145 -32.5 242.5t-88 154.5t-130 81t-158.5 24q-86 0 -161 -24t-130 -81t-87 -154.5t-32 -242.5zM383 1673q18 8 42.5 23.5t54.5 30t64.5 24.5t73.5 10q47 0 82 -12t65 -26.5t59.5 -26.5t70.5 -12q51 0 96 23.5t86 47.5l55 -139 q-23 -6 -49 -19.5t-55 -26.5t-62.5 -23.5t-70.5 -10.5q-47 0 -81 12.5t-63.5 27.5t-60.5 27.5t-72 12.5q-18 0 -43.5 -8t-51 -20.5t-49.5 -26t-36 -25.5z" />
<glyph unicode="&#xd6;" horiz-adv-x="1515" d="M61 717q0 207 54.5 350t148.5 231t221 127t273 39q141 0 268 -39t222 -127t150.5 -231t55.5 -350t-55.5 -350.5t-150.5 -231.5t-222 -127t-268 -39q-145 0 -272.5 39t-221.5 127t-148.5 231.5t-54.5 350.5zM348 717q0 -145 32 -242.5t87 -155t130 -81t161 -23.5 q84 0 158.5 23.5t130 81t88 154.5t32.5 243q0 145 -32.5 242.5t-88 154.5t-130 81t-158.5 24q-86 0 -161 -24t-130 -81t-87 -154.5t-32 -242.5zM471 1557v225h225v-225h-225zM819 1557v225h225v-225h-225z" />
<glyph unicode="&#xd7;" horiz-adv-x="1085" d="M123 340l299 274l-299 275l145 145l275 -301l274 301l146 -145l-301 -275l301 -274l-146 -145l-274 299l-275 -299z" />
<glyph unicode="&#xd8;" horiz-adv-x="1515" d="M61 717q0 207 54.5 350t148.5 231t221 127t273 39q82 0 159.5 -12t147.5 -41l61 105h185l-107 -183q115 -86 182.5 -236.5t67.5 -379.5q0 -207 -55.5 -350.5t-150.5 -231.5t-222 -127t-268 -39q-174 0 -309 51l-60 -102h-184l104 180q-115 86 -181.5 235.5t-66.5 383.5z M348 717q0 -135 26.5 -226.5t74.5 -150.5l487 846q-78 33 -178 33q-86 0 -161 -24t-130 -81t-87 -154.5t-32 -242.5zM578 246q41 -16 86 -23.5t94 -7.5q84 0 158.5 23.5t130 81t88 154.5t32.5 243q0 133 -27.5 224t-74.5 151z" />
<glyph unicode="&#xd9;" horiz-adv-x="1515" d="M102 594v840h287v-840q0 -109 28.5 -181.5t79 -116.5t117 -62.5t144.5 -18.5q76 0 142.5 18.5t116.5 62.5t79.5 116.5t29.5 181.5v840h287v-840q0 -178 -52 -298t-141.5 -192.5t-208 -103.5t-253.5 -31t-255 31t-209 103.5t-140.5 192.5t-51.5 298zM535 1776l98 133 l346 -289l-61 -84z" />
<glyph unicode="&#xda;" horiz-adv-x="1515" d="M102 594v840h287v-840q0 -109 28.5 -181.5t79 -116.5t117 -62.5t144.5 -18.5q76 0 142.5 18.5t116.5 62.5t79.5 116.5t29.5 181.5v840h287v-840q0 -178 -52 -298t-141.5 -192.5t-208 -103.5t-253.5 -31t-255 31t-209 103.5t-140.5 192.5t-51.5 298zM535 1620l346 289 l98 -133l-383 -240z" />
<glyph unicode="&#xdb;" horiz-adv-x="1515" d="M102 594v840h287v-840q0 -109 28.5 -181.5t79 -116.5t117 -62.5t144.5 -18.5q76 0 142.5 18.5t116.5 62.5t79.5 116.5t29.5 181.5v840h287v-840q0 -178 -52 -298t-141.5 -192.5t-208 -103.5t-253.5 -31t-255 31t-209 103.5t-140.5 192.5t-51.5 298zM412 1620l346 289 l346 -277l-61 -96l-285 178l-285 -178z" />
<glyph unicode="&#xdc;" horiz-adv-x="1515" d="M102 594v840h287v-840q0 -109 28.5 -181.5t79 -116.5t117 -62.5t144.5 -18.5q76 0 142.5 18.5t116.5 62.5t79.5 116.5t29.5 181.5v840h287v-840q0 -178 -52 -298t-141.5 -192.5t-208 -103.5t-253.5 -31t-255 31t-209 103.5t-140.5 192.5t-51.5 298zM471 1557v225h225 v-225h-225zM819 1557v225h225v-225h-225z" />
<glyph unicode="&#xdd;" horiz-adv-x="1351" d="M-20 1434h348l348 -560l348 560h348l-553 -828v-606h-287v606zM453 1620l346 289l98 -133l-383 -240z" />
<glyph unicode="&#xde;" horiz-adv-x="1495" d="M123 0v1434h287v-246h542q98 0 186.5 -24.5t154 -80t103.5 -145.5t38 -221q0 -135 -38 -225.5t-103.5 -145.5t-153.5 -77.5t-187 -22.5h-542v-246h-287zM410 492h542q39 0 75 11t62.5 36.5t42 68.5t15.5 109q0 123 -57.5 174t-137.5 51h-542v-450z" />
<glyph unicode="&#xdf;" horiz-adv-x="1320" d="M123 0v922q0 135 45 235t118.5 167t166 98.5t188.5 31.5q80 0 155.5 -23.5t135 -70.5t96.5 -115.5t37 -157.5q0 -90 -44 -182t-136 -172q86 -16 150.5 -53t107.5 -87t64.5 -110.5t21.5 -122.5q0 -68 -26.5 -133t-82 -115.5t-138.5 -81t-194 -30.5h-174v246h174q33 0 65 7 t56.5 22.5t40 42t15.5 67.5q0 53 -28 85t-68 51.5t-88 31.5t-88 29.5t-67.5 43t-27.5 70.5q0 49 32 96.5t70.5 93.5t70.5 91t32 92q0 70 -48 105.5t-106 35.5q-43 0 -86 -17t-76.5 -53t-55 -90.5t-21.5 -127.5v-922h-287z" />
<glyph unicode="&#xe0;" horiz-adv-x="1290" d="M61 383q0 109 29 182.5t78 117.5t115.5 63.5t142.5 19.5h496q0 63 -25 108.5t-64.5 72t-93 38.5t-114.5 12h-482v232h516q109 0 204 -23.5t168 -79t115 -143.5t42 -217v-766h-762q-76 0 -142.5 19.5t-115.5 64.5t-78 119t-29 180zM328 383q0 -84 46 -118t107 -34h441v306 h-441q-61 0 -107 -33t-46 -121zM422 1571l98 133l346 -289l-61 -84z" />
<glyph unicode="&#xe1;" horiz-adv-x="1290" d="M61 383q0 109 29 182.5t78 117.5t115.5 63.5t142.5 19.5h496q0 63 -25 108.5t-64.5 72t-93 38.5t-114.5 12h-482v232h516q109 0 204 -23.5t168 -79t115 -143.5t42 -217v-766h-762q-76 0 -142.5 19.5t-115.5 64.5t-78 119t-29 180zM328 383q0 -84 46 -118t107 -34h441v306 h-441q-61 0 -107 -33t-46 -121zM422 1415l346 289l98 -133l-383 -240z" />
<glyph unicode="&#xe2;" horiz-adv-x="1290" d="M61 383q0 109 29 182.5t78 117.5t115.5 63.5t142.5 19.5h496q0 63 -25 108.5t-64.5 72t-93 38.5t-114.5 12h-482v232h516q109 0 204 -23.5t168 -79t115 -143.5t42 -217v-766h-762q-76 0 -142.5 19.5t-115.5 64.5t-78 119t-29 180zM299 1415l346 289l346 -277l-61 -96 l-285 178l-285 -178zM328 383q0 -84 46 -118t107 -34h441v306h-441q-61 0 -107 -33t-46 -121z" />
<glyph unicode="&#xe3;" horiz-adv-x="1290" d="M61 383q0 109 29 182.5t78 117.5t115.5 63.5t142.5 19.5h496q0 63 -25 108.5t-64.5 72t-93 38.5t-114.5 12h-482v232h516q109 0 204 -23.5t168 -79t115 -143.5t42 -217v-766h-762q-76 0 -142.5 19.5t-115.5 64.5t-78 119t-29 180zM270 1468q18 8 42.5 23.5t54.5 30 t64.5 24.5t73.5 10q47 0 82 -12t65 -26.5t59.5 -26.5t70.5 -12q51 0 96 23.5t86 47.5l55 -139q-23 -6 -49 -19.5t-55 -26.5t-62.5 -23.5t-70.5 -10.5q-47 0 -81 12.5t-63.5 27.5t-60.5 27.5t-72 12.5q-18 0 -43.5 -8t-51 -20.5t-49.5 -26t-36 -25.5zM328 383q0 -84 46 -118 t107 -34h441v306h-441q-61 0 -107 -33t-46 -121z" />
<glyph unicode="&#xe4;" horiz-adv-x="1290" d="M61 383q0 109 29 182.5t78 117.5t115.5 63.5t142.5 19.5h496q0 63 -25 108.5t-64.5 72t-93 38.5t-114.5 12h-482v232h516q109 0 204 -23.5t168 -79t115 -143.5t42 -217v-766h-762q-76 0 -142.5 19.5t-115.5 64.5t-78 119t-29 180zM328 383q0 -84 46 -118t107 -34h441v306 h-441q-61 0 -107 -33t-46 -121zM359 1352v225h225v-225h-225zM707 1352v225h225v-225h-225z" />
<glyph unicode="&#xe5;" horiz-adv-x="1290" d="M61 383q0 109 29 182.5t78 117.5t115.5 63.5t142.5 19.5h496q0 63 -25 108.5t-64.5 72t-93 38.5t-114.5 12h-482v232h516q109 0 204 -23.5t168 -79t115 -143.5t42 -217v-766h-762q-76 0 -142.5 19.5t-115.5 64.5t-78 119t-29 180zM328 383q0 -84 46 -118t107 -34h441v306 h-441q-61 0 -107 -33t-46 -121zM410 1556q0 49 18.5 91.5t51 75t74.5 51t91 18.5t91.5 -18.5t75 -51t51 -74.5t18.5 -92q0 -49 -18.5 -91t-51 -74.5t-75 -51t-91.5 -18.5t-91 18.5t-74.5 51t-51 74.5t-18.5 91zM533 1556q0 -47 32.5 -79.5t79.5 -32.5t80 32.5t33 79.5 t-32.5 80t-80.5 33q-47 0 -79.5 -32.5t-32.5 -80.5z" />
<glyph unicode="&#xe6;" horiz-adv-x="2029" d="M61 383q0 109 29 182.5t78 117.5t115.5 63.5t142.5 19.5h496q0 63 -25 108.5t-64.5 72t-93 38.5t-114.5 12h-482v232h516q141 0 257 -40t188 -136q61 94 151.5 135t194.5 41h457v-232h-422q-53 0 -100.5 -13t-85 -44t-64.5 -82t-39 -127h711v-233h-711q12 -78 39 -129.5 t64.5 -82t85 -43t100.5 -12.5h422v-231h-457q-74 0 -140.5 19.5t-121.5 64.5v-84h-762q-76 0 -142.5 19.5t-115.5 64.5t-78 119t-29 180zM328 383q0 -84 46 -118t107 -34h441v306h-441q-61 0 -107 -33t-46 -121z" />
<glyph unicode="&#xe7;" horiz-adv-x="1148" d="M61 614q0 172 42 289t114 189.5t168 104.5t205 32h457v-232h-422q-61 0 -115.5 -18t-94.5 -62.5t-63.5 -118t-23.5 -184.5t23.5 -184.5t63.5 -117.5t94 -62.5t116 -18.5h422v-231h-359l-10 -70q104 0 163.5 -47t59.5 -106q0 -49 -23.5 -84t-61.5 -57.5t-87 -34 t-100 -11.5q-59 0 -115.5 13.5t-101.5 40.5v114q4 0 24.5 -8t50 -17t66.5 -17.5t72 -8.5q16 0 36.5 4t39 12.5t30.5 21.5t12 34q0 35 -29.5 47t-64.5 12t-66.5 -7t-47.5 -11l30 180q-104 2 -196.5 37t-161 107.5t-107.5 188.5t-39 281z" />
<glyph unicode="&#xe8;" horiz-adv-x="1169" d="M61 614q0 172 42 289t114 189.5t168 104.5t205 32h457v-232h-422q-53 0 -100.5 -13t-85.5 -44t-64.5 -82t-38.5 -127h711v-233h-711q12 -78 38.5 -129.5t64.5 -82t85 -43t101 -12.5h422v-231h-457q-109 0 -205 31.5t-168 104.5t-114 189.5t-42 288.5zM363 1571l98 133 l346 -289l-61 -84z" />
<glyph unicode="&#xe9;" horiz-adv-x="1169" d="M61 614q0 172 42 289t114 189.5t168 104.5t205 32h457v-232h-422q-53 0 -100.5 -13t-85.5 -44t-64.5 -82t-38.5 -127h711v-233h-711q12 -78 38.5 -129.5t64.5 -82t85 -43t101 -12.5h422v-231h-457q-109 0 -205 31.5t-168 104.5t-114 189.5t-42 288.5zM363 1415l346 289 l98 -133l-383 -240z" />
<glyph unicode="&#xea;" horiz-adv-x="1169" d="M61 614q0 172 42 289t114 189.5t168 104.5t205 32h457v-232h-422q-53 0 -100.5 -13t-85.5 -44t-64.5 -82t-38.5 -127h711v-233h-711q12 -78 38.5 -129.5t64.5 -82t85 -43t101 -12.5h422v-231h-457q-109 0 -205 31.5t-168 104.5t-114 189.5t-42 288.5zM238 1415l346 289 l346 -277l-61 -96l-285 178l-285 -178z" />
<glyph unicode="&#xeb;" horiz-adv-x="1169" d="M61 614q0 172 42 289t114 189.5t168 104.5t205 32h457v-232h-422q-53 0 -100.5 -13t-85.5 -44t-64.5 -82t-38.5 -127h711v-233h-711q12 -78 38.5 -129.5t64.5 -82t85 -43t101 -12.5h422v-231h-457q-109 0 -205 31.5t-168 104.5t-114 189.5t-42 288.5zM297 1352v225h225 v-225h-225zM645 1352v225h225v-225h-225z" />
<glyph unicode="&#xec;" horiz-adv-x="512" d="M39 1571l98 133l346 -289l-61 -84zM123 0v1229h266v-1229h-266z" />
<glyph unicode="&#xed;" horiz-adv-x="512" d="M39 1415l346 289l98 -133l-383 -240zM123 0v1229h266v-1229h-266z" />
<glyph unicode="&#xee;" horiz-adv-x="512" d="M-86 1415l346 289l346 -277l-61 -96l-285 178l-285 -178zM123 0v1229h266v-1229h-266z" />
<glyph unicode="&#xef;" horiz-adv-x="512" d="M-27 1352v225h225v-225h-225zM123 0v1229h266v-1229h-266zM321 1352v225h225v-225h-225z" />
<glyph unicode="&#xf0;" d="M61 614q0 172 42 289t114 189.5t168 104.5t205 32h332q0 98 -62.5 138t-152.5 40h-359v-137h-205v368h639q84 0 158 -21.5t129 -69.5t87 -127t32 -191v-1229h-598q-109 0 -205 31.5t-168 104.5t-114 189.5t-42 288.5zM328 614q0 -111 23.5 -184.5t63.5 -117.5t94 -62.5 t116 -18.5h297v766h-297q-61 0 -115.5 -18t-94.5 -62.5t-63.5 -118t-23.5 -184.5z" />
<glyph unicode="&#xf1;" d="M123 0v1229h557q109 0 205 -23.5t167.5 -79t113.5 -144.5t42 -218v-764h-266v764q0 66 -23.5 110t-63.5 71.5t-94 39.5t-116 12h-256v-997h-266zM281 1468q18 8 42.5 23.5t54.5 30t64.5 24.5t73.5 10q47 0 82 -12t65 -26.5t59.5 -26.5t70.5 -12q51 0 96 23.5t86 47.5 l55 -139q-23 -6 -49 -19.5t-55 -26.5t-62.5 -23.5t-70.5 -10.5q-47 0 -81 12.5t-63.5 27.5t-60.5 27.5t-72 12.5q-18 0 -43.5 -8t-51 -20.5t-49.5 -26t-36 -25.5z" />
<glyph unicode="&#xf2;" horiz-adv-x="1320" d="M61 614q0 178 47.5 301t128 200t189.5 111t233 34q123 0 231.5 -34t190.5 -111t130.5 -199.5t48.5 -301.5q0 -178 -48.5 -301t-130.5 -199.5t-190.5 -110.5t-231.5 -34q-125 0 -233.5 34t-189 110.5t-128 199.5t-47.5 301zM328 614q0 -119 26.5 -198.5t71.5 -126.5 t105 -67.5t128 -20.5t128.5 20.5t105.5 67.5t71.5 127t26.5 198q0 119 -26.5 199t-71.5 127t-105.5 67.5t-128.5 20.5t-128 -20.5t-105 -67.5t-71.5 -127t-26.5 -199zM438 1571l98 133l346 -289l-61 -84z" />
<glyph unicode="&#xf3;" horiz-adv-x="1320" d="M61 614q0 178 47.5 301t128 200t189.5 111t233 34q123 0 231.5 -34t190.5 -111t130.5 -199.5t48.5 -301.5q0 -178 -48.5 -301t-130.5 -199.5t-190.5 -110.5t-231.5 -34q-125 0 -233.5 34t-189 110.5t-128 199.5t-47.5 301zM328 614q0 -119 26.5 -198.5t71.5 -126.5 t105 -67.5t128 -20.5t128.5 20.5t105.5 67.5t71.5 127t26.5 198q0 119 -26.5 199t-71.5 127t-105.5 67.5t-128.5 20.5t-128 -20.5t-105 -67.5t-71.5 -127t-26.5 -199zM438 1415l346 289l98 -133l-383 -240z" />
<glyph unicode="&#xf4;" horiz-adv-x="1320" d="M61 614q0 178 47.5 301t128 200t189.5 111t233 34q123 0 231.5 -34t190.5 -111t130.5 -199.5t48.5 -301.5q0 -178 -48.5 -301t-130.5 -199.5t-190.5 -110.5t-231.5 -34q-125 0 -233.5 34t-189 110.5t-128 199.5t-47.5 301zM313 1415l346 289l346 -277l-61 -96l-285 178 l-285 -178zM328 614q0 -119 26.5 -198.5t71.5 -126.5t105 -67.5t128 -20.5t128.5 20.5t105.5 67.5t71.5 127t26.5 198q0 119 -26.5 199t-71.5 127t-105.5 67.5t-128.5 20.5t-128 -20.5t-105 -67.5t-71.5 -127t-26.5 -199z" />
<glyph unicode="&#xf5;" horiz-adv-x="1320" d="M61 614q0 178 47.5 301t128 200t189.5 111t233 34q123 0 231.5 -34t190.5 -111t130.5 -199.5t48.5 -301.5q0 -178 -48.5 -301t-130.5 -199.5t-190.5 -110.5t-231.5 -34q-125 0 -233.5 34t-189 110.5t-128 199.5t-47.5 301zM285 1468q18 8 42.5 23.5t54.5 30t64.5 24.5 t73.5 10q47 0 82 -12t65 -26.5t59.5 -26.5t70.5 -12q51 0 96 23.5t86 47.5l55 -139q-23 -6 -49 -19.5t-55 -26.5t-62.5 -23.5t-70.5 -10.5q-47 0 -81 12.5t-63.5 27.5t-60.5 27.5t-72 12.5q-18 0 -43.5 -8t-51 -20.5t-49.5 -26t-36 -25.5zM328 614q0 -119 26.5 -198.5 t71.5 -126.5t105 -67.5t128 -20.5t128.5 20.5t105.5 67.5t71.5 127t26.5 198q0 119 -26.5 199t-71.5 127t-105.5 67.5t-128.5 20.5t-128 -20.5t-105 -67.5t-71.5 -127t-26.5 -199z" />
<glyph unicode="&#xf6;" horiz-adv-x="1320" d="M61 614q0 178 47.5 301t128 200t189.5 111t233 34q123 0 231.5 -34t190.5 -111t130.5 -199.5t48.5 -301.5q0 -178 -48.5 -301t-130.5 -199.5t-190.5 -110.5t-231.5 -34q-125 0 -233.5 34t-189 110.5t-128 199.5t-47.5 301zM328 614q0 -119 26.5 -198.5t71.5 -126.5 t105 -67.5t128 -20.5t128.5 20.5t105.5 67.5t71.5 127t26.5 198q0 119 -26.5 199t-71.5 127t-105.5 67.5t-128.5 20.5t-128 -20.5t-105 -67.5t-71.5 -127t-26.5 -199zM373 1352v225h225v-225h-225zM721 1352v225h225v-225h-225z" />
<glyph unicode="&#xf7;" horiz-adv-x="1228" d="M123 512v205h983v-205h-983zM502 82v225h225v-225h-225zM502 922v225h225v-225h-225z" />
<glyph unicode="&#xf8;" horiz-adv-x="1320" d="M61 614q0 178 47.5 301t128 200t189.5 111t233 34q133 0 244 -39l49 90h164l-84 -156q104 -74 166 -205t62 -336q0 -178 -48.5 -301t-130.5 -199.5t-190.5 -110.5t-231.5 -34q-133 0 -243 37l-47 -88h-164l82 154q-104 72 -165 204t-61 338zM328 614q0 -111 21.5 -186.5 t62.5 -124.5l376 705q-29 10 -61.5 15t-67.5 5q-68 0 -128 -20.5t-105 -67.5t-71.5 -127t-26.5 -199zM530 221q29 -10 62 -15t67 -5q68 0 128.5 20.5t105.5 67.5t71.5 127t26.5 198q0 111 -22.5 185.5t-61.5 124.5z" />
<glyph unicode="&#xf9;" d="M102 465v764h267v-764q0 -66 23.5 -110t63.5 -71.5t94 -40t116 -12.5h256v998h266v-1229h-557q-109 0 -205 23.5t-168 79t-114 144.5t-42 218zM432 1571l98 133l346 -289l-61 -84z" />
<glyph unicode="&#xfa;" d="M102 465v764h267v-764q0 -66 23.5 -110t63.5 -71.5t94 -40t116 -12.5h256v998h266v-1229h-557q-109 0 -205 23.5t-168 79t-114 144.5t-42 218zM432 1415l346 289l98 -133l-383 -240z" />
<glyph unicode="&#xfb;" d="M102 465v764h267v-764q0 -66 23.5 -110t63.5 -71.5t94 -40t116 -12.5h256v998h266v-1229h-557q-109 0 -205 23.5t-168 79t-114 144.5t-42 218zM309 1415l346 289l346 -277l-61 -96l-285 178l-285 -178z" />
<glyph unicode="&#xfc;" d="M102 465v764h267v-764q0 -66 23.5 -110t63.5 -71.5t94 -40t116 -12.5h256v998h266v-1229h-557q-109 0 -205 23.5t-168 79t-114 144.5t-42 218zM369 1352v225h225v-225h-225zM717 1352v225h225v-225h-225z" />
<glyph unicode="&#xfd;" d="M102 465v764h267v-764q0 -131 66.5 -182.5t189.5 -51.5h297v998h266v-1229q0 -115 -32 -192.5t-87 -126t-129 -70t-158 -21.5h-598v232h523q90 0 152.5 40t62.5 138h-332q-109 0 -199 23.5t-154.5 79t-99.5 144.5t-35 218zM432 1415l346 289l98 -133l-383 -240z" />
<glyph unicode="&#xfe;" d="M123 -307v1843h266v-307h332q109 0 205 -33t167.5 -105.5t113.5 -190.5t42 -286q0 -176 -42 -293.5t-113.5 -188.5t-168 -101.5t-204.5 -30.5h-332v-307h-266zM389 231h297q61 0 115.5 18.5t94.5 62.5t63.5 118t23.5 184q0 104 -23.5 177t-63.5 119t-94 66.5t-116 20.5 h-297v-766z" />
<glyph unicode="&#xff;" d="M102 465v764h267v-764q0 -131 66.5 -182.5t189.5 -51.5h297v998h266v-1229q0 -115 -32 -192.5t-87 -126t-129 -70t-158 -21.5h-598v232h523q90 0 152.5 40t62.5 138h-332q-109 0 -199 23.5t-154.5 79t-99.5 144.5t-35 218zM369 1352v225h225v-225h-225zM717 1352v225h225 v-225h-225z" />
<glyph unicode="&#x152;" horiz-adv-x="2437" d="M61 717q0 207 54.5 350t148.5 231t221 127t273 39q172 0 317.5 -66.5t233.5 -217.5q78 137 201.5 195.5t271.5 58.5h532v-246h-491q-68 0 -127.5 -17.5t-107.5 -57.5t-81.5 -106.5t-46.5 -166.5h854v-246h-854q12 -100 46 -167t82 -106.5t107.5 -57t127.5 -17.5h491v-246 h-532q-147 0 -271.5 58.5t-201.5 193.5q-88 -152 -233.5 -217.5t-317.5 -65.5q-145 0 -272.5 39t-221.5 127t-148.5 231.5t-54.5 350.5zM348 717q0 -145 32 -242.5t87 -155t130 -81t161 -23.5q84 0 158.5 23.5t130 81t88 154.5t32.5 243q0 145 -32.5 242.5t-88 154.5 t-130 81t-158.5 24q-86 0 -161 -24t-130 -81t-87 -154.5t-32 -242.5z" />
<glyph unicode="&#x153;" horiz-adv-x="2099" d="M61 614q0 178 47.5 301t128 200t189.5 111t233 34q143 0 265.5 -54.5t199.5 -181.5q66 111 169.5 158t226.5 47h456v-232h-422q-53 0 -100 -13t-85 -44t-64.5 -82t-38.5 -127h710v-233h-710q12 -78 38.5 -129.5t64.5 -82t85 -43t100 -12.5h422v-231h-456 q-123 0 -226.5 47t-169.5 158q-78 -127 -199.5 -181.5t-265.5 -54.5q-125 0 -233.5 34t-189 110.5t-128 199.5t-47.5 301zM328 614q0 -119 26.5 -198.5t71.5 -126.5t105 -67.5t128 -20.5t128.5 20.5t105.5 67.5t71.5 127t26.5 198q0 119 -26.5 199t-71.5 127t-105.5 67.5 t-128.5 20.5t-128 -20.5t-105 -67.5t-71.5 -127t-26.5 -199z" />
<glyph unicode="&#x178;" horiz-adv-x="1351" d="M-20 1434h348l348 -560l348 560h348l-553 -828v-606h-287v606zM389 1557v225h225v-225h-225zM737 1557v225h225v-225h-225z" />
<glyph unicode="&#x2c6;" horiz-adv-x="937" d="M123 1415l346 289l346 -277l-61 -96l-285 178l-285 -178z" />
<glyph unicode="&#x2dc;" horiz-adv-x="995" d="M123 1468q18 8 42.5 23.5t54.5 30t64.5 24.5t73.5 10q47 0 82 -12t65 -26.5t59.5 -26.5t70.5 -12q51 0 96 23.5t86 47.5l55 -139q-23 -6 -49 -19.5t-55 -26.5t-62.5 -23.5t-70.5 -10.5q-47 0 -81 12.5t-63.5 27.5t-60.5 27.5t-72 12.5q-18 0 -43.5 -8t-51 -20.5 t-49.5 -26t-36 -25.5z" />
<glyph unicode="&#x2000;" horiz-adv-x="998" />
<glyph unicode="&#x2001;" horiz-adv-x="1997" />
<glyph unicode="&#x2002;" horiz-adv-x="998" />
<glyph unicode="&#x2003;" horiz-adv-x="1997" />
<glyph unicode="&#x2004;" horiz-adv-x="665" />
<glyph unicode="&#x2005;" horiz-adv-x="499" />
<glyph unicode="&#x2006;" horiz-adv-x="332" />
<glyph unicode="&#x2007;" horiz-adv-x="332" />
<glyph unicode="&#x2008;" horiz-adv-x="249" />
<glyph unicode="&#x2009;" horiz-adv-x="399" />
<glyph unicode="&#x200a;" horiz-adv-x="110" />
<glyph unicode="&#x2010;" horiz-adv-x="1064" d="M123 502v225h819v-225h-819z" />
<glyph unicode="&#x2011;" horiz-adv-x="1064" d="M123 502v225h819v-225h-819z" />
<glyph unicode="&#x2012;" horiz-adv-x="1064" d="M123 502v225h819v-225h-819z" />
<glyph unicode="&#x2013;" horiz-adv-x="860" d="M123 502v225h614v-225h-614z" />
<glyph unicode="&#x2014;" horiz-adv-x="1884" d="M123 502v225h1638v-225h-1638z" />
<glyph unicode="&#x2018;" horiz-adv-x="532" d="M123 819l61 717h164l62 -717h-287z" />
<glyph unicode="&#x2019;" horiz-adv-x="532" d="M123 1536h287l-62 -717h-164z" />
<glyph unicode="&#x201a;" horiz-adv-x="532" d="M123 512h287l-62 -717h-164z" />
<glyph unicode="&#x201c;" horiz-adv-x="901" d="M123 819l61 717h164l62 -717h-287zM492 819l61 717h164l61 -717h-286z" />
<glyph unicode="&#x201d;" horiz-adv-x="901" d="M123 1536h287l-62 -717h-164zM492 1536h286l-61 -717h-164z" />
<glyph unicode="&#x201e;" horiz-adv-x="901" d="M123 512h287l-62 -717h-164zM492 512h286l-61 -717h-164z" />
<glyph unicode="&#x2022;" horiz-adv-x="1024" d="M123 717q0 80 30.5 150.5t83 123.5t124 84t151.5 31t150.5 -31t124 -84t84 -123.5t30.5 -150.5t-30.5 -151.5t-84 -124t-124 -83t-150.5 -30.5t-151.5 30.5t-124 83t-83 124t-30.5 151.5z" />
<glyph unicode="&#x2026;" horiz-adv-x="1515" d="M123 0v287h287v-287h-287zM614 0v287h287v-287h-287zM1106 0v287h287v-287h-287z" />
<glyph unicode="&#x202f;" horiz-adv-x="399" />
<glyph unicode="&#x2039;" horiz-adv-x="749" d="M123 614l328 570l176 -103l-289 -467l289 -467l-176 -102z" />
<glyph unicode="&#x203a;" horiz-adv-x="749" d="M123 147l289 467l-289 467l176 103l328 -570l-328 -569z" />
<glyph unicode="&#x205f;" horiz-adv-x="499" />
<glyph unicode="&#x20ac;" horiz-adv-x="1556" d="M61 502l62 143h166q-2 16 -2 34.5v37.5v35.5t2 35.5h-228l62 144h182q25 137 80 232.5t134 155.5t176.5 87t205.5 27h533v-246h-492q-117 0 -210 -56.5t-134 -199.5h651l-61 -144h-613q-2 -16 -2 -34.5v-36.5t1 -36.5t1 -35.5h572l-62 -143h-487q41 -145 134 -200.5 t210 -55.5h492v-246h-533q-109 0 -206 26.5t-176 87t-134 156t-80 232.5h-244z" />
<glyph unicode="&#x2122;" horiz-adv-x="2058" d="M123 1286v148h786v-148h-307v-713h-172v713h-307zM979 573v861h248l229 -637l232 637h247v-861h-168v605l-217 -605h-186l-213 601v-601h-172z" />
<glyph unicode="&#x25fc;" horiz-adv-x="1228" d="M0 0v1229h1229v-1229h-1229z" />
<glyph unicode="&#xfb01;" horiz-adv-x="1413" d="M61 997v232h205v102q0 86 29 144.5t78 95.5t115.5 52t142.5 15h659v-225h-665q-39 0 -66 -16.5t-27 -59.5v-108h287v-232h-287v-997h-266v997h-205zM1024 0v1229h266v-1229h-266z" />
<glyph unicode="&#xfb02;" horiz-adv-x="1413" d="M61 997v232h205v102q0 86 29 144.5t78 95.5t115.5 52t142.5 15h659v-1638h-266v1413h-399q-39 0 -66 -16.5t-27 -59.5v-108h287v-232h-287v-997h-266v997h-205z" />
</font>
</defs>
</svg>
