<?xml version="1.0" standalone="no"?>
<!DOCTYPE svg PUBLIC "-//W3C//DTD SVG 1.1//EN" "http://www.w3.org/Graphics/SVG/1.1/DTD/svg11.dtd" >
<svg xmlns="http://www.w3.org/2000/svg">
<metadata></metadata>
<defs>
<font id="sf_fourchebold" horiz-adv-x="1273" >
<font-face units-per-em="2048" ascent="1638" descent="-410" />
<missing-glyph horiz-adv-x="995" />
<glyph horiz-adv-x="0" />
<glyph unicode="&#xd;" horiz-adv-x="995" />
<glyph unicode=" "  horiz-adv-x="995" />
<glyph unicode="&#x09;" horiz-adv-x="995" />
<glyph unicode="&#xa0;" horiz-adv-x="995" />
<glyph unicode="!" horiz-adv-x="518" d="M100 0v319h318v-319h-318zM100 1534h318l-39 -1096h-240z" />
<glyph unicode="&#x22;" horiz-adv-x="876" d="M98 1534h322l-64 -737h-194zM457 1534h321l-63 -737h-195z" />
<glyph unicode="#" horiz-adv-x="1353" d="M100 557v201h265l22 198h-227v199h248l30 279h199l-29 -279h199l29 279h200l-28 -279h245v-199h-270l-18 -198h229v-201h-252l-29 -278h-198l30 278h-202l-27 -278h-199l27 278h-244zM565 758h199l22 198h-200z" />
<glyph unicode="$" horiz-adv-x="1413" d="M70 1006q0 123 31.5 204.5t90 132t141.5 71t185 20.5h90v198h199v-198h498v-279h-498v-299h88q102 0 185 -21.5t141.5 -72.5t90 -133t31.5 -201q0 -123 -31.5 -205t-90 -131t-141.5 -70.5t-185 -21.5h-88v-199h-199v199h-499v279h499v299h-90q-102 0 -185 22.5 t-141.5 72.5t-90 132t-31.5 201zM389 1006q0 -84 49 -117t119 -33h51v299h-51q-70 0 -119 -32.5t-49 -116.5zM807 279h49q72 0 121 32.5t49 116.5t-50 117t-120 33h-49v-299z" />
<glyph unicode="%" horiz-adv-x="1982" d="M100 1057q0 111 29 186.5t79 122.5t118.5 67.5t146.5 20.5q76 0 144.5 -20.5t119.5 -67.5t81 -123t30 -186q0 -111 -30 -187.5t-81 -124t-119.5 -69t-144.5 -21.5q-78 0 -146.5 21.5t-118.5 69t-79 124t-29 187.5zM311 1057q0 -121 47 -166t115 -45t116 45t48 166 q0 59 -13.5 99t-35 63.5t-52 34t-63.5 10.5q-68 0 -115 -44t-47 -163zM563 0l635 1434h221l-635 -1434h-221zM1135 381q0 111 28.5 186.5t79.5 122.5t120 67.5t146 20.5q76 0 143.5 -20.5t119 -67.5t82 -122.5t30.5 -186.5t-30.5 -186.5t-82 -123.5t-119 -68.5t-143.5 -20.5 q-78 0 -146.5 20.5t-119.5 68.5t-79.5 123.5t-28.5 186.5zM1346 381q0 -121 47 -165t116 -44q68 0 116 44t48 165q0 61 -13 101t-34.5 63.5t-52.5 33t-64 9.5q-70 0 -116.5 -43t-46.5 -164z" />
<glyph unicode="&#x26;" horiz-adv-x="1394" d="M80 399q0 121 46 202t124 128q-59 47 -95 122t-36 185q0 113 37 190t100 123t148 65.5t184 19.5h508v-279h-508q-61 0 -105.5 -31.5t-44.5 -117.5q0 -84 44 -117t106 -33h229v-278h-270q-61 0 -105.5 -36t-44.5 -128q0 -47 12.5 -79t32 -50.5t47 -26.5t58.5 -8h90 q68 0 128 20.5t106.5 71.5t73 135t30.5 213v166h319v-856h-319v123q-86 -86 -194.5 -119t-233.5 -33q-96 0 -181 21.5t-148.5 71t-100.5 131t-37 204.5z" />
<glyph unicode="'" horiz-adv-x="518" d="M98 1534h322l-64 -737h-194z" />
<glyph unicode="(" horiz-adv-x="755" d="M100 41v1075q0 88 22.5 148.5t62.5 98.5t93.5 54.5t114.5 16.5h264v-220h-208q-29 0 -49.5 -19t-20.5 -73v-1087q0 -53 20.5 -73.5t49.5 -20.5h208v-220h-264q-61 0 -114.5 16.5t-93.5 54.5t-62.5 98.5t-22.5 150.5z" />
<glyph unicode=")" horiz-adv-x="755" d="M100 -59h209q29 0 49.5 20.5t20.5 73.5v1087q0 53 -20.5 72.5t-49.5 19.5h-209v220h262q61 0 114.5 -16.5t93.5 -54.5t63.5 -98.5t23.5 -148.5v-1075q0 -90 -23.5 -150.5t-63.5 -98.5t-93 -54.5t-115 -16.5h-262v220z" />
<glyph unicode="*" horiz-adv-x="1167" d="M92 791l303 145q-74 35 -152.5 74t-150.5 71l121 209l279 -194l-29 338h242l-27 -338q68 47 140.5 98t137.5 96l119 -209l-305 -145q76 -35 155 -73t150 -72l-119 -209l-278 190l27 -334h-242l26 334l-278 -190z" />
<glyph unicode="+" horiz-adv-x="1193" d="M100 498v239h377v379h240v-379h379v-239h-379v-377h-240v377h-377z" />
<glyph unicode="," horiz-adv-x="518" d="M98 319h322l-64 -598h-194z" />
<glyph unicode="-" horiz-adv-x="1036" d="M100 487v261h836v-261h-836z" />
<glyph unicode="." horiz-adv-x="518" d="M100 0v319h318v-319h-318z" />
<glyph unicode="/" horiz-adv-x="915" d="M-49 -279l794 1792h222l-795 -1792h-221z" />
<glyph unicode="0" horiz-adv-x="1599" d="M162 717q0 207 50 350t136 231t203 127t250 39q131 0 246.5 -39t202.5 -127t137.5 -231t50.5 -350t-50.5 -349.5t-137.5 -230.5t-202.5 -127t-246.5 -39q-133 0 -250 39t-203 127t-136 230.5t-50 349.5zM481 717q0 -135 25.5 -225.5t68.5 -144.5t101.5 -75.5t124.5 -21.5 t123 21.5t100 75.5t68.5 144.5t25.5 225.5t-25.5 226t-68.5 144.5t-100.5 76t-122.5 22.5q-66 0 -124.5 -22.5t-101.5 -76t-68.5 -144.5t-25.5 -226z" />
<glyph unicode="1" horiz-adv-x="763" d="M223 0v1368l318 115v-1483h-318z" />
<glyph unicode="2" horiz-adv-x="1640" d="M193 0v428q0 119 31.5 201t90 133t141.5 72.5t185 21.5h317q72 0 121 33t49 117t-50 116.5t-120 32.5h-727v279h768q102 0 185.5 -20.5t141.5 -71t90 -132.5t32 -204q0 -119 -32 -201t-90 -132t-141 -72.5t-186 -22.5h-319q-70 0 -119 -33t-49 -117v-149h915v-279h-1234z " />
<glyph unicode="3" horiz-adv-x="1589" d="M203 0v279h745q61 0 105.5 32.5t44.5 116.5q0 86 -44 118t-106 32h-547v278h508q61 0 105.5 33t44.5 117q0 86 -44 117.5t-106 31.5h-706v279h706q96 0 181.5 -19.5t149 -65.5t100 -123t36.5 -190q0 -111 -35.5 -185.5t-95.5 -121.5q80 -47 126 -127t46 -203 q0 -113 -37 -189.5t-100 -122.5t-148 -66.5t-184 -20.5h-745z" />
<glyph unicode="4" horiz-adv-x="1699" d="M143 279v307l830 848h385v-877h198v-278h-198v-279h-320v279h-895zM526 557h512v535q-68 -72 -130 -136.5t-123.5 -129t-125 -130t-133.5 -139.5z" />
<glyph unicode="5" horiz-adv-x="1640" d="M193 0v279h765q72 0 121 36.5t49 133.5q0 94 -49 131.5t-121 37.5h-765v816h1175v-279h-856v-258h487q102 0 185.5 -23.5t141.5 -77t90 -138.5t32 -209q0 -129 -32 -215.5t-90 -138.5t-141 -73.5t-186 -21.5h-806z" />
<glyph unicode="6" horiz-adv-x="1648" d="M162 717q0 199 49 336t133 222t196.5 122t241.5 37h611v-279h-572q-106 0 -189 -47t-120 -172h541q90 0 170 -21.5t138 -72.5t92 -136t34 -212q0 -137 -34 -231.5t-92 -153t-138 -84t-170 -25.5h-271q-129 0 -241.5 38t-196.5 122t-133 221t-49 336zM481 659 q6 -113 34 -186.5t74 -116.5t105.5 -60t126.5 -17h170q35 0 67 12t56.5 37.5t38.5 66.5t14 99q0 47 -14 78.5t-38.5 51t-56.5 27.5t-67 8h-510z" />
<glyph unicode="7" horiz-adv-x="1449" d="M154 1155v279h1173v-263l-727 -1171h-403l739 1155h-782z" />
<glyph unicode="8" horiz-adv-x="1658" d="M172 399q0 121 47 202t125 128q-59 47 -95 122t-36 185q0 113 37 190t100.5 123t148.5 65.5t181 19.5h299q96 0 182 -19.5t149.5 -65.5t100.5 -123t37 -190q0 -111 -37 -185.5t-96 -121.5q80 -47 126 -127t46 -203q0 -113 -37 -189.5t-100.5 -122.5t-148.5 -66.5 t-183 -20.5h-377q-98 0 -183 20.5t-148.5 66.5t-100.5 122.5t-37 189.5zM492 428q0 -84 44 -116.5t105 -32.5h377q61 0 105 32.5t44 116.5q0 86 -44 118t-105 32h-377q-61 0 -105 -32t-44 -118zM530 1006q0 -84 44 -117t106 -33h299q61 0 105 33t44 117q0 86 -44 117.5 t-105 31.5h-299q-61 0 -105.5 -31.5t-44.5 -117.5z" />
<glyph unicode="9" horiz-adv-x="1648" d="M162 940q0 137 33.5 231.5t93 152.5t138.5 84t169 26h272q129 0 242 -37t197 -122t132 -222.5t48 -335.5q0 -199 -48 -336t-132 -221t-197 -122t-242 -38h-612v279h571q53 0 101.5 10t88.5 35.5t71.5 67.5t50.5 106h-543q-90 0 -169 21.5t-138.5 73.5t-93 136t-33.5 211z M481 940q0 -47 14.5 -79t39 -51t57.5 -27.5t67 -8.5h508q-4 113 -32.5 186.5t-73.5 116.5t-105.5 60.5t-128.5 17.5h-168q-72 0 -125 -49t-53 -166z" />
<glyph unicode=":" horiz-adv-x="518" d="M100 0v319h318v-319h-318zM100 637v319h318v-319h-318z" />
<glyph unicode=";" horiz-adv-x="518" d="M98 319h322l-64 -598h-194zM100 637v319h318v-319h-318z" />
<glyph unicode="&#x3c;" horiz-adv-x="1185" d="M100 506v223l889 432l105 -215l-713 -328l713 -329l-105 -215z" />
<glyph unicode="=" horiz-adv-x="1193" d="M100 299v240h996v-240h-996zM100 698v238h996v-238h-996z" />
<glyph unicode="&#x3e;" horiz-adv-x="1185" d="M94 289l713 329l-713 328l103 215l890 -432v-223l-890 -432z" />
<glyph unicode="?" horiz-adv-x="1333" d="M100 0v319h318v-319h-318zM113 561q0 135 36.5 214t96 119t134.5 51t148 11h220q70 0 118.5 33t48.5 117t-49 116.5t-118 32.5h-609v279h647q102 0 185.5 -21.5t141.5 -70.5t90 -131t32 -205q0 -121 -32 -202t-90 -132t-141 -72.5t-186 -21.5h-258q-29 0 -52 -8 t-40.5 -34t-28 -73t-10.5 -125h-276q-4 39 -6 70t-2 53z" />
<glyph unicode="@" horiz-adv-x="1691" d="M100 717q0 156 58.5 292t160 237.5t236.5 159.5t291 58t292 -58t237.5 -159.5t159.5 -238t58 -291.5q0 -156 -58 -291t-159.5 -236.5t-238 -160t-291.5 -58.5q-156 0 -291 58.5t-236.5 160t-160 236.5t-58.5 291zM279 717q0 -117 45 -220.5t121.5 -180t180 -121.5 t220.5 -45t220 45t180 121.5t122 180t45 220.5t-45 220t-122 180t-180 122t-220 45t-220.5 -45t-180 -122t-121.5 -180t-45 -220zM483 582q0 70 18.5 116.5t50.5 74.5t74 40t91 12h266q-8 53 -51 74t-101 21h-299v176h320q68 0 128 -15.5t104 -49.5t71 -90t27 -136v-465 h-465q-49 0 -91 12.5t-74 41t-50.5 74.5t-18.5 114zM680 582q0 -37 20.5 -52.5t49.5 -15.5h235v137h-235q-29 0 -49.5 -15t-20.5 -54z" />
<glyph unicode="A" horiz-adv-x="1464" d="M-70 0l639 1434h326l639 -1434h-354l-119 279h-660l-116 -279h-355zM520 557h424q-55 131 -105.5 248t-107.5 252z" />
<glyph unicode="B" horiz-adv-x="1482" d="M100 0v1434h826q96 0 182 -19.5t149.5 -65.5t100.5 -123t37 -190q0 -111 -37 -185.5t-96 -121.5q80 -47 126 -127t46 -203q0 -113 -37 -189.5t-100.5 -122.5t-148.5 -66.5t-181 -20.5h-867zM418 279h549q59 0 103 32.5t44 116.5q0 86 -44 118t-103 32h-549v-299zM418 856 h508q61 0 105 33t44 117q0 86 -44 117.5t-105 31.5h-508v-299z" />
<glyph unicode="C" d="M39 717q0 199 49 336t133 221t196.5 122t239.5 38h537v-279h-498q-70 0 -131 -20.5t-107 -70.5t-73 -135t-27 -212t27 -211t73 -135.5t107.5 -71.5t130.5 -20h498v-279h-537q-127 0 -239.5 38t-196.5 123t-133 221t-49 335z" />
<glyph unicode="D" horiz-adv-x="1454" d="M100 0v1434h697q127 0 238.5 -38t195.5 -122t133 -221.5t49 -335.5q0 -199 -49 -335t-133 -221t-195.5 -123t-238.5 -38h-697zM418 279h338q70 0 132 20t108 71.5t73 135.5t27 211t-27 212t-73 135t-108.5 70.5t-131.5 20.5h-338v-876z" />
<glyph unicode="E" horiz-adv-x="1294" d="M39 717q0 199 49 336t133 221t196.5 122t239.5 38h537v-279h-498q-59 0 -113.5 -14.5t-98.5 -49t-74.5 -92t-42.5 -143.5h827v-278h-827q12 -86 42.5 -143.5t74.5 -92.5t98.5 -49t113.5 -14h498v-279h-537q-127 0 -239.5 38t-196.5 123t-133 221t-49 335z" />
<glyph unicode="F" horiz-adv-x="1294" d="M80 0v758q0 188 48 317t132 209t196.5 115t239.5 35h539v-279h-498q-61 0 -117.5 -15.5t-100.5 -50t-73.5 -92t-42.5 -141.5h832v-278h-838v-578h-317z" />
<glyph unicode="G" horiz-adv-x="1454" d="M39 717q0 199 49 336t133 221t196.5 122t239.5 38h697v-279h-658q-70 0 -131 -20.5t-107 -70.5t-73 -135t-27 -212t27 -211t73 -135.5t107.5 -71.5t130.5 -20h340v299h-280v278h598v-856h-697q-127 0 -239.5 38t-196.5 123t-133 221t-49 335z" />
<glyph unicode="H" horiz-adv-x="1433" d="M100 0v1434h318v-578h598v578h317v-1434h-317v578h-598v-578h-318z" />
<glyph unicode="I" horiz-adv-x="518" d="M100 0v1434h318v-1434h-318z" />
<glyph unicode="J" horiz-adv-x="1015" d="M20 0v279h259q70 0 131 14t107 49t72.5 92.5t26.5 143.5v856h320v-856q0 -164 -52.5 -274.5t-142.5 -178.5t-208.5 -96.5t-253.5 -28.5h-259z" />
<glyph unicode="K" horiz-adv-x="1314" d="M100 0v1434h318v-598l526 598h414l-637 -717l637 -717h-414l-526 602v-602h-318z" />
<glyph unicode="L" horiz-adv-x="1134" d="M80 578v856h317v-856q0 -86 27 -143.5t73 -92.5t107.5 -49t132.5 -14h377v-279h-377q-135 0 -253.5 28.5t-209 96.5t-142.5 178.5t-52 274.5z" />
<glyph unicode="M" horiz-adv-x="1789" d="M100 0v1434h437l358 -996q43 119 88 245t92 254t92 254t88 243h435v-1434h-312v889l-321 -889h-326l-313 889v-889h-318z" />
<glyph unicode="N" horiz-adv-x="1433" d="M100 0v1434h389l527 -955v955h317v-1434h-389l-526 956v-956h-318z" />
<glyph unicode="O" horiz-adv-x="1472" d="M39 717q0 207 54 350t148.5 231t222.5 127t273 39q141 0 267 -39t221.5 -127t152 -231t56.5 -350t-56.5 -349.5t-152 -230.5t-221 -127t-267.5 -39q-145 0 -273 39t-222.5 127t-148.5 230.5t-54 349.5zM358 717q0 -135 30 -225.5t81 -144.5t120.5 -75.5t147.5 -21.5 t146.5 21.5t120 75.5t81 144.5t29.5 225.5t-29.5 226t-81 144.5t-120 76t-146.5 22.5t-147.5 -22.5t-120.5 -76t-81 -144.5t-30 -226z" />
<glyph unicode="P" horiz-adv-x="1454" d="M100 0v1434h826q100 0 188 -25t154.5 -82t105.5 -148.5t39 -222.5q0 -143 -39 -239t-105.5 -153.5t-154.5 -81t-188 -23.5h-508v-459h-318zM418 737h508q35 0 65.5 10.5t54 36t37 67.5t13.5 105q0 109 -50.5 154t-119.5 45h-508v-418z" />
<glyph unicode="Q" horiz-adv-x="1472" d="M39 717q0 207 54 350t148.5 231t222.5 127t273 39q141 0 267 -39t221.5 -127t152 -231t56.5 -350q0 -178 -41 -307t-114 -218.5t-171 -139.5t-213 -68v-263h-317v263q-117 18 -215.5 67t-171 138.5t-112.5 219.5t-40 308zM358 717q0 -100 15.5 -175t45.5 -128.5t69.5 -87 t89.5 -52.5v144h317v-142q98 39 158.5 140.5t60.5 300.5q0 135 -29.5 226t-81 144.5t-120 76t-146.5 22.5t-147.5 -22.5t-120.5 -76t-81 -144.5t-30 -226z" />
<glyph unicode="R" horiz-adv-x="1482" d="M100 0v1434h846q96 0 181 -22.5t148.5 -75t100.5 -135.5t37 -206q0 -96 -24.5 -170.5t-65.5 -128t-97.5 -88.5t-117.5 -53l319 -555h-370l-295 539h-344v-539h-318zM418 817h528q61 0 105.5 38t44.5 140q0 90 -44 125t-106 35h-528v-338z" />
<glyph unicode="S" horiz-adv-x="1413" d="M70 1006q0 123 31.5 204.5t90 132t141.5 71t185 20.5h787v-279h-748q-70 0 -119 -32.5t-49 -116.5t49 -117t119 -33h338q102 0 185 -21.5t141.5 -72.5t90 -133t31.5 -201q0 -123 -31.5 -205t-90 -131t-141.5 -70.5t-185 -21.5h-786v279h747q72 0 121 32.5t49 116.5 t-50 117t-120 33h-338q-102 0 -185 22.5t-141.5 72.5t-90 132t-31.5 201z" />
<glyph unicode="T" horiz-adv-x="1257" d="M-29 1155v279h1315v-279h-498v-1155h-319v1155h-498z" />
<glyph unicode="U" horiz-adv-x="1472" d="M80 598v836h317v-836q0 -100 27 -166.5t73 -106.5t107.5 -57.5t132.5 -17.5q70 0 131.5 17.5t107.5 57.5t72.5 106.5t26.5 166.5v836h320v-836q0 -178 -52.5 -298t-142.5 -193.5t-209 -104.5t-254 -31q-137 0 -257 31t-209 104.5t-140 193.5t-51 298z" />
<glyph unicode="V" horiz-adv-x="1464" d="M-70 1434h353l448 -1059l451 1059h352l-639 -1434h-326z" />
<glyph unicode="W" horiz-adv-x="1998" d="M-45 1434h338l295 -922l252 922h319l250 -922l297 922h338l-479 -1434h-326l-240 874q-59 -215 -120.5 -438t-118.5 -436h-326z" />
<glyph unicode="X" horiz-adv-x="1314" d="M-37 0l508 717l-508 717h385l309 -449l310 449h385l-510 -717q123 -174 255 -359.5t255 -357.5h-385l-310 446l-309 -446h-385z" />
<glyph unicode="Y" horiz-adv-x="1314" d="M-57 1434h387l327 -521q78 129 163 260.5t163 260.5h389l-555 -830v-604h-319v604z" />
<glyph unicode="Z" horiz-adv-x="1374" d="M70 0v268l811 887h-811v279h1235v-267l-811 -888h811v-279h-1235z" />
<glyph unicode="[" horiz-adv-x="755" d="M100 -279v1713h557v-220h-278v-1273h278v-220h-557z" />
<glyph unicode="\" horiz-adv-x="915" d="M-49 1513h221l795 -1792h-222z" />
<glyph unicode="]" horiz-adv-x="755" d="M100 -59h279v1273h-279v220h557v-1713h-557v220z" />
<glyph unicode="^" d="M94 545l432 889h224l432 -889l-215 -105l-330 713l-328 -713z" />
<glyph unicode="_" horiz-adv-x="995" d="M-20 -160h1036v-159h-1036v159z" />
<glyph unicode="`" horiz-adv-x="671" d="M92 1544l119 160l369 -305l-82 -111z" />
<glyph unicode="a" horiz-adv-x="1253" d="M39 393q0 113 29.5 187.5t80 119.5t119 64.5t146.5 19.5h463q-8 104 -85 145.5t-184 41.5h-489v264h522q109 0 206 -24.5t170 -80t116 -144.5t43 -220v-766h-762q-78 0 -146.5 20.5t-119 66.5t-80 121.5t-29.5 184.5zM338 393q0 -72 38 -99.5t91 -27.5h410v256h-410 q-53 0 -91 -28.5t-38 -100.5z" />
<glyph unicode="b" d="M100 0v1632h297v-397h303q111 0 208.5 -32t170 -104.5t114.5 -190t42 -290.5q0 -172 -42 -289.5t-114.5 -191.5t-170 -105.5t-208.5 -31.5h-600zM397 266h271q55 0 104 16.5t85 56.5t57.5 108.5t21.5 170.5t-21.5 170t-57.5 109t-85 57.5t-104 16.5h-271v-705z" />
<glyph unicode="c" horiz-adv-x="1116" d="M39 618q0 172 42 290t114.5 190.5t170 104.5t207.5 32h465v-264h-430q-55 0 -104 -16.5t-86 -57.5t-58.5 -108.5t-21.5 -170.5q0 -102 21.5 -170.5t58.5 -108.5t86 -56.5t104 -16.5h430v-266h-465q-111 0 -208 31.5t-169.5 105.5t-114.5 191.5t-42 289.5z" />
<glyph unicode="d" d="M39 618q0 172 42 290t114.5 190.5t170 104.5t207.5 32h304v397h299v-1632h-603q-111 0 -208 31.5t-169.5 105.5t-114.5 191.5t-42 289.5zM338 618q0 -102 21.5 -170.5t58.5 -108.5t86 -56.5t104 -16.5h269v705h-269q-55 0 -104 -16.5t-86 -57.5t-58.5 -108.5 t-21.5 -170.5z" />
<glyph unicode="e" horiz-adv-x="1136" d="M39 618q0 172 42 290t114.5 190.5t170 104.5t207.5 32h465v-264h-430q-92 0 -161.5 -48.5t-96.5 -170.5h688v-267h-688q12 -63 37 -105t58.5 -67.5t74.5 -36t88 -10.5h430v-266h-465q-111 0 -208 31.5t-169.5 105.5t-114.5 191.5t-42 289.5z" />
<glyph unicode="f" horiz-adv-x="876" d="M39 971v264h201v80q0 88 28.5 149.5t79.5 98t119 53t145 16.5h205v-258h-209q-29 0 -50 -12t-21 -41v-86h280v-264h-280v-971h-297v971h-201z" />
<glyph unicode="g" d="M39 618q0 172 42 290t114.5 190.5t170 104.5t207.5 32h603v-1215q0 -117 -33 -196.5t-89.5 -128.5t-132 -70.5t-161.5 -21.5h-641v264h567q74 0 129 29.5t62 103.5h-304q-111 0 -208 31.5t-169.5 105.5t-114.5 191.5t-42 289.5zM338 618q0 -102 21.5 -170.5t58.5 -108.5 t86 -56.5t104 -16.5h269v705h-269q-55 0 -104 -16.5t-86 -57.5t-58.5 -108.5t-21.5 -170.5z" />
<glyph unicode="h" d="M100 0v1632h297v-397h265q111 0 208 -24.5t168.5 -80t113.5 -145.5t42 -221v-764h-299v764q0 57 -21.5 97t-57.5 64.5t-85 35t-104 10.5h-230v-971h-297z" />
<glyph unicode="i" horiz-adv-x="497" d="M100 0v1235h297v-1235h-297zM100 1335v297h297v-297h-297z" />
<glyph unicode="j" horiz-adv-x="497" d="M-178 -133h129q61 0 105 24.5t44 90.5v1253h297v-1215q0 -117 -32.5 -196.5t-88 -128.5t-131 -70.5t-161.5 -21.5h-162v264zM100 1335v297h297v-297h-297z" />
<glyph unicode="k" horiz-adv-x="1224" d="M100 0v1632h318v-899l438 502h412l-549 -617l549 -618h-412l-438 502v-502h-318z" />
<glyph unicode="l" horiz-adv-x="497" d="M100 0v1632h297v-1632h-297z" />
<glyph unicode="m" horiz-adv-x="1753" d="M100 0v1235h1119q94 0 177 -24.5t144.5 -80t97 -145.5t35.5 -221v-764h-299v764q0 57 -15.5 97t-41 64.5t-60 35t-73.5 10.5h-148v-971h-299v971h-340v-971h-297z" />
<glyph unicode="n" d="M100 0v1235h562q111 0 208 -24.5t168.5 -80t113.5 -145.5t42 -221v-764h-299v764q0 57 -21.5 97t-57.5 64.5t-85 35t-104 10.5h-230v-971h-297z" />
<glyph unicode="o" horiz-adv-x="1284" d="M39 618q0 178 47 301t129 200t191.5 112t234.5 35q123 0 232.5 -35t192.5 -112t131 -199.5t48 -301.5q0 -178 -48 -301.5t-131 -200.5t-192.5 -111t-232.5 -34q-125 0 -234.5 34t-191.5 111t-129 200.5t-47 301.5zM338 618q0 -111 23.5 -183.5t64.5 -117.5t96.5 -63 t118.5 -18t118.5 18t96.5 63t64.5 118t23.5 183q0 111 -23.5 183.5t-64.5 117t-96 62.5t-119 18q-63 0 -118.5 -18t-96.5 -62.5t-64.5 -117t-23.5 -183.5z" />
<glyph unicode="p" d="M100 -397v1632h600q111 0 208.5 -32t170 -104.5t114.5 -190t42 -290.5q0 -172 -42 -289.5t-114.5 -191.5t-170 -105.5t-208.5 -31.5h-303v-397h-297zM397 266h271q55 0 104 16.5t85 56.5t57.5 108.5t21.5 170.5t-21.5 170t-57.5 109t-85 57.5t-104 16.5h-271v-705z" />
<glyph unicode="q" d="M39 618q0 172 42 290t114.5 190.5t170 104.5t207.5 32h603v-1632h-299v397h-304q-111 0 -208 31.5t-169.5 105.5t-114.5 191.5t-42 289.5zM338 618q0 -102 21.5 -170.5t58.5 -108.5t86 -56.5t104 -16.5h269v705h-269q-55 0 -104 -16.5t-86 -57.5t-58.5 -108.5 t-21.5 -170.5z" />
<glyph unicode="r" horiz-adv-x="1075" d="M80 0v764q0 131 42 221t114.5 145.5t169 80t206.5 24.5h404v-518h-299v254h-70q-55 0 -104 -10.5t-85 -35t-57.5 -64.5t-21.5 -97v-764h-299z" />
<glyph unicode="s" horiz-adv-x="1241" d="M70 862q0 106 27.5 178t77.5 115t122 61.5t162 18.5h678v-264h-645q-59 0 -101.5 -24.5t-42.5 -84.5q0 -63 42 -86.5t102 -23.5h290q88 0 161 -18.5t123 -63.5t77.5 -118t27.5 -179t-27.5 -178t-77.5 -115t-123 -61.5t-161 -18.5h-678v266h646q57 0 99 23.5t42 83.5 q0 63 -42 87.5t-99 24.5h-291q-90 0 -162 18.5t-122 62.5t-77.5 116t-27.5 180z" />
<glyph unicode="t" horiz-adv-x="876" d="M39 977v264h201v293h297v-293h280v-264h-280v-598q0 -66 45 -89.5t104 -23.5h131v-266h-164q-86 0 -161.5 22.5t-131 71.5t-88 129t-32.5 195v559h-201z" />
<glyph unicode="u" d="M80 473v762h299v-762q0 -59 21.5 -98t57.5 -63.5t85 -35t104 -10.5h230v969h299v-1235h-564q-111 0 -207 24.5t-168.5 81t-114.5 146.5t-42 221z" />
<glyph unicode="v" horiz-adv-x="1247" d="M-70 1235h332l361 -846l360 846h334l-553 -1235h-283z" />
<glyph unicode="w" horiz-adv-x="1708" d="M-45 1235h315l238 -733l199 733h297l198 -729l236 729h317l-414 -1235h-294l-191 709q-47 -174 -96 -354.5t-96 -354.5h-295z" />
<glyph unicode="x" horiz-adv-x="1142" d="M-37 0l440 618l-440 617h350l256 -375l258 375h355l-445 -617l445 -618h-355l-258 375q-63 -94 -128.5 -187.5t-127.5 -187.5h-350z" />
<glyph unicode="y" d="M80 473v762h299v-762q0 -117 59.5 -162t169.5 -45h269v969h299v-1215q0 -117 -33 -196.5t-89.5 -128.5t-132 -70.5t-161.5 -21.5h-600v264h526q74 0 129 29.5t62 103.5h-304q-111 0 -201.5 24.5t-155 81t-100.5 146.5t-36 221z" />
<glyph unicode="z" horiz-adv-x="1202" d="M70 0v254l667 717h-667v264h1063v-252l-668 -717h668v-266h-1063z" />
<glyph unicode="{" horiz-adv-x="876" d="M100 508v219h129q29 0 49.5 20.5t20.5 73.5v295q0 88 22.5 148.5t62.5 98.5t94 54.5t116 16.5h182v-220h-129q-29 0 -49 -19t-20 -73v-225q0 -109 -36 -176.5t-93 -102.5q57 -35 93 -102t36 -176v-305q0 -53 20 -73.5t49 -20.5h129v-220h-182q-61 0 -115.5 16.5 t-94.5 54.5t-62.5 98.5t-22.5 150.5v373q0 53 -20.5 73.5t-49.5 20.5h-129z" />
<glyph unicode="|" horiz-adv-x="677" d="M219 -397v1931h240v-1931h-240z" />
<glyph unicode="}" horiz-adv-x="876" d="M100 -59h129q29 0 49.5 20.5t20.5 73.5v305q0 109 35 176.5t92 101.5q-59 35 -93 102.5t-34 176.5v225q0 53 -20.5 72.5t-49.5 19.5h-129v220h183q61 0 114.5 -16.5t93 -54.5t63.5 -98.5t24 -148.5v-295q0 -53 20 -73.5t49 -20.5h129v-219h-129q-29 0 -49 -20.5 t-20 -73.5v-373q0 -90 -24 -150.5t-63.5 -98.5t-93 -54.5t-114.5 -16.5h-183v220z" />
<glyph unicode="~" horiz-adv-x="1380" d="M94 659l84 39h-2q55 29 131 58.5t170 29.5q74 0 126 -16t98.5 -35.5t91.5 -36t106 -16.5q72 0 144.5 34t140.5 70l104 -229q-57 -12 -101 -31.5t-87 -38t-91 -32t-110 -13.5q-74 0 -127 17.5t-98 38t-90 38t-107 17.5q-27 0 -65.5 -12.5t-79.5 -30.5t-78 -39.5t-59 -38.5 z" />
<glyph unicode="&#xa1;" horiz-adv-x="518" d="M100 -299l39 1096h240l39 -1096h-318zM100 915v320h318v-320h-318z" />
<glyph unicode="&#xa2;" horiz-adv-x="1355" d="M100 817q0 172 42 290t114 190.5t169 104.5t208 32h53v198h201v-198h368v-265h-368v-704h368v-266h-368v-199h-201v199h-53q-111 0 -208 31.5t-169 105.5t-114 191.5t-42 289.5zM397 817q0 -102 21.5 -169.5t58.5 -108.5t86 -57.5t105 -16.5h18v704h-18q-55 0 -104.5 -16 t-86.5 -57t-58.5 -108.5t-21.5 -170.5z" />
<glyph unicode="&#xa3;" horiz-adv-x="1394" d="M100 0v279h238v319h-199v240h199v198q0 111 37 187.5t101.5 123t152.5 67t188 20.5h359v-279h-320q-84 0 -141.5 -25.5t-57.5 -93.5v-198h359v-240h-359v-319h637v-279h-1194z" />
<glyph unicode="&#xa5;" horiz-adv-x="1472" d="M23 1434h387l327 -521q78 129 163 260.5t163 260.5h389l-506 -756h348v-180h-399v-99h399v-180h-399v-219h-317v219h-400v180h400v99h-400v180h352z" />
<glyph unicode="&#xa6;" horiz-adv-x="677" d="M219 -279v818h240v-818h-240zM219 717v717h240v-717h-240z" />
<glyph unicode="&#xa7;" horiz-adv-x="1300" d="M100 578q0 92 33 148t92 91q-59 35 -92 93.5t-33 150.5q0 106 27 178t78 115t121.5 61.5t160.5 18.5h680v-265h-645q-59 0 -101 -24.5t-42 -83.5q0 -61 42 -85t101 -24h291q88 0 159.5 -18.5t122 -63.5t78 -117.5t27.5 -179.5q0 -90 -31.5 -146t-93.5 -91 q61 -35 93 -94.5t32 -149.5q0 -106 -27.5 -177t-78 -114t-122 -61.5t-159.5 -18.5h-680v265h645q59 0 100.5 23.5t41.5 82.5q0 63 -41 86t-101 23h-291q-90 0 -160.5 18.5t-121.5 62.5t-78 115.5t-27 180.5zM379 578q0 -63 42 -87t101 -24h256q59 0 100.5 23.5t41.5 82.5 q0 63 -41 88t-101 25h-256q-59 0 -101 -24.5t-42 -83.5z" />
<glyph unicode="&#xa8;" horiz-adv-x="796" d="M100 1315v258h258v-258h-258zM438 1315v258h258v-258h-258z" />
<glyph unicode="&#xa9;" horiz-adv-x="1691" d="M100 717q0 156 58.5 292t160 237.5t236.5 159.5t291 58t292 -58t237.5 -159.5t159.5 -238t58 -291.5q0 -156 -58 -291t-159.5 -236.5t-238 -160t-291.5 -58.5q-156 0 -291 58.5t-236.5 160t-160 236.5t-58.5 291zM279 717q0 -117 45 -220.5t121.5 -180t180 -121.5 t220.5 -45t220 45t180 121.5t122 180t45 220.5t-45 220t-122 180t-180 122t-220 45t-220.5 -45t-180 -122t-121.5 -180t-45 -220zM428 717q0 121 29.5 205t81 136t121 74.5t147.5 22.5h330v-182h-308q-41 0 -75.5 -12.5t-61 -41t-42 -78.5t-15.5 -124t15.5 -123t42 -78 t61 -41t75.5 -12h308v-184h-330q-78 0 -147.5 23.5t-121 75.5t-81 135t-29.5 204z" />
<glyph unicode="&#xaa;" horiz-adv-x="894" d="M100 920q0 70 18.5 116.5t49.5 74.5t73 40t91 12h268q-8 53 -51 75t-100 22h-302v174h320q68 0 128 -15.5t104 -49.5t71 -90t27 -136v-465h-465q-49 0 -91 12t-73 41t-49.5 75t-18.5 114zM295 920q0 -37 20.5 -52.5t49.5 -15.5h237v137h-237q-29 0 -49.5 -14t-20.5 -55z " />
<glyph unicode="&#xab;" horiz-adv-x="1185" d="M96 618l334 582l207 -121l-285 -461q72 -113 143.5 -231.5t141.5 -230.5l-207 -119zM553 618l336 582l207 -121l-285 -461l285 -462l-207 -119z" />
<glyph unicode="&#xac;" horiz-adv-x="1193" d="M100 498v239h996v-538h-240v299h-756z" />
<glyph unicode="&#xad;" horiz-adv-x="1036" d="M100 487v261h836v-261h-836z" />
<glyph unicode="&#xae;" horiz-adv-x="1691" d="M100 717q0 156 58.5 292t160 237.5t236.5 159.5t291 58t292 -58t237.5 -159.5t159.5 -238t58 -291.5q0 -156 -58 -291t-159.5 -236.5t-238 -160t-291.5 -58.5q-156 0 -291 58.5t-236.5 160t-160 236.5t-58.5 291zM279 717q0 -125 50 -233.5t136 -186.5v840 q-86 -78 -136 -186.5t-50 -233.5zM485 1155h496q59 0 111.5 -14.5t92.5 -46t62.5 -82.5t22.5 -127q0 -123 -51 -185.5t-129 -85.5q39 -70 81.5 -144.5t83.5 -143.5q74 78 116 177t42 214q0 117 -45 220t-122 180t-180 122t-220 45q-104 0 -195.5 -35t-165.5 -94zM487 279 q74 -61 165 -95t194 -34q102 0 193 33.5t165 95.5h-162l-178 323h-190v-323h-187zM674 784h307q35 0 58.5 21.5t23.5 79.5q0 49 -23.5 68.5t-58.5 19.5h-307v-189z" />
<glyph unicode="&#xaf;" horiz-adv-x="835" d="M100 1315v160h637v-160h-637z" />
<glyph unicode="&#xb0;" horiz-adv-x="776" d="M100 1176q0 59 22.5 111t61.5 92t91.5 62.5t113.5 22.5q57 0 110.5 -22.5t92.5 -62.5t62.5 -92t23.5 -111q0 -61 -23.5 -113.5t-62.5 -91.5t-92.5 -61.5t-110.5 -22.5q-61 0 -113.5 22.5t-91.5 61.5t-61.5 91t-22.5 114zM258 1176q0 -53 39 -91t92 -38t91 37.5t38 91.5 q0 53 -38 91t-91 38t-92 -38t-39 -91z" />
<glyph unicode="&#xb1;" horiz-adv-x="1193" d="M100 0v240h996v-240h-996zM100 817v240h377v377h240v-377h379v-240h-379v-379h-240v379h-377z" />
<glyph unicode="&#xb2;" horiz-adv-x="907" d="M70 557v266q0 147 74.5 205.5t201.5 58.5h191q41 0 67.5 17.5t26.5 64.5t-26.5 64.5t-67.5 17.5h-443v183h467q63 0 114.5 -12.5t87.5 -43t55.5 -82t19.5 -127.5q0 -147 -74 -205.5t-203 -58.5h-190q-39 0 -67 -17.5t-28 -64.5v-82h549v-184h-755z" />
<glyph unicode="&#xb3;" horiz-adv-x="874" d="M80 557v184h457q35 0 57 17.5t22 64.5t-22.5 64.5t-56.5 17.5h-338v182h313q35 0 58.5 17.5t23.5 64.5t-23.5 64.5t-58.5 17.5h-432v183h432q59 0 111.5 -12.5t92.5 -41t62.5 -76t22.5 -116.5q0 -66 -18.5 -110t-55.5 -74q45 -29 70.5 -78t25.5 -121q0 -70 -22.5 -117 t-62.5 -76.5t-92 -42t-109 -12.5h-457z" />
<glyph unicode="&#xb4;" horiz-adv-x="671" d="M92 1399l369 305l119 -160l-406 -256z" />
<glyph unicode="&#xb6;" horiz-adv-x="1325" d="M100 1165q0 76 29 127t79 83t116.5 45.5t142.5 13.5h758v-199h-219v-1514h-240v1514h-80v-1514h-237v1156q-74 2 -137.5 16t-110.5 48t-74 89t-27 135z" />
<glyph unicode="&#xb7;" horiz-adv-x="518" d="M100 459v317h318v-317h-318z" />
<glyph unicode="&#xb8;" horiz-adv-x="714" d="M100 -207q57 -16 109.5 -32.5t116.5 -16.5q12 0 29.5 3t31.5 10t24.5 18.5t10.5 27.5q0 29 -19.5 38t-48.5 9q-39 0 -81 -11t-60 -15l47 264h160l-21 -127q66 0 108 -15.5t65.5 -40t32.5 -54t9 -60.5q0 -53 -24.5 -91t-64.5 -62.5t-91 -36t-104 -11.5q-59 0 -118.5 15.5 t-111.5 44.5v143z" />
<glyph unicode="&#xb9;" horiz-adv-x="405" d="M100 565v836l207 74v-910h-207z" />
<glyph unicode="&#xba;" horiz-adv-x="937" d="M100 1057q0 109 29 183.5t78 121.5t115.5 68.5t144.5 21.5q76 0 143.5 -21.5t117.5 -68.5t80 -122t30 -183q0 -109 -30 -184.5t-80 -123t-117.5 -69t-143.5 -21.5q-78 0 -144.5 21.5t-115.5 69t-78 123t-29 184.5zM295 1057q0 -127 50 -174t122 -47q37 0 68.5 10t55 35.5 t37 68.5t13.5 107q0 63 -13.5 105t-37 67.5t-55 36t-68.5 10.5q-72 0 -122 -47t-50 -172z" />
<glyph unicode="&#xbb;" horiz-adv-x="1185" d="M92 156l285 462q-72 113 -144.5 231t-140.5 230l207 121l334 -582l-334 -581zM549 156l285 462l-285 461l207 121l336 -582l-336 -581z" />
<glyph unicode="&#xbc;" horiz-adv-x="1779" d="M100 565v836l207 74v-910h-207zM225 0l701 1434h223l-700 -1434h-224zM817 168v194l504 515h240v-527h120v-182h-120v-168h-207v168h-537zM1075 350h279v293z" />
<glyph unicode="&#xbd;" horiz-adv-x="1832" d="M100 565v836l207 74v-910h-207zM225 0l701 1434h223l-700 -1434h-224zM967 0v266q0 147 73.5 205.5t202.5 58.5h191q39 0 66.5 17.5t27.5 64.5t-27.5 64.5t-66.5 17.5h-445v183h469q63 0 114.5 -12.5t87.5 -43t55.5 -82t19.5 -127.5q0 -74 -19.5 -125t-55.5 -82.5 t-87 -45t-115 -13.5h-192q-39 0 -65.5 -16.5t-26.5 -63.5v-82h548v-184h-755z" />
<glyph unicode="&#xbe;" horiz-adv-x="2197" d="M100 557v184h455q35 0 58.5 17.5t23.5 64.5t-23.5 64.5t-58.5 17.5h-336v182h313q35 0 57.5 17.5t22.5 64.5t-22.5 64.5t-57.5 17.5h-432v183h432q57 0 110.5 -12.5t92.5 -41t62.5 -76t23.5 -116.5q0 -66 -18.5 -110t-54.5 -74q45 -29 70.5 -78t25.5 -121 q0 -70 -22.5 -117t-62.5 -76.5t-92.5 -42t-111.5 -12.5h-455zM643 0l700 1434h224l-701 -1434h-223zM1235 168v194l504 515h239v-527h121v-182h-121v-168h-206v168h-537zM1493 350h279v293z" />
<glyph unicode="&#xbf;" horiz-adv-x="1333" d="M100 129q0 119 32 201t90.5 133t140 72.5t184.5 21.5h260q27 0 51.5 8t40.5 34t26.5 73t10.5 125h276q4 -37 6.5 -68t2.5 -55q0 -135 -37 -214t-96.5 -119t-133 -51t-147.5 -11h-219q-72 0 -121 -33t-49 -117t49 -115.5t121 -31.5h606v-281h-647q-102 0 -184 21.5 t-140.5 70.5t-90.5 131t-32 205zM915 915v320h320v-320h-320z" />
<glyph unicode="&#xc0;" horiz-adv-x="1464" d="M-70 0l639 1434h326l639 -1434h-354l-119 279h-660l-116 -279h-355zM487 1749l119 160l369 -305l-82 -111zM520 557h424q-55 131 -105.5 248t-107.5 252z" />
<glyph unicode="&#xc1;" horiz-adv-x="1464" d="M-70 0l639 1434h326l639 -1434h-354l-119 279h-660l-116 -279h-355zM487 1604l369 305l119 -160l-406 -256zM520 557h424q-55 131 -105.5 248t-107.5 252z" />
<glyph unicode="&#xc2;" horiz-adv-x="1464" d="M-70 0l639 1434h326l639 -1434h-354l-119 279h-660l-116 -279h-355zM368 1606l365 303l362 -291l-80 -125l-282 178q-68 -43 -142.5 -89t-140.5 -89zM520 557h424q-55 131 -105.5 248t-107.5 252z" />
<glyph unicode="&#xc3;" horiz-adv-x="1464" d="M-70 0l639 1434h326l639 -1434h-354l-119 279h-660l-116 -279h-355zM342 1663l58 31h-2q37 20 86 42.5t112 22.5q47 0 81 -12t63.5 -25.5t58.5 -25.5t65 -12q43 0 81 18.5t75 40.5l33 18l69 -178q-41 -12 -70.5 -26.5t-57 -27.5t-58.5 -21.5t-72 -8.5q-45 0 -77.5 12.5 t-61 27t-59.5 26.5t-70 12q-16 0 -40.5 -9t-51.5 -23.5t-51.5 -30t-38.5 -29.5zM520 557h424q-55 131 -105.5 248t-107.5 252z" />
<glyph unicode="&#xc4;" horiz-adv-x="1464" d="M-70 0l639 1434h326l639 -1434h-354l-119 279h-660l-116 -279h-355zM434 1520v258h258v-258h-258zM520 557h424q-55 131 -105.5 248t-107.5 252zM772 1520v258h258v-258h-258z" />
<glyph unicode="&#xc5;" horiz-adv-x="1464" d="M-70 0l639 1434h326l639 -1434h-354l-119 279h-660l-116 -279h-355zM483 1739q0 51 19.5 96t53.5 79t79 53.5t96 19.5t96 -19.5t79 -53.5t54.5 -79t20.5 -96t-20.5 -96t-54.5 -79t-79 -54.5t-96 -20.5t-96 20.5t-79 54.5t-53.5 79t-19.5 96zM520 557h424 q-55 131 -105.5 248t-107.5 252zM641 1739q0 -37 26.5 -63.5t63.5 -26.5t63.5 26.5t26.5 63.5t-26.5 63.5t-63.5 26.5t-63.5 -26.5t-26.5 -63.5z" />
<glyph unicode="&#xc6;" horiz-adv-x="2170" d="M80 0v758q0 188 48 317t132 209t196.5 115t239.5 35h539v-86q66 47 139.5 66.5t159.5 19.5h537v-279h-498q-59 0 -113.5 -14.5t-98.5 -49t-75 -92t-43 -143.5h828v-278h-828q12 -86 43 -143.5t75 -92.5t98 -49t114 -14h498v-279h-537q-86 0 -160 19.5t-139 66.5v-86h-320 v379h-518v-379h-317zM397 657h518v498h-178q-72 0 -133 -19.5t-107 -65.5t-73 -122t-27 -190v-101z" />
<glyph unicode="&#xc7;" d="M39 717q0 199 49 336t133 221t196.5 122t239.5 38h537v-279h-498q-70 0 -131 -20.5t-107 -70.5t-73 -135t-27 -212t27 -211t73 -135.5t107.5 -71.5t130.5 -20h498v-279h-449l-6 -39q66 0 108 -15.5t65.5 -40t32.5 -54t9 -60.5q0 -53 -24.5 -91t-64.5 -62.5t-91 -36 t-104 -11.5q-59 0 -118.5 15.5t-111.5 44.5v143q57 -16 109.5 -32.5t116.5 -16.5q12 0 29.5 3t31.5 10t24.5 18.5t10.5 27.5q0 29 -19.5 38t-48.5 9q-39 0 -81 -11t-60 -15l31 178q-115 10 -214.5 54t-173 129t-115.5 216t-42 316z" />
<glyph unicode="&#xc8;" horiz-adv-x="1294" d="M39 717q0 199 49 336t133 221t196.5 122t239.5 38h537v-279h-498q-59 0 -113.5 -14.5t-98.5 -49t-74.5 -92t-42.5 -143.5h827v-278h-827q12 -86 42.5 -143.5t74.5 -92.5t98.5 -49t113.5 -14h498v-279h-537q-127 0 -239.5 38t-196.5 123t-133 221t-49 335zM403 1749 l119 160l369 -305l-82 -111z" />
<glyph unicode="&#xc9;" horiz-adv-x="1294" d="M39 717q0 199 49 336t133 221t196.5 122t239.5 38h537v-279h-498q-59 0 -113.5 -14.5t-98.5 -49t-74.5 -92t-42.5 -143.5h827v-278h-827q12 -86 42.5 -143.5t74.5 -92.5t98.5 -49t113.5 -14h498v-279h-537q-127 0 -239.5 38t-196.5 123t-133 221t-49 335zM403 1604 l369 305l119 -160l-406 -256z" />
<glyph unicode="&#xca;" horiz-adv-x="1294" d="M39 717q0 199 49 336t133 221t196.5 122t239.5 38h537v-279h-498q-59 0 -113.5 -14.5t-98.5 -49t-74.5 -92t-42.5 -143.5h827v-278h-827q12 -86 42.5 -143.5t74.5 -92.5t98.5 -49t113.5 -14h498v-279h-537q-127 0 -239.5 38t-196.5 123t-133 221t-49 335zM282 1606 l365 303l362 -291l-80 -125l-282 178q-68 -43 -142.5 -89t-140.5 -89z" />
<glyph unicode="&#xcb;" horiz-adv-x="1294" d="M39 717q0 199 49 336t133 221t196.5 122t239.5 38h537v-279h-498q-59 0 -113.5 -14.5t-98.5 -49t-74.5 -92t-42.5 -143.5h827v-278h-827q12 -86 42.5 -143.5t74.5 -92.5t98.5 -49t113.5 -14h498v-279h-537q-127 0 -239.5 38t-196.5 123t-133 221t-49 335zM348 1520v258 h258v-258h-258zM686 1520v258h258v-258h-258z" />
<glyph unicode="&#xcc;" horiz-adv-x="518" d="M20 1749l119 160l369 -305l-82 -111zM100 0v1434h318v-1434h-318z" />
<glyph unicode="&#xcd;" horiz-adv-x="518" d="M20 1604l369 305l119 -160l-406 -256zM100 0v1434h318v-1434h-318z" />
<glyph unicode="&#xce;" horiz-adv-x="518" d="M-101 1606l365 303l362 -291l-80 -125l-282 178q-68 -43 -142.5 -89t-140.5 -89zM100 0v1434h318v-1434h-318z" />
<glyph unicode="&#xcf;" horiz-adv-x="518" d="M-35 1520v258h258v-258h-258zM100 0v1434h318v-1434h-318zM303 1520v258h258v-258h-258z" />
<glyph unicode="&#xd0;" horiz-adv-x="1492" d="M20 598v240h119v596h697q127 0 239.5 -38t196.5 -122t133 -221.5t49 -335.5q0 -199 -49 -335t-133 -221t-196.5 -123t-239.5 -38h-697v598h-119zM459 279h338q70 0 131 20t107 71.5t73 135.5t27 211t-27 212t-73 135t-107.5 70.5t-130.5 20.5h-338v-317h397v-240h-397 v-319z" />
<glyph unicode="&#xd1;" horiz-adv-x="1433" d="M100 0v1434h389l527 -955v955h317v-1434h-389l-526 956v-956h-318zM325 1663l58 31h-2q37 20 86 42.5t112 22.5q47 0 81 -12t63.5 -25.5t58.5 -25.5t65 -12q43 0 81 18.5t75 40.5l33 18l69 -178q-41 -12 -70.5 -26.5t-57 -27.5t-58.5 -21.5t-72 -8.5q-45 0 -77.5 12.5 t-61 27t-59.5 26.5t-70 12q-16 0 -40.5 -9t-51.5 -23.5t-51.5 -30t-38.5 -29.5z" />
<glyph unicode="&#xd2;" horiz-adv-x="1472" d="M39 717q0 207 54 350t148.5 231t222.5 127t273 39q141 0 267 -39t221.5 -127t152 -231t56.5 -350t-56.5 -349.5t-152 -230.5t-221 -127t-267.5 -39q-145 0 -273 39t-222.5 127t-148.5 230.5t-54 349.5zM358 717q0 -135 30 -225.5t81 -144.5t120.5 -75.5t147.5 -21.5 t146.5 21.5t120 75.5t81 144.5t29.5 225.5t-29.5 226t-81 144.5t-120 76t-146.5 22.5t-147.5 -22.5t-120.5 -76t-81 -144.5t-30 -226zM491 1749l119 160l369 -305l-82 -111z" />
<glyph unicode="&#xd3;" horiz-adv-x="1472" d="M39 717q0 207 54 350t148.5 231t222.5 127t273 39q141 0 267 -39t221.5 -127t152 -231t56.5 -350t-56.5 -349.5t-152 -230.5t-221 -127t-267.5 -39q-145 0 -273 39t-222.5 127t-148.5 230.5t-54 349.5zM358 717q0 -135 30 -225.5t81 -144.5t120.5 -75.5t147.5 -21.5 t146.5 21.5t120 75.5t81 144.5t29.5 225.5t-29.5 226t-81 144.5t-120 76t-146.5 22.5t-147.5 -22.5t-120.5 -76t-81 -144.5t-30 -226zM491 1604l369 305l119 -160l-406 -256z" />
<glyph unicode="&#xd4;" horiz-adv-x="1472" d="M39 717q0 207 54 350t148.5 231t222.5 127t273 39q141 0 267 -39t221.5 -127t152 -231t56.5 -350t-56.5 -349.5t-152 -230.5t-221 -127t-267.5 -39q-145 0 -273 39t-222.5 127t-148.5 230.5t-54 349.5zM358 717q0 -135 30 -225.5t81 -144.5t120.5 -75.5t147.5 -21.5 t146.5 21.5t120 75.5t81 144.5t29.5 225.5t-29.5 226t-81 144.5t-120 76t-146.5 22.5t-147.5 -22.5t-120.5 -76t-81 -144.5t-30 -226zM373 1606l365 303l362 -291l-80 -125l-282 178q-68 -43 -142.5 -89t-140.5 -89z" />
<glyph unicode="&#xd5;" horiz-adv-x="1472" d="M39 717q0 207 54 350t148.5 231t222.5 127t273 39q141 0 267 -39t221.5 -127t152 -231t56.5 -350t-56.5 -349.5t-152 -230.5t-221 -127t-267.5 -39q-145 0 -273 39t-222.5 127t-148.5 230.5t-54 349.5zM346 1663l58 31h-2q37 20 86 42.5t112 22.5q47 0 81 -12t63.5 -25.5 t58.5 -25.5t65 -12q43 0 81 18.5t75 40.5l33 18l69 -178q-41 -12 -70.5 -26.5t-57 -27.5t-58.5 -21.5t-72 -8.5q-45 0 -77.5 12.5t-61 27t-59.5 26.5t-70 12q-16 0 -40.5 -9t-51.5 -23.5t-51.5 -30t-38.5 -29.5zM358 717q0 -135 30 -225.5t81 -144.5t120.5 -75.5 t147.5 -21.5t146.5 21.5t120 75.5t81 144.5t29.5 225.5t-29.5 226t-81 144.5t-120 76t-146.5 22.5t-147.5 -22.5t-120.5 -76t-81 -144.5t-30 -226z" />
<glyph unicode="&#xd6;" horiz-adv-x="1472" d="M39 717q0 207 54 350t148.5 231t222.5 127t273 39q141 0 267 -39t221.5 -127t152 -231t56.5 -350t-56.5 -349.5t-152 -230.5t-221 -127t-267.5 -39q-145 0 -273 39t-222.5 127t-148.5 230.5t-54 349.5zM358 717q0 -135 30 -225.5t81 -144.5t120.5 -75.5t147.5 -21.5 t146.5 21.5t120 75.5t81 144.5t29.5 225.5t-29.5 226t-81 144.5t-120 76t-146.5 22.5t-147.5 -22.5t-120.5 -76t-81 -144.5t-30 -226zM438 1520v258h258v-258h-258zM776 1520v258h258v-258h-258z" />
<glyph unicode="&#xd7;" horiz-adv-x="1054" d="M92 350l289 268l-289 267l168 170l268 -291q63 70 133 144.5t134 146.5l170 -170l-291 -267q70 -66 144.5 -135t146.5 -133l-170 -168l-267 289l-268 -289z" />
<glyph unicode="&#xd8;" horiz-adv-x="1472" d="M39 717q0 207 54 350t148.5 231t222.5 127t273 39q76 0 150 -10t139 -37l57 96h228l-113 -192q111 -90 173.5 -235.5t62.5 -368.5q0 -207 -56.5 -349.5t-152 -230.5t-221 -127t-267.5 -39q-160 0 -291 43q-14 -23 -29.5 -48t-25.5 -46h-227l108 193q-109 86 -171 232.5 t-62 371.5zM358 717q0 -113 20.5 -194t55.5 -136l447 776q-68 23 -144 23q-78 0 -147.5 -22.5t-120.5 -76t-81 -144.5t-30 -226zM592 270q31 -10 67.5 -15t77.5 -5q78 0 146.5 21.5t120 75.5t81 144.5t29.5 225.5q0 111 -20.5 192.5t-55.5 137.5z" />
<glyph unicode="&#xd9;" horiz-adv-x="1472" d="M80 598v836h317v-836q0 -100 27 -166.5t73 -106.5t107.5 -57.5t132.5 -17.5q70 0 131.5 17.5t107.5 57.5t72.5 106.5t26.5 166.5v836h320v-836q0 -178 -52.5 -298t-142.5 -193.5t-209 -104.5t-254 -31q-137 0 -257 31t-209 104.5t-140 193.5t-51 298zM491 1749l119 160 l369 -305l-82 -111z" />
<glyph unicode="&#xda;" horiz-adv-x="1472" d="M80 598v836h317v-836q0 -100 27 -166.5t73 -106.5t107.5 -57.5t132.5 -17.5q70 0 131.5 17.5t107.5 57.5t72.5 106.5t26.5 166.5v836h320v-836q0 -178 -52.5 -298t-142.5 -193.5t-209 -104.5t-254 -31q-137 0 -257 31t-209 104.5t-140 193.5t-51 298zM491 1604l369 305 l119 -160l-406 -256z" />
<glyph unicode="&#xdb;" horiz-adv-x="1472" d="M80 598v836h317v-836q0 -100 27 -166.5t73 -106.5t107.5 -57.5t132.5 -17.5q70 0 131.5 17.5t107.5 57.5t72.5 106.5t26.5 166.5v836h320v-836q0 -178 -52.5 -298t-142.5 -193.5t-209 -104.5t-254 -31q-137 0 -257 31t-209 104.5t-140 193.5t-51 298zM373 1606l365 303 l362 -291l-80 -125l-282 178q-68 -43 -142.5 -89t-140.5 -89z" />
<glyph unicode="&#xdc;" horiz-adv-x="1472" d="M80 598v836h317v-836q0 -100 27 -166.5t73 -106.5t107.5 -57.5t132.5 -17.5q70 0 131.5 17.5t107.5 57.5t72.5 106.5t26.5 166.5v836h320v-836q0 -178 -52.5 -298t-142.5 -193.5t-209 -104.5t-254 -31q-137 0 -257 31t-209 104.5t-140 193.5t-51 298zM438 1520v258h258 v-258h-258zM776 1520v258h258v-258h-258z" />
<glyph unicode="&#xdd;" horiz-adv-x="1314" d="M-57 1434h387l327 -521q78 129 163 260.5t163 260.5h389l-555 -830v-604h-319v604zM414 1604l369 305l119 -160l-406 -256z" />
<glyph unicode="&#xde;" horiz-adv-x="1454" d="M100 0v1434h318v-238h508q100 0 188 -25.5t154.5 -82t105.5 -148.5t39 -223q0 -137 -39 -229.5t-105.5 -147.5t-154.5 -77.5t-188 -22.5h-508v-240h-318zM418 518h508q35 0 65.5 9.5t54 33t37 61t13.5 95.5q0 109 -50.5 153.5t-119.5 44.5h-508v-397z" />
<glyph unicode="&#xdf;" horiz-adv-x="1284" d="M100 0v915q0 137 46.5 238.5t120 168.5t166.5 99.5t190 32.5q80 0 157.5 -24.5t139 -72.5t98.5 -118t37 -162q0 -80 -41 -170t-113 -164q78 -20 136.5 -58t98.5 -88t59 -108.5t19 -117.5q0 -70 -27.5 -136.5t-82.5 -119t-140 -84t-198 -31.5h-188v279h188 q57 0 104.5 25.5t47.5 90.5q0 47 -27 75t-66 45t-86 28.5t-86 30t-65.5 47t-26.5 77.5q0 51 31 98.5t68.5 92.5t68.5 87t31 83q0 57 -41 88t-88 31q-37 0 -75 -16.5t-68.5 -49.5t-50 -82t-19.5 -115v-915h-318z" />
<glyph unicode="&#xe0;" horiz-adv-x="1253" d="M39 393q0 113 29.5 187.5t80 119.5t119 64.5t146.5 19.5h463q-8 104 -85 145.5t-184 41.5h-489v264h522q109 0 206 -24.5t170 -80t116 -144.5t43 -220v-766h-762q-78 0 -146.5 20.5t-119 66.5t-80 121.5t-29.5 184.5zM338 393q0 -72 38 -99.5t91 -27.5h410v256h-410 q-53 0 -91 -28.5t-38 -100.5zM383 1544l119 160l369 -305l-82 -111z" />
<glyph unicode="&#xe1;" horiz-adv-x="1253" d="M39 393q0 113 29.5 187.5t80 119.5t119 64.5t146.5 19.5h463q-8 104 -85 145.5t-184 41.5h-489v264h522q109 0 206 -24.5t170 -80t116 -144.5t43 -220v-766h-762q-78 0 -146.5 20.5t-119 66.5t-80 121.5t-29.5 184.5zM338 393q0 -72 38 -99.5t91 -27.5h410v256h-410 q-53 0 -91 -28.5t-38 -100.5zM383 1399l369 305l119 -160l-406 -256z" />
<glyph unicode="&#xe2;" horiz-adv-x="1253" d="M39 393q0 113 29.5 187.5t80 119.5t119 64.5t146.5 19.5h463q-8 104 -85 145.5t-184 41.5h-489v264h522q109 0 206 -24.5t170 -80t116 -144.5t43 -220v-766h-762q-78 0 -146.5 20.5t-119 66.5t-80 121.5t-29.5 184.5zM262 1401l365 303l362 -291l-80 -125l-282 178 q-68 -43 -142.5 -89t-140.5 -89zM338 393q0 -72 38 -99.5t91 -27.5h410v256h-410q-53 0 -91 -28.5t-38 -100.5z" />
<glyph unicode="&#xe3;" horiz-adv-x="1253" d="M39 393q0 113 29.5 187.5t80 119.5t119 64.5t146.5 19.5h463q-8 104 -85 145.5t-184 41.5h-489v264h522q109 0 206 -24.5t170 -80t116 -144.5t43 -220v-766h-762q-78 0 -146.5 20.5t-119 66.5t-80 121.5t-29.5 184.5zM235 1458l58 31h-2q37 20 86 42.5t112 22.5 q47 0 81 -12t63.5 -25.5t58.5 -25.5t65 -12q43 0 81 18.5t75 40.5l33 18l69 -178q-41 -12 -70.5 -26.5t-57 -27.5t-58.5 -21.5t-72 -8.5q-45 0 -77.5 12.5t-61 27t-59.5 26.5t-70 12q-16 0 -40.5 -9t-51.5 -23.5t-51.5 -30t-38.5 -29.5zM338 393q0 -72 38 -99.5t91 -27.5 h410v256h-410q-53 0 -91 -28.5t-38 -100.5z" />
<glyph unicode="&#xe4;" horiz-adv-x="1253" d="M39 393q0 113 29.5 187.5t80 119.5t119 64.5t146.5 19.5h463q-8 104 -85 145.5t-184 41.5h-489v264h522q109 0 206 -24.5t170 -80t116 -144.5t43 -220v-766h-762q-78 0 -146.5 20.5t-119 66.5t-80 121.5t-29.5 184.5zM327 1315v258h258v-258h-258zM338 393 q0 -72 38 -99.5t91 -27.5h410v256h-410q-53 0 -91 -28.5t-38 -100.5zM665 1315v258h258v-258h-258z" />
<glyph unicode="&#xe5;" horiz-adv-x="1253" d="M39 393q0 113 29.5 187.5t80 119.5t119 64.5t146.5 19.5h463q-8 104 -85 145.5t-184 41.5h-489v264h522q109 0 206 -24.5t170 -80t116 -144.5t43 -220v-766h-762q-78 0 -146.5 20.5t-119 66.5t-80 121.5t-29.5 184.5zM338 393q0 -72 38 -99.5t91 -27.5h410v256h-410 q-53 0 -91 -28.5t-38 -100.5zM376 1534q0 51 19.5 96t53.5 79t79 53.5t96 19.5t96 -19.5t79 -53.5t54.5 -79t20.5 -96t-20.5 -96t-54.5 -79t-79 -54.5t-96 -20.5t-96 20.5t-79 54.5t-53.5 79t-19.5 96zM534 1534q0 -37 26.5 -63.5t63.5 -26.5t63.5 26.5t26.5 63.5 t-26.5 63.5t-63.5 26.5t-63.5 -26.5t-26.5 -63.5z" />
<glyph unicode="&#xe6;" horiz-adv-x="1972" d="M39 393q0 113 29.5 187.5t80 119.5t119 64.5t146.5 19.5h463q-8 104 -85 145.5t-184 41.5h-489v264h522q133 0 245.5 -37t186.5 -123q66 86 152 123t184 37h465v-264h-430q-92 0 -162 -48.5t-96 -170.5h688v-267h-688q12 -63 37.5 -105t59.5 -67.5t75 -36t86 -10.5h430 v-266h-465q-66 0 -123 14.5t-110 48.5v-63h-762q-78 0 -146.5 20.5t-119 66.5t-80 121.5t-29.5 184.5zM338 393q0 -72 38 -99.5t91 -27.5h410v256h-410q-53 0 -91 -28.5t-38 -100.5z" />
<glyph unicode="&#xe7;" horiz-adv-x="1116" d="M39 618q0 172 42 290t114.5 190.5t170 104.5t207.5 32h465v-264h-430q-55 0 -104 -16.5t-86 -57.5t-58.5 -108.5t-21.5 -170.5q0 -102 21.5 -170.5t58.5 -108.5t86 -56.5t104 -16.5h430v-266h-370l-6 -39q66 0 107.5 -15.5t65 -40t33 -54t9.5 -60.5q0 -53 -25 -91 t-64.5 -62.5t-91 -36t-104.5 -11.5q-59 0 -118.5 15.5t-111.5 44.5v143q57 -16 109.5 -32.5t116.5 -16.5q12 0 29.5 3t32 10t24.5 18.5t10 27.5q0 29 -19.5 38t-48.5 9q-39 0 -80.5 -11t-60.5 -15l31 178q-98 8 -183 46t-148.5 111.5t-99.5 186.5t-36 272z" />
<glyph unicode="&#xe8;" horiz-adv-x="1136" d="M39 618q0 172 42 290t114.5 190.5t170 104.5t207.5 32h465v-264h-430q-92 0 -161.5 -48.5t-96.5 -170.5h688v-267h-688q12 -63 37 -105t58.5 -67.5t74.5 -36t88 -10.5h430v-266h-465q-111 0 -208 31.5t-169.5 105.5t-114.5 191.5t-42 289.5zM323 1544l119 160l369 -305 l-82 -111z" />
<glyph unicode="&#xe9;" horiz-adv-x="1136" d="M39 618q0 172 42 290t114.5 190.5t170 104.5t207.5 32h465v-264h-430q-92 0 -161.5 -48.5t-96.5 -170.5h688v-267h-688q12 -63 37 -105t58.5 -67.5t74.5 -36t88 -10.5h430v-266h-465q-111 0 -208 31.5t-169.5 105.5t-114.5 191.5t-42 289.5zM323 1399l369 305l119 -160 l-406 -256z" />
<glyph unicode="&#xea;" horiz-adv-x="1136" d="M39 618q0 172 42 290t114.5 190.5t170 104.5t207.5 32h465v-264h-430q-92 0 -161.5 -48.5t-96.5 -170.5h688v-267h-688q12 -63 37 -105t58.5 -67.5t74.5 -36t88 -10.5h430v-266h-465q-111 0 -208 31.5t-169.5 105.5t-114.5 191.5t-42 289.5zM205 1401l365 303l362 -291 l-80 -125l-282 178q-68 -43 -142.5 -89t-140.5 -89z" />
<glyph unicode="&#xeb;" horiz-adv-x="1136" d="M39 618q0 172 42 290t114.5 190.5t170 104.5t207.5 32h465v-264h-430q-92 0 -161.5 -48.5t-96.5 -170.5h688v-267h-688q12 -63 37 -105t58.5 -67.5t74.5 -36t88 -10.5h430v-266h-465q-111 0 -208 31.5t-169.5 105.5t-114.5 191.5t-42 289.5zM270 1315v258h258v-258h-258z M608 1315v258h258v-258h-258z" />
<glyph unicode="&#xec;" horiz-adv-x="497" d="M10 1544l119 160l369 -305l-82 -111zM100 0v1235h297v-1235h-297z" />
<glyph unicode="&#xed;" horiz-adv-x="497" d="M10 1399l369 305l119 -160l-406 -256zM100 0v1235h297v-1235h-297z" />
<glyph unicode="&#xee;" horiz-adv-x="497" d="M-111 1401l365 303l362 -291l-80 -125l-282 178q-68 -43 -142.5 -89t-140.5 -89zM100 0v1235h297v-1235h-297z" />
<glyph unicode="&#xef;" horiz-adv-x="497" d="M-45 1315v258h258v-258h-258zM100 0v1235h297v-1235h-297zM293 1315v258h258v-258h-258z" />
<glyph unicode="&#xf0;" d="M39 618q0 172 42 290t114.5 190.5t170 104.5t207.5 32h304q-6 76 -61.5 104.5t-129.5 28.5h-328v-133h-239v397h641q86 0 161.5 -21.5t132 -70.5t89.5 -129t33 -197v-1214h-603q-111 0 -208 31.5t-169.5 105.5t-114.5 191.5t-42 289.5zM338 618q0 -102 21.5 -170.5 t58.5 -108.5t86 -56.5t104 -16.5h269v705h-269q-55 0 -104 -16.5t-86 -57.5t-58.5 -108.5t-21.5 -170.5z" />
<glyph unicode="&#xf1;" d="M100 0v1235h562q111 0 208 -24.5t168.5 -80t113.5 -145.5t42 -221v-764h-299v764q0 57 -21.5 97t-57.5 64.5t-85 35t-104 10.5h-230v-971h-297zM246 1458l58 31h-2q37 20 86 42.5t112 22.5q47 0 81 -12t63.5 -25.5t58.5 -25.5t65 -12q43 0 81 18.5t75 40.5l33 18l69 -178 q-41 -12 -70.5 -26.5t-57 -27.5t-58.5 -21.5t-72 -8.5q-45 0 -77.5 12.5t-61 27t-59.5 26.5t-70 12q-16 0 -40.5 -9t-51.5 -23.5t-51.5 -30t-38.5 -29.5z" />
<glyph unicode="&#xf2;" horiz-adv-x="1284" d="M39 618q0 178 47 301t129 200t191.5 112t234.5 35q123 0 232.5 -35t192.5 -112t131 -199.5t48 -301.5q0 -178 -48 -301.5t-131 -200.5t-192.5 -111t-232.5 -34q-125 0 -234.5 34t-191.5 111t-129 200.5t-47 301.5zM338 618q0 -111 23.5 -183.5t64.5 -117.5t96.5 -63 t118.5 -18t118.5 18t96.5 63t64.5 118t23.5 183q0 111 -23.5 183.5t-64.5 117t-96 62.5t-119 18q-63 0 -118.5 -18t-96.5 -62.5t-64.5 -117t-23.5 -183.5zM397 1544l119 160l369 -305l-82 -111z" />
<glyph unicode="&#xf3;" horiz-adv-x="1284" d="M39 618q0 178 47 301t129 200t191.5 112t234.5 35q123 0 232.5 -35t192.5 -112t131 -199.5t48 -301.5q0 -178 -48 -301.5t-131 -200.5t-192.5 -111t-232.5 -34q-125 0 -234.5 34t-191.5 111t-129 200.5t-47 301.5zM338 618q0 -111 23.5 -183.5t64.5 -117.5t96.5 -63 t118.5 -18t118.5 18t96.5 63t64.5 118t23.5 183q0 111 -23.5 183.5t-64.5 117t-96 62.5t-119 18q-63 0 -118.5 -18t-96.5 -62.5t-64.5 -117t-23.5 -183.5zM397 1399l369 305l119 -160l-406 -256z" />
<glyph unicode="&#xf4;" horiz-adv-x="1284" d="M39 618q0 178 47 301t129 200t191.5 112t234.5 35q123 0 232.5 -35t192.5 -112t131 -199.5t48 -301.5q0 -178 -48 -301.5t-131 -200.5t-192.5 -111t-232.5 -34q-125 0 -234.5 34t-191.5 111t-129 200.5t-47 301.5zM278 1401l365 303l362 -291l-80 -125l-282 178 q-68 -43 -142.5 -89t-140.5 -89zM338 618q0 -111 23.5 -183.5t64.5 -117.5t96.5 -63t118.5 -18t118.5 18t96.5 63t64.5 118t23.5 183q0 111 -23.5 183.5t-64.5 117t-96 62.5t-119 18q-63 0 -118.5 -18t-96.5 -62.5t-64.5 -117t-23.5 -183.5z" />
<glyph unicode="&#xf5;" horiz-adv-x="1284" d="M39 618q0 178 47 301t129 200t191.5 112t234.5 35q123 0 232.5 -35t192.5 -112t131 -199.5t48 -301.5q0 -178 -48 -301.5t-131 -200.5t-192.5 -111t-232.5 -34q-125 0 -234.5 34t-191.5 111t-129 200.5t-47 301.5zM252 1458l58 31h-2q37 20 86 42.5t112 22.5q47 0 81 -12 t63.5 -25.5t58.5 -25.5t65 -12q43 0 81 18.5t75 40.5l33 18l69 -178q-41 -12 -70.5 -26.5t-57 -27.5t-58.5 -21.5t-72 -8.5q-45 0 -77.5 12.5t-61 27t-59.5 26.5t-70 12q-16 0 -40.5 -9t-51.5 -23.5t-51.5 -30t-38.5 -29.5zM338 618q0 -111 23.5 -183.5t64.5 -117.5 t96.5 -63t118.5 -18t118.5 18t96.5 63t64.5 118t23.5 183q0 111 -23.5 183.5t-64.5 117t-96 62.5t-119 18q-63 0 -118.5 -18t-96.5 -62.5t-64.5 -117t-23.5 -183.5z" />
<glyph unicode="&#xf6;" horiz-adv-x="1284" d="M39 618q0 178 47 301t129 200t191.5 112t234.5 35q123 0 232.5 -35t192.5 -112t131 -199.5t48 -301.5q0 -178 -48 -301.5t-131 -200.5t-192.5 -111t-232.5 -34q-125 0 -234.5 34t-191.5 111t-129 200.5t-47 301.5zM338 618q0 -111 23.5 -183.5t64.5 -117.5t96.5 -63 t118.5 -18t118.5 18t96.5 63t64.5 118t23.5 183q0 111 -23.5 183.5t-64.5 117t-96 62.5t-119 18q-63 0 -118.5 -18t-96.5 -62.5t-64.5 -117t-23.5 -183.5zM344 1315v258h258v-258h-258zM682 1315v258h258v-258h-258z" />
<glyph unicode="&#xf7;" horiz-adv-x="1193" d="M100 498v239h996v-239h-996zM467 80v260h260v-260h-260zM467 897v258h260v-258h-260z" />
<glyph unicode="&#xf8;" horiz-adv-x="1284" d="M39 618q0 178 47 301t129 200t191.5 112t234.5 35q59 0 116.5 -8.5t110.5 -26.5q10 20 22.5 43.5t22.5 40.5h205l-88 -166q96 -74 155.5 -205t59.5 -326q0 -178 -48 -301.5t-131 -200.5t-192.5 -111t-232.5 -34q-121 0 -227 31l-43 -82h-205l86 164q-96 76 -154.5 206 t-58.5 328zM338 618q0 -88 16 -153.5t43 -112.5q88 162 170 317.5t170 319.5q-23 6 -45 8t-51 2q-63 0 -118.5 -18t-96.5 -62.5t-64.5 -117t-23.5 -183.5zM543 246q23 -6 47 -8t51 -2q63 0 118.5 18t96.5 63t64.5 118t23.5 183q0 84 -16.5 151t-40.5 112z" />
<glyph unicode="&#xf9;" d="M80 473v762h299v-762q0 -59 21.5 -98t57.5 -63.5t85 -35t104 -10.5h230v969h299v-1235h-564q-111 0 -207 24.5t-168.5 81t-114.5 146.5t-42 221zM393 1544l119 160l369 -305l-82 -111z" />
<glyph unicode="&#xfa;" d="M80 473v762h299v-762q0 -59 21.5 -98t57.5 -63.5t85 -35t104 -10.5h230v969h299v-1235h-564q-111 0 -207 24.5t-168.5 81t-114.5 146.5t-42 221zM393 1399l369 305l119 -160l-406 -256z" />
<glyph unicode="&#xfb;" d="M80 473v762h299v-762q0 -59 21.5 -98t57.5 -63.5t85 -35t104 -10.5h230v969h299v-1235h-564q-111 0 -207 24.5t-168.5 81t-114.5 146.5t-42 221zM272 1401l365 303l362 -291l-80 -125l-282 178q-68 -43 -142.5 -89t-140.5 -89z" />
<glyph unicode="&#xfc;" d="M80 473v762h299v-762q0 -59 21.5 -98t57.5 -63.5t85 -35t104 -10.5h230v969h299v-1235h-564q-111 0 -207 24.5t-168.5 81t-114.5 146.5t-42 221zM338 1315v258h258v-258h-258zM676 1315v258h258v-258h-258z" />
<glyph unicode="&#xfd;" d="M80 473v762h299v-762q0 -117 59.5 -162t169.5 -45h269v969h299v-1215q0 -117 -33 -196.5t-89.5 -128.5t-132 -70.5t-161.5 -21.5h-600v264h526q74 0 129 29.5t62 103.5h-304q-111 0 -201.5 24.5t-155 81t-100.5 146.5t-36 221zM393 1399l369 305l119 -160l-406 -256z" />
<glyph unicode="&#xfe;" d="M100 -299v1833h297v-299h303q111 0 208.5 -33t170 -106.5t114.5 -191.5t42 -286q0 -176 -42 -294.5t-114.5 -190.5t-170 -102.5t-208.5 -30.5h-303v-299h-297zM397 266h271q55 0 104 16.5t85 56.5t57.5 108.5t21.5 170.5q0 94 -21.5 162t-57.5 110t-85 61.5t-104 19.5 h-271v-705z" />
<glyph unicode="&#xff;" d="M80 473v762h299v-762q0 -117 59.5 -162t169.5 -45h269v969h299v-1215q0 -117 -33 -196.5t-89.5 -128.5t-132 -70.5t-161.5 -21.5h-600v264h526q74 0 129 29.5t62 103.5h-304q-111 0 -201.5 24.5t-155 81t-100.5 146.5t-36 221zM338 1315v258h258v-258h-258zM676 1315v258 h258v-258h-258z" />
<glyph unicode="&#x152;" horiz-adv-x="2369" d="M39 717q0 207 54 350t148.5 231t222.5 127t273 39q160 0 301.5 -65.5t233.5 -192.5q80 123 198.5 175.5t262.5 52.5h536v-279h-497q-59 0 -113.5 -14.5t-98.5 -49t-75 -92t-43 -143.5h827v-278h-827q12 -86 43 -143.5t75 -92.5t98 -49t114 -14h497v-279h-536 q-141 0 -261 52t-200 173q-92 -127 -233.5 -190.5t-301.5 -63.5q-145 0 -273 39t-222.5 127t-148.5 230.5t-54 349.5zM358 717q0 -135 30 -225.5t81 -144.5t120.5 -75.5t147.5 -21.5t146.5 21.5t120 75.5t81 144.5t29.5 225.5t-29.5 226t-81 144.5t-120 76t-146.5 22.5 t-147.5 -22.5t-120.5 -76t-81 -144.5t-30 -226z" />
<glyph unicode="&#x153;" horiz-adv-x="2041" d="M39 618q0 178 47 301t129 200t191.5 112t234.5 35q137 0 255 -50.5t198 -160.5q66 94 167 137t216 43h465v-264h-431q-92 0 -161.5 -48.5t-96.5 -170.5h689v-267h-689q12 -63 38 -105t59.5 -67.5t74.5 -36t86 -10.5h431v-266h-465q-115 0 -216.5 43t-166.5 139 q-80 -104 -199 -157.5t-254 -53.5q-125 0 -234.5 34t-191.5 111t-129 200.5t-47 301.5zM338 618q0 -111 23.5 -183.5t64.5 -117.5t96.5 -63t118.5 -18t118.5 18t96.5 63t64.5 118t23.5 183q0 111 -23.5 183.5t-64.5 117t-96 62.5t-119 18q-63 0 -118.5 -18t-96.5 -62.5 t-64.5 -117t-23.5 -183.5z" />
<glyph unicode="&#x178;" horiz-adv-x="1314" d="M-57 1434h387l327 -521q78 129 163 260.5t163 260.5h389l-555 -830v-604h-319v604zM358 1520v258h258v-258h-258zM696 1520v258h258v-258h-258z" />
<glyph unicode="&#x2c6;" horiz-adv-x="911" d="M92 1401l365 303l362 -291l-80 -125l-282 178q-68 -43 -142.5 -89t-140.5 -89z" />
<glyph unicode="&#x2dc;" horiz-adv-x="966" d="M94 1458l58 31h-2q37 20 86 42.5t112 22.5q47 0 81 -12t63.5 -25.5t58.5 -25.5t65 -12q43 0 81 18.5t75 40.5l33 18l69 -178q-41 -12 -70.5 -26.5t-57 -27.5t-58.5 -21.5t-72 -8.5q-45 0 -77.5 12.5t-61 27t-59.5 26.5t-70 12q-16 0 -40.5 -9t-51.5 -23.5t-51.5 -30 t-38.5 -29.5z" />
<glyph unicode="&#x2000;" horiz-adv-x="993" />
<glyph unicode="&#x2001;" horiz-adv-x="1987" />
<glyph unicode="&#x2002;" horiz-adv-x="993" />
<glyph unicode="&#x2003;" horiz-adv-x="1987" />
<glyph unicode="&#x2004;" horiz-adv-x="662" />
<glyph unicode="&#x2005;" horiz-adv-x="496" />
<glyph unicode="&#x2006;" horiz-adv-x="331" />
<glyph unicode="&#x2007;" horiz-adv-x="331" />
<glyph unicode="&#x2008;" horiz-adv-x="248" />
<glyph unicode="&#x2009;" horiz-adv-x="397" />
<glyph unicode="&#x200a;" horiz-adv-x="110" />
<glyph unicode="&#x2010;" horiz-adv-x="1036" d="M100 487v261h836v-261h-836z" />
<glyph unicode="&#x2011;" horiz-adv-x="1036" d="M100 487v261h836v-261h-836z" />
<glyph unicode="&#x2012;" horiz-adv-x="1036" d="M100 487v261h836v-261h-836z" />
<glyph unicode="&#x2013;" horiz-adv-x="835" d="M100 487v261h637v-261h-637z" />
<glyph unicode="&#x2014;" horiz-adv-x="1830" d="M100 487v261h1633v-261h-1633z" />
<glyph unicode="&#x2018;" horiz-adv-x="518" d="M98 797l64 737h194l64 -737h-322z" />
<glyph unicode="&#x2019;" horiz-adv-x="518" d="M98 1534h322l-64 -737h-194z" />
<glyph unicode="&#x201a;" horiz-adv-x="518" d="M98 539h322l-64 -738h-194z" />
<glyph unicode="&#x201c;" horiz-adv-x="876" d="M98 797l64 737h194l64 -737h-322zM457 797l63 737h195l63 -737h-321z" />
<glyph unicode="&#x201d;" horiz-adv-x="876" d="M98 1534h322l-64 -737h-194zM457 1534h321l-63 -737h-195z" />
<glyph unicode="&#x201e;" horiz-adv-x="876" d="M98 539h322l-64 -738h-194zM457 539h321l-63 -738h-195z" />
<glyph unicode="&#x2022;" horiz-adv-x="995" d="M100 717q0 82 31 154.5t85 127t126 86t156 31.5q82 0 153.5 -31.5t125.5 -86t86 -127t32 -154.5q0 -84 -32 -156t-86 -126t-125.5 -85t-153.5 -31q-84 0 -156 31t-126 85t-85 126t-31 156z" />
<glyph unicode="&#x2026;" horiz-adv-x="1472" d="M100 0v319h318v-319h-318zM578 0v319h317v-319h-317zM1055 0v319h319v-319h-319z" />
<glyph unicode="&#x202f;" horiz-adv-x="397" />
<glyph unicode="&#x2039;" horiz-adv-x="729" d="M96 618l334 582l207 -121l-285 -461q72 -113 143.5 -231.5t141.5 -230.5l-207 -119z" />
<glyph unicode="&#x203a;" horiz-adv-x="729" d="M92 156l285 462q-72 113 -144.5 231t-140.5 230l207 121l334 -582l-334 -581z" />
<glyph unicode="&#x205f;" horiz-adv-x="496" />
<glyph unicode="&#x20ac;" horiz-adv-x="1513" d="M31 487l75 181h152v49q0 12 -1 18t-1 15q0 4 1 8t1 10h-227l75 178h175q27 131 83 224.5t135 151.5t175 85t203 27h536v-279h-498q-100 0 -182 -47t-125 -162h637l-78 -178h-589v-51q0 -10 1 -17.5t1 -17.5v-14h565l-78 -181h-459q43 -121 124 -164.5t183 -43.5h498v-279 h-536q-106 0 -202.5 26.5t-175.5 85t-135.5 150.5t-82.5 225h-250z" />
<glyph unicode="&#x2122;" horiz-adv-x="2000" d="M100 1251v183h803v-183h-297v-694h-209v694h-297zM932 557v877h272l211 -582q53 145 107.5 292.5t105.5 289.5h273v-877h-203v496l-178 -496h-207l-174 490v-490h-207z" />
<glyph unicode="&#x25fc;" horiz-adv-x="1239" d="M0 0v1239h1239v-1239h-1239z" />
<glyph unicode="&#xfb01;" horiz-adv-x="1374" d="M39 971v264h201v80q0 88 28.5 149.5t79.5 98t119 53t145 16.5h662v-258h-666q-29 0 -50 -12t-21 -41v-86h280v-264h-280v-971h-297v971h-201zM975 0v1235h299v-1235h-299z" />
<glyph unicode="&#xfb02;" horiz-adv-x="1374" d="M39 971v264h201v80q0 88 28.5 149.5t79.5 98t119 53t145 16.5h662v-1632h-299v1374h-367q-29 0 -50 -12t-21 -41v-86h280v-264h-280v-971h-297v971h-201z" />
</font>
</defs>
</svg>
