<?xml version="1.0" standalone="no"?>
<!DOCTYPE svg PUBLIC "-//W3C//DTD SVG 1.1//EN" "http://www.w3.org/Graphics/SVG/1.1/DTD/svg11.dtd" >
<svg xmlns="http://www.w3.org/2000/svg">
<metadata></metadata>
<defs>
<font id="sf_fourchebold_italic" horiz-adv-x="1179" >
<font-face units-per-em="2048" ascent="1638" descent="-410" />
<missing-glyph horiz-adv-x="894" />
<glyph horiz-adv-x="0" />
<glyph unicode="&#xd;" horiz-adv-x="894" />
<glyph unicode=" "  horiz-adv-x="894" />
<glyph unicode="&#x09;" horiz-adv-x="894" />
<glyph unicode="&#xa0;" horiz-adv-x="894" />
<glyph unicode="!" horiz-adv-x="499" d="M98 0l43 319h303l-43 -319h-303zM195 438l118 1096h303l-190 -1096h-231z" />
<glyph unicode="&#x22;" horiz-adv-x="821" d="M264 797l47 737h305l-159 -737h-193zM588 797l47 737h305l-162 -737h-190z" />
<glyph unicode="#" horiz-adv-x="1251" d="M176 557l29 201h237l47 198h-204l28 199h224q16 68 33.5 139.5t33.5 139.5h195l-66 -279h164l64 279h196l-63 -279h221l-29 -199h-244q-10 -47 -21 -99t-22 -99h207l-28 -201h-228l-65 -278h-195l68 278h-168q-14 -68 -30.5 -139.5t-31.5 -138.5h-196l63 278h-219z M639 758h164l47 198h-166z" />
<glyph unicode="$" horiz-adv-x="1304" d="M106 0l39 279h449l41 299h-72q-82 0 -148.5 16t-112.5 55t-71.5 99.5t-25.5 150.5q0 25 2 51.5t6 55.5q16 123 57 204.5t101.5 132t139.5 71t173 20.5h72l28 198h197l-29 -198h447l-39 -279h-447l-43 -299h70q166 0 263 -71.5t97 -249.5q0 -25 -2 -51.5t-6 -55.5 q-16 -123 -57 -205t-101.5 -131t-139.5 -70.5t-173 -21.5h-69l-29 -199h-197l29 199h-449zM514 971q0 -63 35 -89t88 -26h37l43 299h-37q-59 0 -106.5 -31.5t-57.5 -117.5q-2 -10 -2 -18.5v-16.5zM791 279h34q33 0 63 9t53.5 30.5t37.5 57.5t14 87q0 66 -36.5 90.5 t-90.5 24.5h-35z" />
<glyph unicode="%" horiz-adv-x="1816" d="M238 956q0 137 34.5 232.5t92 155t131 85t149.5 25.5q61 0 115.5 -16.5t94.5 -52t63.5 -94t23.5 -140.5q0 -45 -6 -94q-16 -111 -54 -187.5t-92.5 -124t-121 -69t-136.5 -21.5q-63 0 -117.5 16.5t-93 52.5t-61 93t-22.5 139zM446 989q0 -82 33 -112.5t82 -30.5 q57 0 104.5 45t63.5 166q4 18 4 33.5v29.5q0 82 -33.5 113t-81.5 31q-31 0 -61.5 -13.5t-55 -44t-40 -84t-15.5 -133.5zM514 0l772 1434h217l-772 -1434h-217zM1075 279q0 139 35 235t92.5 154.5t131 84t149.5 25.5q61 0 115.5 -16.5t94.5 -52t63.5 -94t23.5 -142.5 q0 -43 -6 -92q-16 -111 -55.5 -186.5t-93.5 -123.5t-119.5 -68.5t-135.5 -20.5q-63 0 -116.5 15t-93.5 51t-62.5 92.5t-22.5 138.5zM1282 313q0 -82 33 -111.5t82 -29.5q29 0 56.5 10.5t50 34t39 63t24.5 101.5q4 18 4 34.5v30.5q0 82 -33 112t-82 30q-31 0 -61.5 -12.5 t-55 -43t-41 -84t-16.5 -135.5z" />
<glyph unicode="&#x26;" horiz-adv-x="1288" d="M127 303q0 158 60.5 263.5t152.5 162.5h-2q-39 41 -61.5 96.5t-22.5 132.5q0 135 42 226.5t110.5 146.5t157.5 79t181 24h465l-39 -279h-464q-29 0 -55.5 -9t-47 -31.5t-34 -58.5t-13.5 -91q0 -59 29.5 -84t77.5 -25h215l-39 -278h-252q-29 0 -55.5 -11.5t-48 -36 t-35 -65.5t-13.5 -100q0 -66 31 -90.5t76 -24.5h82q59 0 114.5 20.5t102.5 71.5t83 135t56 213l23 166h305l-119 -856h-305l14 109q-86 -78 -185.5 -108t-209.5 -30q-80 0 -148.5 16.5t-119 55.5t-80 102.5t-29.5 157.5z" />
<glyph unicode="'" horiz-adv-x="499" d="M264 797l47 737h305l-159 -737h-193z" />
<glyph unicode="(" horiz-adv-x="712" d="M96 -39q0 37 6 80l152 1075q12 88 42 148.5t73 98.5t95 54.5t107 16.5h246l-31 -220h-196q-23 0 -42.5 -19t-25.5 -73l-153 -1087q-2 -10 -2 -18.5v-16.5q0 -35 12 -47t31 -12h196l-31 -220h-245q-49 0 -92 12.5t-74 41t-49.5 74.5t-18.5 112z" />
<glyph unicode=")" horiz-adv-x="712" d="M57 -279l31 220h197q23 0 41 20.5t26 73.5l154 1087q0 8 1 15.5t1 13.5q0 37 -12.5 50t-30.5 13h-197l31 220h244q100 0 167.5 -54.5t67.5 -185.5q0 -35 -6 -78l-151 -1075q-12 -90 -42 -150.5t-73 -98.5t-95.5 -54.5t-109.5 -16.5h-244z" />
<glyph unicode="*" horiz-adv-x="1083" d="M201 788l299 148l-103 59q-39 23 -80 45.5t-75 42.5l143 213l219 -192l21 330h235l-72 -330q66 47 136.5 97t136.5 95l82 -213l-299 -147q66 -35 130 -74t128 -74l-141 -213l-218 185l-22 -322h-236l68 322q-63 -45 -136 -93.5t-134 -91.5z" />
<glyph unicode="+" horiz-adv-x="1107" d="M168 498l33 239h340l53 379h231l-53 -379h340l-33 -239h-340l-53 -377h-231l53 377h-340z" />
<glyph unicode="," horiz-adv-x="499" d="M113 -279l26 598h305l-139 -598h-192z" />
<glyph unicode="-" horiz-adv-x="964" d="M166 487l37 261h768l-37 -261h-768z" />
<glyph unicode="." horiz-adv-x="499" d="M98 0l43 319h303l-43 -319h-303z" />
<glyph unicode="/" horiz-adv-x="856" d="M-76 -279l967 1792h215l-967 -1792h-215z" />
<glyph unicode="0" horiz-adv-x="1472" d="M240 518q0 45 3 95.5t11 103.5q29 207 94.5 350t157.5 231t203.5 127t232.5 39q104 0 193.5 -29.5t156 -95t104.5 -170t38 -256.5q0 -45 -3.5 -94t-11.5 -102q-29 -207 -95.5 -349.5t-157.5 -230.5t-202.5 -127t-230.5 -39q-104 0 -195.5 30t-157 94.5t-103 168.5 t-37.5 254zM545 555q0 -88 17.5 -146.5t48 -94t71.5 -50t90 -14.5q57 0 110.5 21.5t98.5 75.5t80 144.5t53 225.5q12 92 12 162q0 88 -17 146t-47 94t-71 51.5t-88 15.5q-59 0 -112.5 -22.5t-99.5 -76t-81 -144.5t-53 -226q-12 -92 -12 -162z" />
<glyph unicode="1" horiz-adv-x="720" d="M209 0l190 1366l322 121l-209 -1487h-303z" />
<glyph unicode="2" horiz-adv-x="1509" d="M182 0l60 428q16 119 57 201t101.5 133t139 72.5t173.5 21.5h284q33 0 64 9t54.5 31t37.5 56.5t14 85.5q0 66 -35.5 91.5t-91.5 25.5h-661l39 279h698q82 0 148.5 -16.5t113.5 -53.5t73 -98.5t26 -151.5q0 -25 -2 -52.5t-7 -55.5q-16 -119 -57 -201t-102.5 -132 t-140 -72.5t-173.5 -22.5h-286q-61 0 -107.5 -32t-56.5 -118l-21 -149h824l-39 -279h-1127z" />
<glyph unicode="3" horiz-adv-x="1462" d="M190 0l39 279h680q27 0 53.5 9t47 31.5t34 58.5t13.5 89q0 61 -30 86t-77 25h-501l38 278h467q27 0 53.5 9t48 32t35 57.5t13.5 87.5q0 63 -30 88t-77 25h-645l39 279h645q80 0 149.5 -16.5t120 -53.5t80 -97.5t29.5 -148.5q0 -139 -49 -236.5t-121 -152.5h-2 q55 -41 87 -101.5t32 -152.5q0 -135 -43 -226t-111.5 -146.5t-156.5 -79t-181 -23.5h-680z" />
<glyph unicode="4" horiz-adv-x="1562" d="M176 279l43 305l866 850h363l-123 -877h178l-39 -278h-178l-39 -279h-305l39 279h-805zM573 557h447l72 516q-49 -51 -105.5 -104.5t-103.5 -100.5z" />
<glyph unicode="5" horiz-adv-x="1509" d="M182 0l39 279h697q33 0 63.5 11t55 35.5t39 65.5t14.5 101q0 70 -36 98t-89 28h-697l115 816h1073l-39 -279h-770l-37 -258h430q82 0 148.5 -17.5t113 -57.5t71 -103.5t24.5 -155.5q0 -27 -2 -55.5t-6 -58.5q-18 -129 -59.5 -215.5t-102 -138.5t-139 -73.5t-173.5 -21.5 h-733z" />
<glyph unicode="6" horiz-adv-x="1515" d="M240 526q0 43 3 90.5t11 100.5q27 199 91.5 336t153.5 222t197.5 122t225.5 37h557l-39 -279h-522q-90 0 -170 -51t-132 -168h480q74 0 136 -16.5t108 -55.5t72 -102.5t26 -155.5q0 -27 -2 -54.5t-6 -57.5q-18 -137 -62.5 -231.5t-106 -153t-138 -84t-158.5 -25.5h-244 q-102 0 -190.5 27.5t-153 91t-101 163t-36.5 244.5zM545 592q0 -86 19.5 -146.5t53 -97.5t78.5 -53t99 -16h153q29 0 60.5 14t58.5 45t44 79t17 118q0 72 -36.5 98t-90.5 26h-452q-2 -18 -3 -34.5t-1 -32.5z" />
<glyph unicode="7" horiz-adv-x="1337" d="M186 0l828 1155h-707l39 279h1073l-37 -258l-819 -1176h-377z" />
<glyph unicode="8" horiz-adv-x="1525" d="M213 313q0 154 59.5 257.5t151.5 158.5h-2q-82 76 -82 223q0 137 41 229.5t109.5 148.5t156.5 80t182 24h269q80 0 149.5 -16.5t120.5 -53.5t81 -97.5t30 -148.5q0 -139 -49.5 -236.5t-120.5 -152.5h-2q53 -41 84.5 -101.5t31.5 -150.5q0 -39 -6 -78q-16 -113 -60 -189.5 t-108.5 -122.5t-145.5 -66.5t-171 -20.5h-338q-80 0 -149.5 16.5t-121 53t-81 96t-29.5 147.5zM522 389q0 -61 32 -85.5t79 -24.5h338q27 0 53.5 9t48 31.5t34.5 58.5t13 89q0 61 -30.5 86t-77.5 25h-338q-27 0 -54.5 -9.5t-49 -31t-35 -58.5t-13.5 -90zM639 967 q0 -61 30.5 -86t78.5 -25h268q27 0 54.5 9t49 31t34.5 57.5t13 86.5q0 66 -30.5 90.5t-77.5 24.5h-268q-29 0 -55.5 -9t-48 -30.5t-35 -58.5t-13.5 -90z" />
<glyph unicode="9" horiz-adv-x="1515" d="M238 0l38 279h525q90 0 169 51t132 168h-479q-74 0 -136.5 17t-109.5 56t-74 102.5t-27 157.5q0 25 2.5 52.5t6.5 56.5q18 137 63 231.5t107.5 152.5t139.5 84t159 26h245q100 0 188.5 -28t152 -90.5t100.5 -163.5t37 -247q0 -43 -3.5 -90t-11.5 -98q-29 -199 -92 -336 t-151.5 -221t-196 -122t-223.5 -38h-561zM584 901q0 -72 40 -99.5t95 -27.5h448q2 23 3 43.5t1 40.5q0 84 -18 140.5t-52 91t-79 50t-98 15.5h-152q-61 0 -114.5 -49t-69.5 -166q-2 -10 -3 -19.5t-1 -19.5z" />
<glyph unicode=":" horiz-adv-x="499" d="M98 0l43 319h303l-43 -319h-303zM186 637l45 319h304l-46 -319h-303z" />
<glyph unicode=";" horiz-adv-x="499" d="M113 -279l26 598h305l-139 -598h-192zM186 637l45 319h304l-46 -319h-303z" />
<glyph unicode="&#x3c;" horiz-adv-x="1099" d="M168 508l31 219l878 440l66 -219l-694 -330l600 -331l-127 -219z" />
<glyph unicode="=" horiz-adv-x="1107" d="M139 299l33 240h911l-32 -240h-912zM195 698l34 238h912l-35 -238h-911z" />
<glyph unicode="&#x3e;" horiz-adv-x="1099" d="M131 287l694 331l-600 330l125 219l754 -440l-31 -219l-878 -440z" />
<glyph unicode="?" horiz-adv-x="1232" d="M98 0l43 319h303l-43 -319h-303zM178 438q0 39 2 70t6 53q18 135 64.5 214t106 119t130 51t138.5 11h196q31 0 61.5 9.5t53 31t37 56t14.5 88.5q0 63 -34.5 88.5t-88.5 25.5h-555l39 279h592q82 0 147.5 -16.5t112.5 -53.5t72.5 -98t25.5 -149q0 -27 -2 -53.5t-6 -57.5 q-16 -121 -57 -202t-102.5 -132t-140.5 -72.5t-171 -21.5h-233q-23 0 -44.5 -8t-39 -34t-32.5 -73t-26 -125h-266z" />
<glyph unicode="@" horiz-adv-x="1691" d="M203 717q0 156 58 292t159.5 237.5t237 159.5t290.5 58q156 0 292 -58t237.5 -159.5t160 -238t58.5 -291.5q0 -156 -58.5 -291t-160 -236.5t-237.5 -160t-292 -58.5t-291 58.5t-236.5 160t-159.5 236.5t-58 291zM381 717q0 -117 45 -220.5t122 -180t180 -121.5t220 -45 t220.5 45t180 121.5t122 180t45.5 220.5t-45.5 220t-122 180t-180 122t-220.5 45t-220 -45t-180 -122t-122 -180t-45 -220zM586 582q0 70 18.5 116.5t50 74.5t73.5 40t91 12h266q-8 53 -51 74t-100 21h-299v176h319q68 0 128.5 -15.5t104.5 -49.5t70.5 -90t26.5 -136v-465 h-465q-49 0 -91 12.5t-73.5 41t-50 74.5t-18.5 114zM782 582q0 -37 20.5 -52.5t49.5 -15.5h235v137h-235q-29 0 -49.5 -15t-20.5 -54z" />
<glyph unicode="A" horiz-adv-x="1349" d="M-55 0l776 1434h309l375 -1434h-336l-68 279h-577l-143 -279h-336zM571 557h365l-119 477z" />
<glyph unicode="B" horiz-adv-x="1368" d="M98 0l201 1434h752q80 0 149.5 -16.5t120.5 -53.5t81 -97.5t30 -148.5q0 -141 -50.5 -236.5t-121.5 -152.5h-3q55 -41 87 -101.5t32 -152.5q0 -135 -43 -226t-111.5 -146.5t-156.5 -79t-178 -23.5h-789zM440 279h486q27 0 52.5 9t47 31.5t34.5 58.5t13 89q0 61 -30.5 86 t-75.5 25h-486zM520 856h449q27 0 53.5 9t48 32t34.5 57.5t13 87.5q0 63 -29.5 88t-76.5 25h-449z" />
<glyph unicode="C" d="M129 526q0 45 3 91.5t11 99.5q27 199 91.5 336t152.5 221t196.5 122t225.5 38h491l-38 -279h-457q-61 0 -118.5 -20.5t-104.5 -70.5t-82 -135t-54 -212q-6 -39 -8 -73t-2 -64q0 -86 18.5 -143.5t52.5 -93.5t78 -50t97 -14h457l-39 -279h-492q-102 0 -189 28.5t-151.5 91 t-101.5 163t-37 243.5z" />
<glyph unicode="D" horiz-adv-x="1341" d="M98 0l201 1434h635q100 0 187 -28t151.5 -91.5t101.5 -163.5t37 -246q0 -43 -3 -90t-11 -98q-29 -199 -92.5 -335t-151.5 -221t-195.5 -123t-224.5 -38h-635zM440 279h295q61 0 118.5 20t105 71.5t82 135.5t53.5 211q4 39 7 73.5t3 65.5q0 86 -18.5 143.5t-51.5 92 t-78 49t-98 14.5h-295z" />
<glyph unicode="E" horiz-adv-x="1198" d="M129 526q0 45 3 91.5t11 99.5q27 199 91.5 336t152.5 221t196.5 122t225.5 38h491l-38 -279h-457q-51 0 -100.5 -15.5t-92.5 -50t-78.5 -92t-60.5 -141.5h746l-39 -278h-746q0 -84 19.5 -141.5t53.5 -92.5t79 -50t96 -15h457l-39 -279h-492q-102 0 -189 28.5t-151.5 91 t-101.5 163t-37 243.5z" />
<glyph unicode="F" horiz-adv-x="1198" d="M80 0l106 758q27 188 89.5 317t149.5 209t194.5 115t224.5 35h493l-39 -279h-456q-106 0 -197.5 -69.5t-138.5 -229.5h749l-38 -278h-754l-80 -578h-303z" />
<glyph unicode="G" horiz-adv-x="1341" d="M129 526q0 45 3 91.5t11 99.5q27 199 91.5 336t152.5 221t196.5 122t225.5 38h635l-39 -279h-600q-61 0 -118.5 -20.5t-104.5 -70.5t-82 -135t-54 -212q-6 -39 -8 -73t-2 -64q0 -86 18.5 -143.5t52.5 -93.5t78 -50t97 -14h297l41 299h-252l39 278h555l-119 -856h-635 q-102 0 -189 28.5t-151.5 91t-101.5 163t-37 243.5z" />
<glyph unicode="H" horiz-adv-x="1323" d="M98 0l201 1434h303l-82 -578h520l82 578h303l-200 -1434h-303l79 578h-520l-80 -578h-303z" />
<glyph unicode="I" horiz-adv-x="499" d="M98 0l201 1434h303l-201 -1434h-303z" />
<glyph unicode="J" horiz-adv-x="946" d="M27 0l39 279h239q61 0 117.5 14t100.5 49t76 92.5t44 143.5l121 856h303l-121 -856q-23 -164 -86 -274.5t-154.5 -178.5t-204 -96.5t-235.5 -28.5h-239z" />
<glyph unicode="K" horiz-adv-x="1216" d="M98 0l201 1434h303l-82 -582l541 582h385l-674 -717l473 -717h-385l-377 586l-82 -586h-303z" />
<glyph unicode="L" horiz-adv-x="1054" d="M150 453q0 29 3 59.5t7 65.5l121 856h303l-121 -856q-4 -18 -4 -35v-33q0 -66 19.5 -110t54 -71.5t83 -38.5t103.5 -11h348l-39 -279h-348q-111 0 -207 22.5t-169 76t-113.5 140.5t-40.5 214z" />
<glyph unicode="M" horiz-adv-x="1644" d="M98 0l201 1434h410l176 -969q70 150 144.5 306.5t148.5 315.5l161 347h406l-201 -1434h-295l117 838q-98 -211 -196.5 -420t-194.5 -418h-309l-148 836l-117 -836h-303z" />
<glyph unicode="N" horiz-adv-x="1323" d="M98 0l201 1434h367l325 -924l131 924h303l-200 -1434h-367l-328 926l-129 -926h-303z" />
<glyph unicode="O" horiz-adv-x="1357" d="M129 530q0 43 3 89.5t11 97.5q29 207 98.5 350t168 231t220.5 127t255 39q113 0 212 -29.5t172.5 -97t117 -175t43.5 -263.5q0 -41 -4.5 -87t-10.5 -95q-29 -207 -99.5 -349.5t-169.5 -230.5t-220 -127t-250 -39q-117 0 -217.5 30t-173 96.5t-114.5 172.5t-42 260z M436 575q0 -94 21.5 -156.5t58.5 -100t88 -53t111 -15.5q68 0 131 21.5t116.5 75.5t92.5 144.5t57 225.5q6 41 8 75.5t2 65.5q0 94 -21.5 156.5t-58 100.5t-88 54.5t-108.5 16.5q-70 0 -133.5 -22.5t-116.5 -76t-92 -144.5t-58 -226q-6 -41 -8 -76t-2 -66z" />
<glyph unicode="P" horiz-adv-x="1341" d="M98 0l201 1434h752q82 0 152.5 -19.5t122.5 -63.5t82 -115t30 -171q0 -27 -2 -53.5t-6 -55.5q-20 -143 -68.5 -239t-118 -153.5t-153.5 -81t-177 -23.5h-448l-64 -459h-303zM504 737h448q31 0 61.5 13.5t57.5 45t43 84t16 132.5q0 78 -33.5 110.5t-84.5 32.5h-449z" />
<glyph unicode="Q" horiz-adv-x="1357" d="M129 528q0 43 3 90.5t11 98.5q29 207 98.5 350t168 231t220.5 127t255 39q113 0 212 -29.5t172.5 -97t117 -175t43.5 -263.5q0 -41 -4.5 -87t-10.5 -95q-25 -176 -81 -306t-135 -219.5t-176 -139.5t-204 -68h6l-37 -263h-301l37 263h6q-90 14 -163.5 53t-126 105.5 t-82 161.5t-29.5 224zM434 571q0 -123 36 -191.5t97 -98.5l19 137h301l-19 -135q90 41 152.5 140t91.5 294q6 41 8 75.5t2 65.5q0 94 -21.5 156.5t-58 100.5t-88 54.5t-108.5 16.5q-70 0 -133.5 -22.5t-116.5 -76t-92 -144.5t-58 -226q-12 -80 -12 -146z" />
<glyph unicode="R" horiz-adv-x="1368" d="M98 0l201 1434h770q80 0 147.5 -18.5t117.5 -58.5t79 -105.5t29 -159.5q0 -119 -31 -210t-80 -157t-111.5 -108t-125.5 -62h6l209 -555h-351l-190 539h-293l-74 -539h-303zM516 817h467q27 0 53.5 10.5t48 36t36 68.5t14.5 106q0 66 -30 91.5t-75 25.5h-467z" />
<glyph unicode="S" horiz-adv-x="1304" d="M106 0l39 279h680q33 0 63 9t53.5 30.5t37.5 57.5t14 87q0 66 -36.5 90.5t-90.5 24.5h-303q-82 0 -148.5 16t-112.5 55t-71.5 99.5t-25.5 150.5q0 25 2 51.5t6 55.5q16 123 57 204.5t101.5 132t139.5 71t173 20.5h715l-39 -279h-680q-33 0 -62.5 -9t-53 -30.5t-37 -57.5 t-13.5 -87q0 -63 35 -89t88 -26h303q166 0 263 -71.5t97 -249.5q0 -25 -2 -51.5t-6 -55.5q-16 -123 -57 -205t-101.5 -131t-139.5 -70.5t-173 -21.5h-715z" />
<glyph unicode="T" horiz-adv-x="1165" d="M143 1155l39 279h1200l-39 -279h-448l-162 -1155h-303l162 1155h-449z" />
<glyph unicode="U" horiz-adv-x="1357" d="M152 451q0 68 12 147l117 836h303l-117 -836q-4 -27 -6 -49.5t-2 -44.5q0 -72 19.5 -121t54 -79t80.5 -42t102 -12q59 0 115.5 17.5t102.5 57.5t78.5 106.5t47.5 166.5l117 836h305l-117 -836q-25 -178 -90.5 -298t-158.5 -193.5t-205.5 -104.5t-233.5 -31 q-111 0 -207 24.5t-167 80t-110.5 148t-39.5 227.5z" />
<glyph unicode="V" horiz-adv-x="1349" d="M145 1434h334l250 -1037l543 1037h334l-777 -1434h-309z" />
<glyph unicode="W" horiz-adv-x="1830" d="M168 1434h321l132 -891l344 891h303l92 -887q96 223 192.5 443t192.5 444h319l-630 -1434h-312l-90 842l-119 -303q-53 -135 -105 -271.5t-99 -267.5h-310z" />
<glyph unicode="X" horiz-adv-x="1216" d="M-23 0l558 717l-357 717h359l211 -439q78 104 167 219t166 220h359l-559 -717l147 -297q53 -109 105.5 -214.5t105.5 -205.5h-358l-213 436l-332 -436h-359z" />
<glyph unicode="Y" horiz-adv-x="1216" d="M160 1434h360l215 -508q47 68 95.5 135t99.5 137h-2l166 236h364l-616 -830h2l-84 -604h-303l84 604h2z" />
<glyph unicode="Z" horiz-adv-x="1269" d="M72 0l37 266l856 889h-732l39 279h1127l-37 -265l-856 -890h731l-39 -279h-1126z" />
<glyph unicode="[" horiz-adv-x="712" d="M57 -279l242 1713h518l-31 -220h-251l-181 -1273h252l-31 -220h-518z" />
<glyph unicode="\" horiz-adv-x="856" d="M174 1513h217l463 -1792h-215z" />
<glyph unicode="]" horiz-adv-x="712" d="M57 -279l31 220h250l180 1273h-250l31 220h518l-242 -1713h-518z" />
<glyph unicode="^" d="M168 547l514 887h217l264 -887l-223 -113l-192 701q-94 -170 -192.5 -350.5t-195.5 -350.5z" />
<glyph unicode="_" horiz-adv-x="995" d="M-20 -160h1036v-159h-1036v159z" />
<glyph unicode="`" horiz-adv-x="636" d="M307 1544l137 166l295 -311l-92 -115z" />
<glyph unicode="a" horiz-adv-x="1161" d="M90 301q0 139 36 232.5t94.5 148.5t131 78.5t146.5 23.5h424q-14 98 -66.5 142.5t-122.5 44.5h-483l37 264h514q88 0 163.5 -24.5t132 -79t88.5 -141.5t32 -212q0 -74 -13 -160q-25 -172 -80 -289.5t-132 -191.5t-170 -105.5t-193 -31.5h-240q-63 0 -118.5 16.5t-95.5 51 t-62.5 92t-22.5 141.5zM379 365q0 -53 27.5 -76t66.5 -23h162q82 0 154.5 60.5t109.5 195.5h-391q-43 0 -80 -28.5t-47 -100.5q-2 -8 -2 -15v-13z" />
<glyph unicode="b" d="M98 0l230 1632h284l-57 -397h264q88 0 164 -24.5t132 -79t88 -141.5t32 -212q0 -74 -12 -160q-25 -172 -80.5 -289.5t-132 -191.5t-169.5 -105.5t-194 -31.5h-549zM420 266h233q49 0 93.5 16.5t82 56.5t65.5 108.5t42 170.5q4 31 6 60t2 53q0 68 -14.5 114t-41 73.5 t-61 40t-75.5 12.5h-234z" />
<glyph unicode="c" horiz-adv-x="1036" d="M117 455q0 74 12 163q25 172 79 290t131 190.5t170 104.5t196 32h425l-36 -264h-396q-49 0 -94 -16.5t-82 -57.5t-65.5 -108.5t-42.5 -170.5q-4 -33 -6 -60.5t-2 -51.5q0 -70 15 -116t40.5 -73.5t61.5 -39t77 -11.5h395l-37 -266h-426q-88 0 -163.5 24.5t-132 78 t-88 140.5t-31.5 212z" />
<glyph unicode="d" d="M117 455q0 74 12 163q25 172 79 290t131 190.5t170 104.5t196 32h264l57 397h287l-230 -1632h-551q-88 0 -163.5 24.5t-132 78t-88 140.5t-31.5 212zM406 506q0 -70 15 -116t40.5 -73.5t61.5 -39t77 -11.5h234l98 705h-234q-49 0 -94 -16.5t-82 -57.5t-65.5 -108.5 t-42.5 -170.5q-4 -33 -6 -60t-2 -52z" />
<glyph unicode="e" horiz-adv-x="1161" d="M117 455q0 74 12 163q25 172 79 290t131 190.5t170 104.5t196 32h239q63 0 117.5 -16.5t94.5 -51t62.5 -91t22.5 -138.5q0 -139 -36 -233.5t-93 -150.5t-131 -79.5t-147 -23.5h-426q14 -104 67 -144.5t125 -40.5h483l-36 -266h-515q-88 0 -163.5 24.5t-132 78t-88 140.5 t-31.5 212zM430 713h393q23 0 45.5 8t41 26.5t29.5 50t11 79.5q0 51 -26.5 72.5t-63.5 21.5h-162q-82 0 -154.5 -60.5t-113.5 -197.5z" />
<glyph unicode="f" horiz-adv-x="821" d="M178 971l37 264h180l13 80q14 88 49 149.5t86 98t115.5 53t138.5 16.5h192l-37 -258h-196q-23 0 -41.5 -12t-22.5 -41l-12 -86h252l-37 -264h-252l-135 -971h-285l135 971h-180z" />
<glyph unicode="g" d="M57 -397l37 264h518q63 0 115.5 30.5t69.5 102.5h-265q-88 0 -163.5 24.5t-132 78t-88 140.5t-31.5 212q0 74 12 163q25 172 79 290t131 190.5t170 104.5t196 32h550l-170 -1215q-16 -117 -57 -196.5t-100.5 -128.5t-132 -70.5t-152.5 -21.5h-586zM406 506q0 -70 15 -116 t40.5 -73.5t61.5 -39t77 -11.5h234l98 705h-234q-49 0 -94 -16.5t-82 -57.5t-65.5 -108.5t-42.5 -170.5q-4 -33 -6 -60t-2 -52z" />
<glyph unicode="h" d="M98 0l230 1632h284l-57 -397h229q90 0 169 -19.5t136.5 -63.5t90 -115.5t32.5 -174.5q0 -47 -6 -98l-106 -764h-287l107 764q2 10 2 19.5v19.5q0 92 -59.5 130t-147.5 38h-197l-135 -971h-285z" />
<glyph unicode="i" horiz-adv-x="481" d="M98 0l172 1235h285l-172 -1235h-285zM285 1335l43 297h284l-43 -297h-284z" />
<glyph unicode="j" horiz-adv-x="481" d="M-207 -397l37 264h123q51 0 91 24.5t50 90.5l176 1253h285l-170 -1215q-16 -117 -57 -196.5t-99.5 -128.5t-131 -70.5t-150.5 -21.5h-154zM285 1335l43 297h284l-43 -297h-284z" />
<glyph unicode="k" horiz-adv-x="1134" d="M98 0l230 1632h303l-125 -882q113 123 223.5 243.5t222.5 241.5h383l-579 -617l407 -618h-383l-311 485l-68 -485h-303z" />
<glyph unicode="l" horiz-adv-x="481" d="M98 0l230 1632h284l-229 -1632h-285z" />
<glyph unicode="m" horiz-adv-x="1609" d="M98 0l172 1235h1014q76 0 141.5 -18.5t114.5 -61.5t77 -111.5t28 -166.5q0 -27 -2.5 -54.5t-6.5 -58.5l-106 -764h-285l107 764q2 14 3 27.5t1 25.5q0 86 -40 120t-99 34h-125l-136 -971h-284l135 971h-289l-135 -971h-285z" />
<glyph unicode="n" d="M98 0l172 1235h514q90 0 169 -19.5t136.5 -63.5t90 -115.5t32.5 -174.5q0 -47 -6 -98l-106 -764h-287l107 764q2 10 2 19.5v19.5q0 92 -59.5 130t-147.5 38h-197l-135 -971h-285z" />
<glyph unicode="o" horiz-adv-x="1187" d="M117 457q0 76 12 161q25 178 85 301t146 200t190.5 112t219.5 35q98 0 184 -27t150.5 -85t101.5 -151.5t37 -228.5q0 -74 -12 -156q-25 -178 -87.5 -301.5t-148.5 -200.5t-190.5 -111t-214.5 -34q-100 0 -187.5 26t-151 84t-99 150.5t-35.5 225.5zM406 502q0 -76 16 -127 t46 -82t71 -44t88 -13q55 0 105 18t92 63t73 118t47 183q4 33 6 62t2 55q0 76 -17 126t-46 81t-70 44t-86 13q-55 0 -106.5 -18t-93 -62.5t-73.5 -117t-46 -183.5q-4 -33 -6 -61t-2 -55z" />
<glyph unicode="p" d="M41 -397l229 1632h549q88 0 164 -24.5t132 -79t88 -141.5t32 -212q0 -74 -12 -160q-25 -172 -80.5 -289.5t-132 -191.5t-169.5 -105.5t-194 -31.5h-264l-57 -397h-285zM420 266h233q49 0 93.5 16.5t82 56.5t65.5 108.5t42 170.5q4 31 6 60t2 53q0 68 -14.5 114t-41 73.5 t-61 40t-75.5 12.5h-234z" />
<glyph unicode="q" d="M117 455q0 74 12 163q25 172 79 290t131 190.5t170 104.5t196 32h550l-229 -1632h-287l58 397h-265q-88 0 -163.5 24.5t-132 78t-88 140.5t-31.5 212zM406 506q0 -70 15 -116t40.5 -73.5t61.5 -39t77 -11.5h234l98 705h-234q-49 0 -94 -16.5t-82 -57.5t-65.5 -108.5 t-42.5 -170.5q-4 -33 -6 -60t-2 -52z" />
<glyph unicode="r" horiz-adv-x="999" d="M80 0l106 764q18 131 69.5 221t125.5 145.5t166 80t192 24.5h371l-72 -518h-284l34 254h-55q-47 0 -91 -10.5t-80 -35t-59.5 -64.5t-31.5 -97l-106 -764h-285z" />
<glyph unicode="s" horiz-adv-x="1148" d="M102 0l37 266h588q53 0 94 29t41 102q0 49 -29.5 68.5t-74.5 19.5h-260q-72 0 -130.5 14.5t-99.5 47.5t-62.5 86t-21.5 131q0 135 33 225t89 145.5t133 78t163 22.5h617l-37 -264h-588q-55 0 -96 -30t-41 -103q0 -49 29.5 -67.5t76.5 -18.5h262q143 0 228.5 -62.5 t85.5 -218.5q0 -23 -2 -47.5t-7 -50.5q-14 -106 -50 -178t-88 -115t-120.5 -61.5t-150.5 -18.5h-619z" />
<glyph unicode="t" horiz-adv-x="821" d="M180 977l37 264h180l41 293h285l-41 -293h252l-37 -264h-252l-84 -598q-2 -8 -2 -25q0 -51 32 -69.5t79 -18.5h127l-37 -266h-156q-72 0 -132 17.5t-104 55.5t-70 99.5t-26 149.5q0 23 2 46t7 50l79 559h-180z" />
<glyph unicode="u" d="M137 373q0 23 2 48t6 52l107 762h285l-107 -762q-2 -10 -3 -20.5t-1 -20.5q0 -94 61.5 -130t147.5 -36h199l135 969h286l-172 -1235h-516q-90 0 -169 19.5t-137 63.5t-91 116t-33 174z" />
<glyph unicode="v" horiz-adv-x="1155" d="M117 1235h315l203 -825l430 825h317l-669 -1235h-273z" />
<glyph unicode="w" horiz-adv-x="1570" d="M139 1235h301l107 -703l268 703h285l71 -698l304 698h301l-545 -1235h-281l-69 676l-258 -676h-283z" />
<glyph unicode="x" horiz-adv-x="1060" d="M-23 0l482 618l-309 617h327l172 -365l279 365h329l-485 -617l313 -618h-329l-176 365l-275 -365h-328z" />
<glyph unicode="y" d="M94 -397l37 264h481q63 0 115.5 30.5t69.5 102.5h-265q-90 0 -162.5 18.5t-124.5 61.5t-80 111.5t-28 166.5q0 27 2 55.5t6 59.5l107 762h285l-107 -762q-4 -16 -4 -29.5v-25.5q0 -86 45 -119t129 -33h234l135 969h286l-170 -1215q-16 -117 -57 -196.5t-100.5 -128.5 t-132 -70.5t-152.5 -21.5h-549z" />
<glyph unicode="z" horiz-adv-x="1114" d="M72 0l34 252l703 719h-602l37 264h973l-35 -250l-705 -719h604l-37 -266h-972z" />
<glyph unicode="{" horiz-adv-x="821" d="M168 508l31 219h125q23 0 41 20.5t26 73.5l41 295q12 88 42 148.5t73 98.5t95 54.5t110 16.5h172l-31 -220h-125q-25 0 -41 -19t-25 -73l-32 -225q-16 -104 -59.5 -174t-100.5 -105q39 -31 62.5 -83t23.5 -129q0 -16 -1 -33t-3 -33l-43 -305q-2 -10 -3 -18.5t-1 -16.5 q0 -35 12 -47t31 -12h125l-31 -220h-172q-100 0 -168 54.5t-68 187.5q0 35 7 78l53 373q2 10 2 17v15q0 35 -12.5 48.5t-30.5 13.5h-125z" />
<glyph unicode="|" horiz-adv-x="643" d="M147 -397l273 1931h233l-272 -1931h-234z" />
<glyph unicode="}" horiz-adv-x="821" d="M57 -279l31 220h125q23 0 41 20.5t27 73.5l43 305q14 104 56 173t101 105q-41 29 -63.5 80.5t-22.5 126.5q0 35 6 72l33 225q0 8 1 15.5t1 13.5q0 37 -12 50t-31 13h-125l31 220h172q100 0 168 -54.5t68 -185.5q0 -35 -7 -78l-41 -295q-2 -10 -3 -18t-1 -17 q0 -35 12.5 -47t30.5 -12h125l-30 -219h-125q-23 0 -40.5 -20.5t-25.5 -73.5l-53 -373q-12 -90 -43 -150.5t-73 -98.5t-94 -54.5t-110 -16.5h-172z" />
<glyph unicode="~" horiz-adv-x="1275" d="M184 657l82 41q55 29 129 58.5t160 29.5q70 0 116 -16t84 -35.5t74.5 -36t90.5 -16.5q59 0 133.5 36t144.5 75l64 -234q-53 -14 -96.5 -33.5t-85.5 -38t-88 -32t-105 -13.5q-70 0 -116 17.5t-84 38t-76 38t-89 17.5q-23 0 -59.5 -13.5t-76.5 -33t-78 -42t-62 -40.5z" />
<glyph unicode="&#xa1;" horiz-adv-x="499" d="M55 -299l189 1096h231l-117 -1096h-303zM225 915l45 320h303l-45 -320h-303z" />
<glyph unicode="&#xa2;" horiz-adv-x="1253" d="M201 651q0 74 12 166q25 172 79 290t130 190.5t169 104.5t195 32h39l29 198h199l-29 -198h332l-37 -265h-332l-100 -704h332l-37 -266h-332l-27 -199h-198l26 199h-39q-88 0 -163.5 23.5t-131 77.5t-86 140t-30.5 211zM489 705q0 -68 14.5 -114t40 -74t60.5 -40t76 -12h8 l100 704h-8q-47 0 -92 -16t-83 -57t-65.5 -108.5t-41.5 -170.5q-4 -33 -6.5 -60.5t-2.5 -51.5z" />
<glyph unicode="&#xa3;" horiz-adv-x="1288" d="M98 0l39 279h213l45 319h-178l33 240h178l29 198q16 111 60 187.5t110.5 123t149.5 67t175 20.5h332l-39 -279h-297q-72 0 -124 -25.5t-62 -93.5l-29 -198h322l-33 -240h-322l-45 -319h574l-39 -279h-1092z" />
<glyph unicode="&#xa5;" horiz-adv-x="1357" d="M199 219l24 180h361l14 99h-360l24 180h320l-351 756h361l215 -508q47 68 95 135t99 137h-2l166 236h365l-561 -756h315l-24 -180h-361l-14 -99h360l-24 -180h-361l-31 -219h-301l31 219h-360z" />
<glyph unicode="&#xa6;" horiz-adv-x="643" d="M164 -279l115 818h233l-115 -818h-233zM305 717l101 717h233l-100 -717h-234z" />
<glyph unicode="&#xa7;" horiz-adv-x="1300" d="M203 578q0 92 32.5 148t92.5 91q-59 35 -92 93.5t-33 150.5q0 106 26.5 178t77.5 115t122 61.5t161 18.5h680v-265h-645q-59 0 -101.5 -24.5t-42.5 -83.5q0 -61 42 -85t102 -24h290q88 0 160 -18.5t122 -63.5t78 -117.5t28 -179.5q0 -90 -32 -146t-93 -91 q61 -35 93 -94.5t32 -149.5q0 -106 -28 -177t-78 -114t-121.5 -61.5t-160.5 -18.5h-679v265h645q59 0 100 23.5t41 82.5q0 63 -41 86t-100 23h-291q-90 0 -161 18.5t-122 62.5t-77.5 115.5t-26.5 180.5zM481 578q0 -63 42 -87t102 -24h256q59 0 100 23.5t41 82.5 q0 63 -41 88t-100 25h-256q-59 0 -101.5 -24.5t-42.5 -83.5z" />
<glyph unicode="&#xa8;" horiz-adv-x="749" d="M283 1315l34 258h248l-35 -258h-247zM588 1315l35 258h247l-34 -258h-248z" />
<glyph unicode="&#xa9;" horiz-adv-x="1691" d="M203 717q0 156 58 292t159.5 237.5t237 159.5t290.5 58q156 0 292 -58t237.5 -159.5t160 -238t58.5 -291.5q0 -156 -58.5 -291t-160 -236.5t-237.5 -160t-292 -58.5t-291 58.5t-236.5 160t-159.5 236.5t-58 291zM381 717q0 -117 45 -220.5t122 -180t180 -121.5t220 -45 t220.5 45t180 121.5t122 180t45.5 220.5t-45.5 220t-122 180t-180 122t-220.5 45t-220 -45t-180 -122t-122 -180t-45 -220zM530 717q0 121 30 205t81 136t120.5 74.5t147.5 22.5h330v-182h-307q-41 0 -76 -12.5t-61.5 -41t-42 -78.5t-15.5 -124t15.5 -123t42 -78t61.5 -41 t76 -12h307v-184h-330q-78 0 -147.5 23.5t-120.5 75.5t-81 135t-30 204z" />
<glyph unicode="&#xaa;" horiz-adv-x="837" d="M223 860q0 88 21.5 146.5t57.5 93.5t82 49t93 14h234q0 51 -34 74t-81 23h-279l25 174h295q55 0 104.5 -12.5t86 -40t57 -71.5t20.5 -108q0 -14 -1 -28.5t-3 -30.5l-65 -465h-426q-80 0 -133.5 41t-53.5 141zM418 899q0 -47 45 -47h207l18 137h-207q-23 0 -40 -14 t-21 -55q-2 -8 -2 -21z" />
<glyph unicode="&#xab;" horiz-adv-x="1099" d="M180 618l385 588l180 -129l-317 -459l94 -231q23 -59 46.5 -117.5t47.5 -113.5l-215 -125zM592 618l387 588l178 -129l-317 -459q47 -115 95 -230.5t93 -229.5l-213 -127z" />
<glyph unicode="&#xac;" horiz-adv-x="1193" d="M203 498v239h995v-538h-240v299h-755z" />
<glyph unicode="&#xad;" horiz-adv-x="964" d="M166 487l37 261h768l-37 -261h-768z" />
<glyph unicode="&#xae;" horiz-adv-x="1691" d="M203 717q0 156 58 292t159.5 237.5t237 159.5t290.5 58q156 0 292 -58t237.5 -159.5t160 -238t58.5 -291.5q0 -156 -58.5 -291t-160 -236.5t-237.5 -160t-292 -58.5t-291 58.5t-236.5 160t-159.5 236.5t-58 291zM381 717q0 -125 50 -233.5t136 -186.5v840 q-86 -78 -136 -186.5t-50 -233.5zM588 1155h495q59 0 111.5 -14.5t92.5 -46t62.5 -82.5t22.5 -127q0 -123 -51 -185.5t-129 -85.5q39 -70 82 -144.5t84 -143.5q74 78 116 177t42 214q0 117 -45.5 220t-122 180t-180 122t-220.5 45q-104 0 -195 -35t-165 -94zM590 279 q74 -61 165 -95t193 -34t193.5 33.5t165.5 95.5h-162l-178 323h-191v-323h-186zM776 784h307q35 0 58.5 21.5t23.5 79.5q0 49 -23.5 68.5t-58.5 19.5h-307v-189z" />
<glyph unicode="&#xaf;" horiz-adv-x="784" d="M283 1315l22 160h590l-23 -160h-589z" />
<glyph unicode="&#xb0;" horiz-adv-x="731" d="M258 1130q0 10 1 21.5t3 24.5q8 59 37 111t71 92t94 62.5t107 22.5q49 0 91.5 -19.5t73 -52t48 -78.5t17.5 -97q0 -68 -26.5 -128.5t-71 -104.5t-101 -70.5t-113.5 -26.5q-51 0 -93 18.5t-72.5 51t-48 76.5t-17.5 97zM418 1153q0 -47 26.5 -76.5t67.5 -29.5q25 0 48.5 12 t40.5 32.5t28.5 47t11.5 57.5q0 47 -25.5 78t-66.5 31q-47 0 -84 -38t-45 -91q-2 -8 -2 -23z" />
<glyph unicode="&#xb1;" horiz-adv-x="1107" d="M98 0l33 240h911l-32 -240h-912zM213 817l33 240h340l53 377h231l-53 -377h340l-33 -240h-340l-53 -379h-231l53 379h-340z" />
<glyph unicode="&#xb2;" horiz-adv-x="849" d="M150 557l36 266q20 147 98 205.5t195 58.5h172q35 0 62.5 21.5t27.5 79.5q0 35 -19.5 49t-47.5 14h-408l27 183h430q104 0 163.5 -42t59.5 -155q0 -92 -23.5 -155.5t-63.5 -102.5t-94 -56.5t-116 -17.5h-172q-35 0 -59.5 -17.5t-30.5 -64.5l-12 -82h495l-24 -184h-696z " />
<glyph unicode="&#xb3;" horiz-adv-x="819" d="M158 557l24 184h420q29 0 53.5 22.5t24.5 82.5q0 33 -15.5 46t-37.5 13h-314l25 182h291q29 0 54.5 21.5t25.5 81.5q0 35 -16.5 48t-41.5 13h-397l27 183h397q49 0 92 -10.5t76 -33t51 -59.5t18 -92q0 -86 -27.5 -142.5t-72.5 -92.5h-2q33 -27 50.5 -64t17.5 -90 q0 -84 -27 -139.5t-70 -90t-97 -49t-109 -14.5h-420z" />
<glyph unicode="&#xb4;" horiz-adv-x="636" d="M287 1399l385 311l88 -166l-410 -260z" />
<glyph unicode="&#xb6;" horiz-adv-x="1325" d="M203 1165q0 76 28.5 127t78.5 83t117 45.5t142 13.5h758v-199h-219v-1514h-240v1514h-80v-1514h-237v1156q-74 2 -137.5 16t-110.5 48t-73.5 89t-26.5 135z" />
<glyph unicode="&#xb7;" horiz-adv-x="499" d="M162 459l45 317h303l-45 -317h-303z" />
<glyph unicode="&#xb8;" horiz-adv-x="675" d="M49 -348l19 143q63 -16 104 -33.5t100 -17.5q12 0 26.5 3t28 11.5t22.5 21.5t9 34q0 23 -13 29.5t-32 6.5q-29 0 -64.5 -9t-53.5 -15h2q-6 -2 -23 -2l80 264h160l-37 -127q100 -4 136 -45t36 -92q0 -61 -25.5 -105.5t-67.5 -73t-95.5 -42t-106.5 -13.5q-119 0 -205 62z " />
<glyph unicode="&#xb9;" horiz-adv-x="397" d="M176 565l117 834l215 80l-129 -914h-203z" />
<glyph unicode="&#xba;" horiz-adv-x="876" d="M238 958q0 135 34.5 229.5t91 153t129 85t146.5 26.5q61 0 114.5 -16.5t93.5 -52t62.5 -93t22.5 -139.5q0 -45 -6 -94q-16 -109 -53 -184.5t-90.5 -123t-119 -69t-135.5 -21.5q-61 0 -114.5 16.5t-92 52.5t-61 92.5t-22.5 137.5zM432 985q0 -86 35 -117.5t86 -31.5 q61 0 111.5 47t68.5 174q6 37 6 67q0 86 -35.5 119t-89.5 33q-31 0 -63.5 -13.5t-58 -47t-43 -90t-17.5 -140.5z" />
<glyph unicode="&#xbb;" horiz-adv-x="1099" d="M113 156l323 462q-49 111 -99 230t-95 229l217 129l221 -588l-385 -587zM524 158l320 460q-47 115 -95.5 230t-95.5 229l217 129l224 -588l-387 -587z" />
<glyph unicode="&#xbc;" horiz-adv-x="1634" d="M176 565l117 834l215 80l-129 -914h-203zM211 0l831 1434h218l-832 -1434h-217zM766 168l27 192l528 517h231l-73 -527h108l-26 -182h-109l-22 -168h-203l22 168h-483zM1038 350h238l39 277q-70 -68 -139.5 -139.5t-137.5 -137.5z" />
<glyph unicode="&#xbd;" horiz-adv-x="1681" d="M176 565l117 834l215 80l-129 -914h-203zM211 0l831 1434h218l-832 -1434h-217zM879 0l36 266q20 147 98.5 205.5t194.5 58.5h172q31 0 59.5 21.5t28.5 79.5q0 35 -18 49t-47 14h-408l27 183h430q104 0 163.5 -43t59.5 -156q0 -94 -23.5 -157.5t-64.5 -102.5t-95 -55.5 t-116 -16.5h-174q-35 0 -56.5 -16.5t-27.5 -63.5l-12 -82h493l-24 -184h-696z" />
<glyph unicode="&#xbe;" horiz-adv-x="2011" d="M176 557l25 184h417q31 0 55.5 22.5t24.5 82.5q0 33 -15 46t-40 13h-311l24 182h291q29 0 53.5 23t24.5 82q0 33 -15.5 46t-39.5 13h-398l27 183h397q49 0 92 -10.5t75 -33t51.5 -59.5t19.5 -92q0 -86 -27.5 -142.5t-72.5 -92.5h-3q33 -27 50.5 -64t17.5 -90 q0 -84 -26.5 -139.5t-69.5 -90t-98.5 -49t-110.5 -14.5h-418zM588 0l829 1434h217l-829 -1434h-217zM1143 168l26 192l529 517h229l-74 -527h109l-27 -182h-108l-23 -168h-202l22 168h-481zM1415 350h236l37 275z" />
<glyph unicode="&#xbf;" horiz-adv-x="1232" d="M106 20q0 25 2.5 52.5t6.5 56.5q16 119 57 201t102.5 133t140.5 72.5t171 21.5h235q23 0 43.5 8t39 34t32.5 73t25 125h266q-8 -178 -50 -281.5t-105.5 -156t-139.5 -66.5t-150 -14h-198q-31 0 -60.5 -9.5t-54.5 -31t-39 -56.5t-14 -86q0 -66 35.5 -90t89.5 -24h555 l-39 -281h-592q-82 0 -148.5 16.5t-112.5 53t-72 98t-26 151.5zM958 915l46 320h305l-45 -320h-306z" />
<glyph unicode="&#xc0;" horiz-adv-x="1349" d="M-55 0l776 1434h309l375 -1434h-336l-68 279h-577l-143 -279h-336zM571 557h365l-119 477zM692 1749l137 166l295 -311l-92 -115z" />
<glyph unicode="&#xc1;" horiz-adv-x="1349" d="M-55 0l776 1434h309l375 -1434h-336l-68 279h-577l-143 -279h-336zM571 557h365l-119 477zM672 1604l385 311l88 -166l-410 -260z" />
<glyph unicode="&#xc2;" horiz-adv-x="1349" d="M-55 0l776 1434h309l375 -1434h-336l-68 279h-577l-143 -279h-336zM565 1606l379 309l290 -299l-94 -129l-231 180q-27 -16 -51.5 -31.5t-53.5 -31.5l-178 -115zM571 557h365l-119 477z" />
<glyph unicode="&#xc3;" horiz-adv-x="1349" d="M-55 0l776 1434h309l375 -1434h-336l-68 279h-577l-143 -279h-336zM547 1661l61 33q35 18 83 41.5t108 23.5q45 0 75.5 -12t55 -25.5t47.5 -25.5t53 -12q35 0 64.5 16t64.5 35l60 33l37 -183q-37 -12 -66 -26.5t-56.5 -27.5t-59 -22.5t-70.5 -9.5q-41 0 -70 12.5 t-53.5 27t-49 26.5t-57.5 12q-14 0 -37.5 -10t-50 -25.5t-52.5 -34t-42 -32.5zM571 557h365l-119 477z" />
<glyph unicode="&#xc4;" horiz-adv-x="1349" d="M-55 0l776 1434h309l375 -1434h-336l-68 279h-577l-143 -279h-336zM571 557h365l-119 477zM613 1520l34 258h248l-35 -258h-247zM918 1520l35 258h247l-34 -258h-248z" />
<glyph unicode="&#xc5;" horiz-adv-x="1349" d="M-55 0l776 1434h309l375 -1434h-336l-68 279h-577l-143 -279h-336zM571 557h365l-119 477zM682 1702q0 10 1 18.5t3 18.5q6 51 32 96t61.5 79t80.5 53.5t93 19.5q43 0 79.5 -16.5t63.5 -45t42 -67.5t15 -84q0 -55 -23.5 -107.5t-61.5 -91.5t-87 -62.5t-98 -23.5 q-86 0 -143.5 61.5t-57.5 151.5zM842 1723q0 -33 17 -53.5t46 -20.5q33 0 59.5 31.5t26.5 72.5q0 31 -16 53.5t-45 22.5q-31 0 -56.5 -26.5t-29.5 -63.5q-2 -6 -2 -16z" />
<glyph unicode="&#xc6;" horiz-adv-x="1986" d="M80 0l106 758q27 188 89.5 317t149.5 209t194.5 115t224.5 35h493l-10 -76q61 43 128 59.5t142 16.5h492l-39 -279h-457q-51 0 -100 -15.5t-92 -50t-79 -92t-60 -141.5h745l-39 -278h-745q2 -84 21.5 -141.5t52 -92.5t77.5 -50t96 -15h457l-39 -279h-491 q-72 0 -137.5 18.5t-112.5 55.5l-10 -74h-306l54 379h-449l-53 -379h-303zM475 657h449l69 498h-151q-63 0 -119.5 -19.5t-103 -65.5t-80 -122t-50.5 -190z" />
<glyph unicode="&#xc7;" d="M129 526q0 45 3 91.5t11 99.5q27 199 91.5 336t152.5 221t196.5 122t225.5 38h491l-38 -279h-457q-61 0 -118.5 -20.5t-104.5 -70.5t-82 -135t-54 -212q-6 -39 -8 -73t-2 -64q0 -86 18.5 -143.5t52.5 -93.5t78 -50t97 -14h457l-39 -279h-404l-12 -39q100 -4 135 -45 t35 -92q0 -61 -25.5 -105.5t-67.5 -73t-95.5 -42t-106.5 -13.5q-119 0 -205 62l21 145l59 -20q33 -10 70 -21.5t74 -11.5q25 0 56.5 14.5t31.5 55.5q0 23 -14.5 29.5t-33.5 6.5q-27 0 -58.5 -9t-53.5 -13l-27 -4l53 178h9q-90 8 -165 42t-130.5 96.5t-86 157.5t-30.5 228z " />
<glyph unicode="&#xc8;" horiz-adv-x="1198" d="M129 526q0 45 3 91.5t11 99.5q27 199 91.5 336t152.5 221t196.5 122t225.5 38h491l-38 -279h-457q-51 0 -100.5 -15.5t-92.5 -50t-78.5 -92t-60.5 -141.5h746l-39 -278h-746q0 -84 19.5 -141.5t53.5 -92.5t79 -50t96 -15h457l-39 -279h-492q-102 0 -189 28.5t-151.5 91 t-101.5 163t-37 243.5zM616 1749l137 166l295 -311l-92 -115z" />
<glyph unicode="&#xc9;" horiz-adv-x="1198" d="M129 526q0 45 3 91.5t11 99.5q27 199 91.5 336t152.5 221t196.5 122t225.5 38h491l-38 -279h-457q-51 0 -100.5 -15.5t-92.5 -50t-78.5 -92t-60.5 -141.5h746l-39 -278h-746q0 -84 19.5 -141.5t53.5 -92.5t79 -50t96 -15h457l-39 -279h-492q-102 0 -189 28.5t-151.5 91 t-101.5 163t-37 243.5zM596 1604l385 311l88 -166l-410 -260z" />
<glyph unicode="&#xca;" horiz-adv-x="1198" d="M129 526q0 45 3 91.5t11 99.5q27 199 91.5 336t152.5 221t196.5 122t225.5 38h491l-38 -279h-457q-51 0 -100.5 -15.5t-92.5 -50t-78.5 -92t-60.5 -141.5h746l-39 -278h-746q0 -84 19.5 -141.5t53.5 -92.5t79 -50t96 -15h457l-39 -279h-492q-102 0 -189 28.5t-151.5 91 t-101.5 163t-37 243.5zM490 1606l379 309l290 -299l-94 -129l-231 180q-27 -16 -51.5 -31.5t-53.5 -31.5l-178 -115z" />
<glyph unicode="&#xcb;" horiz-adv-x="1198" d="M129 526q0 45 3 91.5t11 99.5q27 199 91.5 336t152.5 221t196.5 122t225.5 38h491l-38 -279h-457q-51 0 -100.5 -15.5t-92.5 -50t-78.5 -92t-60.5 -141.5h746l-39 -278h-746q0 -84 19.5 -141.5t53.5 -92.5t79 -50t96 -15h457l-39 -279h-492q-102 0 -189 28.5t-151.5 91 t-101.5 163t-37 243.5zM535 1520l34 258h248l-35 -258h-247zM840 1520l35 258h247l-34 -258h-248z" />
<glyph unicode="&#xcc;" horiz-adv-x="499" d="M98 0l201 1434h303l-201 -1434h-303zM274 1749l137 166l295 -311l-92 -115z" />
<glyph unicode="&#xcd;" horiz-adv-x="499" d="M98 0l201 1434h303l-201 -1434h-303zM254 1604l385 311l88 -166l-410 -260z" />
<glyph unicode="&#xce;" horiz-adv-x="499" d="M98 0l201 1434h303l-201 -1434h-303zM148 1606l379 309l290 -299l-94 -129l-231 180q-27 -16 -51.5 -31.5t-53.5 -31.5l-178 -115z" />
<glyph unicode="&#xcf;" horiz-adv-x="499" d="M98 0l201 1434h303l-201 -1434h-303zM193 1520l34 258h248l-35 -258h-247zM498 1520l35 258h247l-34 -258h-248z" />
<glyph unicode="&#xd0;" horiz-adv-x="1376" d="M111 598l32 240h107l84 596h635q100 0 188 -29t152.5 -91.5t101.5 -163.5t37 -247q0 -43 -3 -89t-11 -97q-29 -199 -92.5 -335t-152.5 -221t-196.5 -123t-224.5 -38h-635l84 598h-106zM477 279h295q61 0 118.5 20t104.5 71.5t82 135.5t53 211q4 39 7.5 72.5t3.5 64.5 q0 86 -18.5 143.5t-52.5 93t-79 50t-96 14.5h-295l-45 -317h356l-32 -240h-357z" />
<glyph unicode="&#xd1;" horiz-adv-x="1323" d="M98 0l201 1434h367l325 -924l131 924h303l-200 -1434h-367l-328 926l-129 -926h-303zM533 1661l61 33q35 18 83 41.5t108 23.5q45 0 75.5 -12t55 -25.5t47.5 -25.5t53 -12q35 0 64.5 16t64.5 35l60 33l37 -183q-37 -12 -66 -26.5t-56.5 -27.5t-59 -22.5t-70.5 -9.5 q-41 0 -70 12.5t-53.5 27t-49 26.5t-57.5 12q-14 0 -37.5 -10t-50 -25.5t-52.5 -34t-42 -32.5z" />
<glyph unicode="&#xd2;" horiz-adv-x="1357" d="M129 530q0 43 3 89.5t11 97.5q29 207 98.5 350t168 231t220.5 127t255 39q113 0 212 -29.5t172.5 -97t117 -175t43.5 -263.5q0 -41 -4.5 -87t-10.5 -95q-29 -207 -99.5 -349.5t-169.5 -230.5t-220 -127t-250 -39q-117 0 -217.5 30t-173 96.5t-114.5 172.5t-42 260z M436 575q0 -94 21.5 -156.5t58.5 -100t88 -53t111 -15.5q68 0 131 21.5t116.5 75.5t92.5 144.5t57 225.5q6 41 8 75.5t2 65.5q0 94 -21.5 156.5t-58 100.5t-88 54.5t-108.5 16.5q-70 0 -133.5 -22.5t-116.5 -76t-92 -144.5t-58 -226q-6 -41 -8 -76t-2 -66zM694 1749l137 166 l295 -311l-92 -115z" />
<glyph unicode="&#xd3;" horiz-adv-x="1357" d="M129 530q0 43 3 89.5t11 97.5q29 207 98.5 350t168 231t220.5 127t255 39q113 0 212 -29.5t172.5 -97t117 -175t43.5 -263.5q0 -41 -4.5 -87t-10.5 -95q-29 -207 -99.5 -349.5t-169.5 -230.5t-220 -127t-250 -39q-117 0 -217.5 30t-173 96.5t-114.5 172.5t-42 260z M436 575q0 -94 21.5 -156.5t58.5 -100t88 -53t111 -15.5q68 0 131 21.5t116.5 75.5t92.5 144.5t57 225.5q6 41 8 75.5t2 65.5q0 94 -21.5 156.5t-58 100.5t-88 54.5t-108.5 16.5q-70 0 -133.5 -22.5t-116.5 -76t-92 -144.5t-58 -226q-6 -41 -8 -76t-2 -66zM674 1604l385 311 l88 -166l-410 -260z" />
<glyph unicode="&#xd4;" horiz-adv-x="1357" d="M129 530q0 43 3 89.5t11 97.5q29 207 98.5 350t168 231t220.5 127t255 39q113 0 212 -29.5t172.5 -97t117 -175t43.5 -263.5q0 -41 -4.5 -87t-10.5 -95q-29 -207 -99.5 -349.5t-169.5 -230.5t-220 -127t-250 -39q-117 0 -217.5 30t-173 96.5t-114.5 172.5t-42 260z M436 575q0 -94 21.5 -156.5t58.5 -100t88 -53t111 -15.5q68 0 131 21.5t116.5 75.5t92.5 144.5t57 225.5q6 41 8 75.5t2 65.5q0 94 -21.5 156.5t-58 100.5t-88 54.5t-108.5 16.5q-70 0 -133.5 -22.5t-116.5 -76t-92 -144.5t-58 -226q-6 -41 -8 -76t-2 -66zM570 1606l379 309 l290 -299l-94 -129l-231 180q-27 -16 -51.5 -31.5t-53.5 -31.5l-178 -115z" />
<glyph unicode="&#xd5;" horiz-adv-x="1357" d="M129 530q0 43 3 89.5t11 97.5q29 207 98.5 350t168 231t220.5 127t255 39q113 0 212 -29.5t172.5 -97t117 -175t43.5 -263.5q0 -41 -4.5 -87t-10.5 -95q-29 -207 -99.5 -349.5t-169.5 -230.5t-220 -127t-250 -39q-117 0 -217.5 30t-173 96.5t-114.5 172.5t-42 260z M436 575q0 -94 21.5 -156.5t58.5 -100t88 -53t111 -15.5q68 0 131 21.5t116.5 75.5t92.5 144.5t57 225.5q6 41 8 75.5t2 65.5q0 94 -21.5 156.5t-58 100.5t-88 54.5t-108.5 16.5q-70 0 -133.5 -22.5t-116.5 -76t-92 -144.5t-58 -226q-6 -41 -8 -76t-2 -66zM551 1661l61 33 q35 18 83 41.5t108 23.5q45 0 75.5 -12t55 -25.5t47.5 -25.5t53 -12q35 0 64.5 16t64.5 35l60 33l37 -183q-37 -12 -66 -26.5t-56.5 -27.5t-59 -22.5t-70.5 -9.5q-41 0 -70 12.5t-53.5 27t-49 26.5t-57.5 12q-14 0 -37.5 -10t-50 -25.5t-52.5 -34t-42 -32.5z" />
<glyph unicode="&#xd6;" horiz-adv-x="1357" d="M129 530q0 43 3 89.5t11 97.5q29 207 98.5 350t168 231t220.5 127t255 39q113 0 212 -29.5t172.5 -97t117 -175t43.5 -263.5q0 -41 -4.5 -87t-10.5 -95q-29 -207 -99.5 -349.5t-169.5 -230.5t-220 -127t-250 -39q-117 0 -217.5 30t-173 96.5t-114.5 172.5t-42 260z M436 575q0 -94 21.5 -156.5t58.5 -100t88 -53t111 -15.5q68 0 131 21.5t116.5 75.5t92.5 144.5t57 225.5q6 41 8 75.5t2 65.5q0 94 -21.5 156.5t-58 100.5t-88 54.5t-108.5 16.5q-70 0 -133.5 -22.5t-116.5 -76t-92 -144.5t-58 -226q-6 -41 -8 -76t-2 -66zM615 1520l34 258 h248l-35 -258h-247zM920 1520l35 258h247l-34 -258h-248z" />
<glyph unicode="&#xd7;" horiz-adv-x="980" d="M141 350l297 268l-223 267l182 176l201 -289l92 94q47 47 96.5 97.5t92.5 97.5l135 -176l-299 -267l225 -268l-184 -174l-201 287q-66 -70 -140.5 -143.5t-140.5 -143.5z" />
<glyph unicode="&#xd8;" horiz-adv-x="1357" d="M129 530q0 43 3 89.5t11 97.5q29 207 98.5 350t168 231t220.5 127t255 39q66 0 130 -10t118 -33l61 92h221l-129 -192h-2q68 -72 105.5 -174.5t37.5 -249.5q0 -82 -12 -180q-29 -207 -99.5 -349.5t-169.5 -230.5t-220 -127t-250 -39q-72 0 -134.5 10.5t-121.5 26.5 q-25 -35 -55 -88h-222l125 193h2q-66 66 -103.5 168t-37.5 249zM436 575q0 -108 25 -176q127 193 252 382.5t250 381.5h6q-57 23 -123 23q-70 0 -133.5 -22.5t-116.5 -76t-92 -144.5t-58 -226q-6 -39 -8 -74t-2 -68zM588 270q27 -10 59.5 -15t67.5 -5q68 0 131 21.5 t116.5 75.5t92.5 144.5t57 225.5q4 39 7 73.5t3 65.5q0 55 -7 99t-19 79l-502 -764h-6z" />
<glyph unicode="&#xd9;" horiz-adv-x="1357" d="M152 451q0 68 12 147l117 836h303l-117 -836q-4 -27 -6 -49.5t-2 -44.5q0 -72 19.5 -121t54 -79t80.5 -42t102 -12q59 0 115.5 17.5t102.5 57.5t78.5 106.5t47.5 166.5l117 836h305l-117 -836q-25 -178 -90.5 -298t-158.5 -193.5t-205.5 -104.5t-233.5 -31 q-111 0 -207 24.5t-167 80t-110.5 148t-39.5 227.5zM694 1749l137 166l295 -311l-92 -115z" />
<glyph unicode="&#xda;" horiz-adv-x="1357" d="M152 451q0 68 12 147l117 836h303l-117 -836q-4 -27 -6 -49.5t-2 -44.5q0 -72 19.5 -121t54 -79t80.5 -42t102 -12q59 0 115.5 17.5t102.5 57.5t78.5 106.5t47.5 166.5l117 836h305l-117 -836q-25 -178 -90.5 -298t-158.5 -193.5t-205.5 -104.5t-233.5 -31 q-111 0 -207 24.5t-167 80t-110.5 148t-39.5 227.5zM674 1604l385 311l88 -166l-410 -260z" />
<glyph unicode="&#xdb;" horiz-adv-x="1357" d="M152 451q0 68 12 147l117 836h303l-117 -836q-4 -27 -6 -49.5t-2 -44.5q0 -72 19.5 -121t54 -79t80.5 -42t102 -12q59 0 115.5 17.5t102.5 57.5t78.5 106.5t47.5 166.5l117 836h305l-117 -836q-25 -178 -90.5 -298t-158.5 -193.5t-205.5 -104.5t-233.5 -31 q-111 0 -207 24.5t-167 80t-110.5 148t-39.5 227.5zM570 1606l379 309l290 -299l-94 -129l-231 180q-27 -16 -51.5 -31.5t-53.5 -31.5l-178 -115z" />
<glyph unicode="&#xdc;" horiz-adv-x="1357" d="M152 451q0 68 12 147l117 836h303l-117 -836q-4 -27 -6 -49.5t-2 -44.5q0 -72 19.5 -121t54 -79t80.5 -42t102 -12q59 0 115.5 17.5t102.5 57.5t78.5 106.5t47.5 166.5l117 836h305l-117 -836q-25 -178 -90.5 -298t-158.5 -193.5t-205.5 -104.5t-233.5 -31 q-111 0 -207 24.5t-167 80t-110.5 148t-39.5 227.5zM615 1520l34 258h248l-35 -258h-247zM920 1520l35 258h247l-34 -258h-248z" />
<glyph unicode="&#xdd;" horiz-adv-x="1216" d="M160 1434h360l215 -508q47 68 95.5 135t99.5 137h-2l166 236h364l-616 -830h2l-84 -604h-303l84 604h2zM604 1604l385 311l88 -166l-410 -260z" />
<glyph unicode="&#xde;" horiz-adv-x="1341" d="M98 0l201 1434h303l-33 -238h449q82 0 152.5 -19.5t123 -64.5t82 -115.5t29.5 -171.5q0 -27 -2 -53.5t-6 -54.5q-18 -137 -67.5 -229.5t-118 -147.5t-152.5 -77.5t-176 -22.5h-449l-33 -240h-303zM473 518h449q31 0 61.5 12.5t56 42t42 77.5t16.5 122q0 78 -35 110.5 t-86 32.5h-449z" />
<glyph unicode="&#xdf;" horiz-adv-x="1187" d="M98 0l127 915q18 137 74.5 238.5t133.5 168.5t168 99.5t179 32.5q68 0 130.5 -20.5t110.5 -61.5t76.5 -100.5t28.5 -134.5q0 -90 -48 -195.5t-140 -198.5h-4q61 -18 106 -51t75 -75t44.5 -92t14.5 -101q0 -76 -31 -151.5t-89.5 -136t-146.5 -98.5t-200 -38h-179l39 279 h178q25 0 50.5 7t47 22.5t35 42t13.5 65.5t-20.5 63.5t-52.5 40t-68.5 26.5t-68.5 26.5t-52.5 40t-20.5 65.5q0 53 37 104.5t80 100.5t80 98t37 96t-29 74t-65 27q-33 0 -68 -16.5t-65.5 -49.5t-54 -82t-32.5 -115l-127 -915h-303z" />
<glyph unicode="&#xe0;" horiz-adv-x="1161" d="M90 301q0 139 36 232.5t94.5 148.5t131 78.5t146.5 23.5h424q-14 98 -66.5 142.5t-122.5 44.5h-483l37 264h514q88 0 163.5 -24.5t132 -79t88.5 -141.5t32 -212q0 -74 -13 -160q-25 -172 -80 -289.5t-132 -191.5t-170 -105.5t-193 -31.5h-240q-63 0 -118.5 16.5t-95.5 51 t-62.5 92t-22.5 141.5zM379 365q0 -53 27.5 -76t66.5 -23h162q82 0 154.5 60.5t109.5 195.5h-391q-43 0 -80 -28.5t-47 -100.5q-2 -8 -2 -15v-13zM569 1544l137 166l295 -311l-92 -115z" />
<glyph unicode="&#xe1;" horiz-adv-x="1161" d="M90 301q0 139 36 232.5t94.5 148.5t131 78.5t146.5 23.5h424q-14 98 -66.5 142.5t-122.5 44.5h-483l37 264h514q88 0 163.5 -24.5t132 -79t88.5 -141.5t32 -212q0 -74 -13 -160q-25 -172 -80 -289.5t-132 -191.5t-170 -105.5t-193 -31.5h-240q-63 0 -118.5 16.5t-95.5 51 t-62.5 92t-22.5 141.5zM379 365q0 -53 27.5 -76t66.5 -23h162q82 0 154.5 60.5t109.5 195.5h-391q-43 0 -80 -28.5t-47 -100.5q-2 -8 -2 -15v-13zM549 1399l385 311l88 -166l-410 -260z" />
<glyph unicode="&#xe2;" horiz-adv-x="1161" d="M90 301q0 139 36 232.5t94.5 148.5t131 78.5t146.5 23.5h424q-14 98 -66.5 142.5t-122.5 44.5h-483l37 264h514q88 0 163.5 -24.5t132 -79t88.5 -141.5t32 -212q0 -74 -13 -160q-25 -172 -80 -289.5t-132 -191.5t-170 -105.5t-193 -31.5h-240q-63 0 -118.5 16.5t-95.5 51 t-62.5 92t-22.5 141.5zM379 365q0 -53 27.5 -76t66.5 -23h162q82 0 154.5 60.5t109.5 195.5h-391q-43 0 -80 -28.5t-47 -100.5q-2 -8 -2 -15v-13zM443 1401l379 309l290 -299l-94 -129l-231 180q-27 -16 -51.5 -31.5t-53.5 -31.5l-178 -115z" />
<glyph unicode="&#xe3;" horiz-adv-x="1161" d="M90 301q0 139 36 232.5t94.5 148.5t131 78.5t146.5 23.5h424q-14 98 -66.5 142.5t-122.5 44.5h-483l37 264h514q88 0 163.5 -24.5t132 -79t88.5 -141.5t32 -212q0 -74 -13 -160q-25 -172 -80 -289.5t-132 -191.5t-170 -105.5t-193 -31.5h-240q-63 0 -118.5 16.5t-95.5 51 t-62.5 92t-22.5 141.5zM379 365q0 -53 27.5 -76t66.5 -23h162q82 0 154.5 60.5t109.5 195.5h-391q-43 0 -80 -28.5t-47 -100.5q-2 -8 -2 -15v-13zM422 1456l61 33q35 18 83 41.5t108 23.5q45 0 75.5 -12t55 -25.5t47.5 -25.5t53 -12q35 0 64.5 16t64.5 35l60 33l37 -183 q-37 -12 -66 -26.5t-56.5 -27.5t-59 -22.5t-70.5 -9.5q-41 0 -70 12.5t-53.5 27t-49 26.5t-57.5 12q-14 0 -37.5 -10t-50 -25.5t-52.5 -34t-42 -32.5z" />
<glyph unicode="&#xe4;" horiz-adv-x="1161" d="M90 301q0 139 36 232.5t94.5 148.5t131 78.5t146.5 23.5h424q-14 98 -66.5 142.5t-122.5 44.5h-483l37 264h514q88 0 163.5 -24.5t132 -79t88.5 -141.5t32 -212q0 -74 -13 -160q-25 -172 -80 -289.5t-132 -191.5t-170 -105.5t-193 -31.5h-240q-63 0 -118.5 16.5t-95.5 51 t-62.5 92t-22.5 141.5zM379 365q0 -53 27.5 -76t66.5 -23h162q82 0 154.5 60.5t109.5 195.5h-391q-43 0 -80 -28.5t-47 -100.5q-2 -8 -2 -15v-13zM488 1315l34 258h248l-35 -258h-247zM793 1315l35 258h247l-34 -258h-248z" />
<glyph unicode="&#xe5;" horiz-adv-x="1161" d="M90 301q0 139 36 232.5t94.5 148.5t131 78.5t146.5 23.5h424q-14 98 -66.5 142.5t-122.5 44.5h-483l37 264h514q88 0 163.5 -24.5t132 -79t88.5 -141.5t32 -212q0 -74 -13 -160q-25 -172 -80 -289.5t-132 -191.5t-170 -105.5t-193 -31.5h-240q-63 0 -118.5 16.5t-95.5 51 t-62.5 92t-22.5 141.5zM379 365q0 -53 27.5 -76t66.5 -23h162q82 0 154.5 60.5t109.5 195.5h-391q-43 0 -80 -28.5t-47 -100.5q-2 -8 -2 -15v-13zM557 1497q0 10 1 18.5t3 18.5q6 51 32 96t61.5 79t80.5 53.5t93 19.5q43 0 79.5 -16.5t63.5 -45t42 -67.5t15 -84 q0 -55 -23.5 -107.5t-61.5 -91.5t-87 -62.5t-98 -23.5q-86 0 -143.5 61.5t-57.5 151.5zM717 1518q0 -33 17 -53.5t46 -20.5q33 0 59.5 31.5t26.5 72.5q0 31 -16 53.5t-45 22.5q-31 0 -56.5 -26.5t-29.5 -63.5q-2 -6 -2 -16z" />
<glyph unicode="&#xe6;" horiz-adv-x="1949" d="M90 301q0 139 36 232.5t94.5 148.5t131 78.5t146.5 23.5h424q-14 98 -66.5 142.5t-122.5 44.5h-483l37 264h514q106 0 189 -37t134 -133q72 86 169.5 128t199.5 42h240q63 0 117.5 -16.5t94.5 -51t62.5 -91t22.5 -138.5q0 -139 -36 -233.5t-93.5 -150.5t-131 -79.5 t-147.5 -23.5h-424q12 -104 65.5 -144.5t125.5 -40.5h483l-37 -266h-514q-104 0 -189 40t-135 132q-76 -92 -170 -132t-198 -40h-240q-63 0 -118.5 16.5t-95.5 51t-62.5 92t-22.5 141.5zM379 365q0 -53 27.5 -76t66.5 -23h162q82 0 154.5 60.5t109.5 195.5h-391 q-45 0 -87 -34.5t-42 -122.5zM1219 713h393q23 0 45 8t40.5 26.5t30 50t11.5 79.5q0 51 -26.5 72.5t-63.5 21.5h-162q-82 0 -154.5 -60.5t-113.5 -197.5z" />
<glyph unicode="&#xe7;" horiz-adv-x="1036" d="M117 457q0 72 12 161q25 172 79 290t131 190.5t170 104.5t196 32h425l-36 -264h-396q-49 0 -94 -16.5t-82 -57.5t-65.5 -108.5t-42.5 -170.5q-4 -33 -6 -60.5t-2 -51.5q0 -70 15 -116t40.5 -73.5t61.5 -39t77 -11.5h395l-37 -266h-333l-11 -39q100 -4 135 -45t35 -92 q0 -61 -25.5 -105.5t-67.5 -73t-95 -42t-107 -13.5q-119 0 -204 62l20 145l60 -20q33 -10 69.5 -21.5t73.5 -11.5q25 0 56.5 14.5t31.5 55.5q0 23 -14.5 29.5t-32.5 6.5q-29 0 -60.5 -8t-52.5 -14l-26 -4l53 178h8q-78 8 -142.5 37t-111.5 84t-73.5 137t-26.5 197z" />
<glyph unicode="&#xe8;" horiz-adv-x="1054" d="M117 455q0 74 12 163q25 172 79 290t131 190.5t170 104.5t196 32h239q63 0 117.5 -16.5t94.5 -51t62.5 -91t22.5 -138.5q0 -139 -36 -233.5t-93 -150.5t-131 -79.5t-147 -23.5h-426q14 -104 67 -144.5t125 -40.5h483l-36 -266h-515q-88 0 -163.5 24.5t-132 78t-88 140.5 t-31.5 212zM430 713h393q23 0 45.5 8t41 26.5t29.5 50t11 79.5q0 51 -26.5 72.5t-63.5 21.5h-162q-82 0 -154.5 -60.5t-113.5 -197.5zM516 1544l137 166l295 -311l-92 -115z" />
<glyph unicode="&#xe9;" horiz-adv-x="1054" d="M117 455q0 74 12 163q25 172 79 290t131 190.5t170 104.5t196 32h239q63 0 117.5 -16.5t94.5 -51t62.5 -91t22.5 -138.5q0 -139 -36 -233.5t-93 -150.5t-131 -79.5t-147 -23.5h-426q14 -104 67 -144.5t125 -40.5h483l-36 -266h-515q-88 0 -163.5 24.5t-132 78t-88 140.5 t-31.5 212zM430 713h393q23 0 45.5 8t41 26.5t29.5 50t11 79.5q0 51 -26.5 72.5t-63.5 21.5h-162q-82 0 -154.5 -60.5t-113.5 -197.5zM496 1399l385 311l88 -166l-410 -260z" />
<glyph unicode="&#xea;" horiz-adv-x="1054" d="M117 455q0 74 12 163q25 172 79 290t131 190.5t170 104.5t196 32h239q63 0 117.5 -16.5t94.5 -51t62.5 -91t22.5 -138.5q0 -139 -36 -233.5t-93 -150.5t-131 -79.5t-147 -23.5h-426q14 -104 67 -144.5t125 -40.5h483l-36 -266h-515q-88 0 -163.5 24.5t-132 78t-88 140.5 t-31.5 212zM389 1401l379 309l290 -299l-94 -129l-231 180q-27 -16 -51.5 -31.5t-53.5 -31.5l-178 -115zM430 713h393q23 0 45.5 8t41 26.5t29.5 50t11 79.5q0 51 -26.5 72.5t-63.5 21.5h-162q-82 0 -154.5 -60.5t-113.5 -197.5z" />
<glyph unicode="&#xeb;" horiz-adv-x="1054" d="M117 455q0 74 12 163q25 172 79 290t131 190.5t170 104.5t196 32h239q63 0 117.5 -16.5t94.5 -51t62.5 -91t22.5 -138.5q0 -139 -36 -233.5t-93 -150.5t-131 -79.5t-147 -23.5h-426q14 -104 67 -144.5t125 -40.5h483l-36 -266h-515q-88 0 -163.5 24.5t-132 78t-88 140.5 t-31.5 212zM430 713h393q23 0 45.5 8t41 26.5t29.5 50t11 79.5q0 51 -26.5 72.5t-63.5 21.5h-162q-82 0 -154.5 -60.5t-113.5 -197.5zM437 1315l34 258h248l-35 -258h-247zM742 1315l35 258h247l-34 -258h-248z" />
<glyph unicode="&#xec;" horiz-adv-x="481" d="M98 0l172 1235h285l-172 -1235h-285zM233 1544l137 166l295 -311l-92 -115z" />
<glyph unicode="&#xed;" horiz-adv-x="481" d="M98 0l172 1235h285l-172 -1235h-285zM213 1399l385 311l88 -166l-410 -260z" />
<glyph unicode="&#xee;" horiz-adv-x="481" d="M98 0l172 1235h285l-172 -1235h-285zM107 1401l379 309l290 -299l-94 -129l-231 180q-27 -16 -51.5 -31.5t-53.5 -31.5l-178 -115z" />
<glyph unicode="&#xef;" horiz-adv-x="481" d="M98 0l172 1235h285l-172 -1235h-285zM152 1315l34 258h248l-35 -258h-247zM457 1315l35 258h247l-34 -258h-248z" />
<glyph unicode="&#xf0;" d="M117 455q0 74 12 163q25 172 79 290t131 190.5t170 104.5t196 32h264v12q0 66 -43 93.5t-103 27.5h-286l-19 -133h-231l57 397h586q70 0 130 -17.5t104 -55t70 -99t26 -149.5q0 -45 -7 -97l-170 -1214h-551q-88 0 -163.5 24.5t-132 78t-88 140.5t-31.5 212zM406 506 q0 -70 15 -116t40.5 -73.5t61.5 -39t77 -11.5h234l98 705h-234q-49 0 -94 -16.5t-82 -57.5t-65.5 -108.5t-42.5 -170.5q-4 -33 -6 -60t-2 -52z" />
<glyph unicode="&#xf1;" d="M98 0l172 1235h514q90 0 169 -19.5t136.5 -63.5t90 -115.5t32.5 -174.5q0 -47 -6 -98l-106 -764h-287l107 764q2 10 2 19.5v19.5q0 92 -59.5 130t-147.5 38h-197l-135 -971h-285zM432 1456l61 33q35 18 83 41.5t108 23.5q45 0 75.5 -12t55 -25.5t47.5 -25.5t53 -12 q35 0 64.5 16t64.5 35l60 33l37 -183q-37 -12 -66 -26.5t-56.5 -27.5t-59 -22.5t-70.5 -9.5q-41 0 -70 12.5t-53.5 27t-49 26.5t-57.5 12q-14 0 -37.5 -10t-50 -25.5t-52.5 -34t-42 -32.5z" />
<glyph unicode="&#xf2;" horiz-adv-x="1187" d="M117 457q0 76 12 161q25 178 85 301t146 200t190.5 112t219.5 35q98 0 184 -27t150.5 -85t101.5 -151.5t37 -228.5q0 -74 -12 -156q-25 -178 -87.5 -301.5t-148.5 -200.5t-190.5 -111t-214.5 -34q-100 0 -187.5 26t-151 84t-99 150.5t-35.5 225.5zM406 502q0 -76 16 -127 t46 -82t71 -44t88 -13q55 0 105 18t92 63t73 118t47 183q4 33 6 62t2 55q0 76 -17 126t-46 81t-70 44t-86 13q-55 0 -106.5 -18t-93 -62.5t-73.5 -117t-46 -183.5q-4 -33 -6 -61t-2 -55zM581 1544l137 166l295 -311l-92 -115z" />
<glyph unicode="&#xf3;" horiz-adv-x="1187" d="M117 457q0 76 12 161q25 178 85 301t146 200t190.5 112t219.5 35q98 0 184 -27t150.5 -85t101.5 -151.5t37 -228.5q0 -74 -12 -156q-25 -178 -87.5 -301.5t-148.5 -200.5t-190.5 -111t-214.5 -34q-100 0 -187.5 26t-151 84t-99 150.5t-35.5 225.5zM406 502q0 -76 16 -127 t46 -82t71 -44t88 -13q55 0 105 18t92 63t73 118t47 183q4 33 6 62t2 55q0 76 -17 126t-46 81t-70 44t-86 13q-55 0 -106.5 -18t-93 -62.5t-73.5 -117t-46 -183.5q-4 -33 -6 -61t-2 -55zM561 1399l385 311l88 -166l-410 -260z" />
<glyph unicode="&#xf4;" horiz-adv-x="1187" d="M117 457q0 76 12 161q25 178 85 301t146 200t190.5 112t219.5 35q98 0 184 -27t150.5 -85t101.5 -151.5t37 -228.5q0 -74 -12 -156q-25 -178 -87.5 -301.5t-148.5 -200.5t-190.5 -111t-214.5 -34q-100 0 -187.5 26t-151 84t-99 150.5t-35.5 225.5zM406 502q0 -76 16 -127 t46 -82t71 -44t88 -13q55 0 105 18t92 63t73 118t47 183q4 33 6 62t2 55q0 76 -17 126t-46 81t-70 44t-86 13q-55 0 -106.5 -18t-93 -62.5t-73.5 -117t-46 -183.5q-4 -33 -6 -61t-2 -55zM457 1401l379 309l290 -299l-94 -129l-231 180q-27 -16 -51.5 -31.5t-53.5 -31.5 l-178 -115z" />
<glyph unicode="&#xf5;" horiz-adv-x="1187" d="M117 457q0 76 12 161q25 178 85 301t146 200t190.5 112t219.5 35q98 0 184 -27t150.5 -85t101.5 -151.5t37 -228.5q0 -74 -12 -156q-25 -178 -87.5 -301.5t-148.5 -200.5t-190.5 -111t-214.5 -34q-100 0 -187.5 26t-151 84t-99 150.5t-35.5 225.5zM406 502q0 -76 16 -127 t46 -82t71 -44t88 -13q55 0 105 18t92 63t73 118t47 183q4 33 6 62t2 55q0 76 -17 126t-46 81t-70 44t-86 13q-55 0 -106.5 -18t-93 -62.5t-73.5 -117t-46 -183.5q-4 -33 -6 -61t-2 -55zM436 1456l61 33q35 18 83 41.5t108 23.5q45 0 75.5 -12t55 -25.5t47.5 -25.5t53 -12 q35 0 64.5 16t64.5 35l60 33l37 -183q-37 -12 -66 -26.5t-56.5 -27.5t-59 -22.5t-70.5 -9.5q-41 0 -70 12.5t-53.5 27t-49 26.5t-57.5 12q-14 0 -37.5 -10t-50 -25.5t-52.5 -34t-42 -32.5z" />
<glyph unicode="&#xf6;" horiz-adv-x="1187" d="M117 457q0 76 12 161q25 178 85 301t146 200t190.5 112t219.5 35q98 0 184 -27t150.5 -85t101.5 -151.5t37 -228.5q0 -74 -12 -156q-25 -178 -87.5 -301.5t-148.5 -200.5t-190.5 -111t-214.5 -34q-100 0 -187.5 26t-151 84t-99 150.5t-35.5 225.5zM406 502q0 -76 16 -127 t46 -82t71 -44t88 -13q55 0 105 18t92 63t73 118t47 183q4 33 6 62t2 55q0 76 -17 126t-46 81t-70 44t-86 13q-55 0 -106.5 -18t-93 -62.5t-73.5 -117t-46 -183.5q-4 -33 -6 -61t-2 -55zM502 1315l34 258h248l-35 -258h-247zM807 1315l35 258h247l-34 -258h-248z" />
<glyph unicode="&#xf7;" horiz-adv-x="1107" d="M168 498l33 239h911l-33 -239h-911zM438 80l37 260h250l-37 -260h-250zM553 897l37 258h250l-37 -258h-250z" />
<glyph unicode="&#xf8;" horiz-adv-x="1187" d="M117 461q0 72 12 157q25 178 85 301t146 200t190.5 112t219.5 35q53 0 101.5 -7.5t93.5 -23.5q10 16 23 39.5t26 40.5h200l-102 -166h-2q59 -59 95 -153.5t36 -227.5q0 -35 -2 -72t-8 -78q-25 -178 -87.5 -301.5t-148.5 -200.5t-190.5 -111t-214.5 -34q-111 0 -197 27 l-47 -78h-201l101 164h2q-59 59 -95 152.5t-36 224.5zM406 508q0 -41 5 -77t15 -64l219 358q41 66 82 131.5t82 132.5h6q-20 6 -39.5 8t-42.5 2q-55 0 -106.5 -18t-93 -62.5t-73.5 -117t-46 -183.5q-4 -29 -6 -56t-2 -54zM539 246q23 -6 44 -8t44 -2q55 0 105 18t92 63 t73 118t47 183q4 29 6 56.5t2 52.5q0 76 -16 135l-391 -616h-6z" />
<glyph unicode="&#xf9;" d="M137 373q0 23 2 48t6 52l107 762h285l-107 -762q-2 -10 -3 -20.5t-1 -20.5q0 -94 61.5 -130t147.5 -36h199l135 969h286l-172 -1235h-516q-90 0 -169 19.5t-137 63.5t-91 116t-33 174zM577 1544l137 166l295 -311l-92 -115z" />
<glyph unicode="&#xfa;" d="M137 373q0 23 2 48t6 52l107 762h285l-107 -762q-2 -10 -3 -20.5t-1 -20.5q0 -94 61.5 -130t147.5 -36h199l135 969h286l-172 -1235h-516q-90 0 -169 19.5t-137 63.5t-91 116t-33 174zM557 1399l385 311l88 -166l-410 -260z" />
<glyph unicode="&#xfb;" d="M137 373q0 23 2 48t6 52l107 762h285l-107 -762q-2 -10 -3 -20.5t-1 -20.5q0 -94 61.5 -130t147.5 -36h199l135 969h286l-172 -1235h-516q-90 0 -169 19.5t-137 63.5t-91 116t-33 174zM451 1401l379 309l290 -299l-94 -129l-231 180q-27 -16 -51.5 -31.5t-53.5 -31.5 l-178 -115z" />
<glyph unicode="&#xfc;" d="M137 373q0 23 2 48t6 52l107 762h285l-107 -762q-2 -10 -3 -20.5t-1 -20.5q0 -94 61.5 -130t147.5 -36h199l135 969h286l-172 -1235h-516q-90 0 -169 19.5t-137 63.5t-91 116t-33 174zM496 1315l34 258h248l-35 -258h-247zM801 1315l35 258h247l-34 -258h-248z" />
<glyph unicode="&#xfd;" d="M94 -397l37 264h481q63 0 115.5 30.5t69.5 102.5h-265q-90 0 -162.5 18.5t-124.5 61.5t-80 111.5t-28 166.5q0 27 2 55.5t6 59.5l107 762h285l-107 -762q-4 -16 -4 -29.5v-25.5q0 -86 45 -119t129 -33h234l135 969h286l-170 -1215q-16 -117 -57 -196.5t-100.5 -128.5 t-132 -70.5t-152.5 -21.5h-549zM557 1399l385 311l88 -166l-410 -260z" />
<glyph unicode="&#xfe;" d="M55 -299l258 1833h285l-43 -299h264q88 0 164 -24.5t132 -80t88 -142.5t32 -212q0 -72 -12 -158q-25 -176 -80.5 -294.5t-132 -190.5t-169.5 -102.5t-194 -30.5h-264l-43 -299h-285zM420 266h233q47 0 92.5 16.5t82 56.5t65.5 108.5t43 170.5q4 29 6 54.5t2 48.5 q0 133 -55 191.5t-137 58.5h-234z" />
<glyph unicode="&#xff;" d="M94 -397l37 264h481q63 0 115.5 30.5t69.5 102.5h-265q-90 0 -162.5 18.5t-124.5 61.5t-80 111.5t-28 166.5q0 27 2 55.5t6 59.5l107 762h285l-107 -762q-4 -16 -4 -29.5v-25.5q0 -86 45 -119t129 -33h234l135 969h286l-170 -1215q-16 -117 -57 -196.5t-100.5 -128.5 t-132 -70.5t-152.5 -21.5h-549zM496 1315l34 258h248l-35 -258h-247zM801 1315l35 258h247l-34 -258h-248z" />
<glyph unicode="&#x152;" horiz-adv-x="2164" d="M129 530q0 43 3 89.5t11 97.5q29 207 98.5 350t168 231t220.5 127t255 39q145 0 263 -62.5t183 -184.5q90 121 203 169t242 48h491l-39 -279h-456q-51 0 -100.5 -15.5t-92.5 -50t-78 -92t-59 -141.5h743l-39 -278h-743q0 -84 19.5 -141.5t52 -92.5t77.5 -50t97 -15h456 l-39 -279h-491q-129 0 -228.5 49t-156.5 166q-98 -123 -233.5 -183.5t-280.5 -60.5q-117 0 -217.5 30t-173 96.5t-114.5 172.5t-42 260zM436 575q0 -94 21.5 -156.5t58.5 -100t88 -53t111 -15.5q68 0 131 21.5t116.5 75.5t92.5 144.5t57 225.5q6 41 8 75.5t2 65.5 q0 94 -21.5 156.5t-58 100.5t-88 54.5t-108.5 16.5q-70 0 -133.5 -22.5t-116.5 -76t-92 -144.5t-58 -226q-6 -41 -8 -76t-2 -66z" />
<glyph unicode="&#x153;" horiz-adv-x="1976" d="M117 457q0 76 12 161q25 178 85 301t146 200t190.5 112t219.5 35q123 0 222.5 -48.5t158.5 -152.5q72 92 167 131t200 39h241q63 0 116.5 -16.5t93.5 -51t62.5 -91t22.5 -138.5q0 -139 -36 -233.5t-93 -150.5t-130 -79.5t-146 -23.5h-428q14 -104 67 -144.5t125 -40.5 h483l-36 -266h-514q-104 0 -189.5 40t-132.5 132q-86 -102 -198.5 -151.5t-235.5 -49.5q-100 0 -187.5 26t-151 84t-99 150.5t-35.5 225.5zM406 502q0 -76 16 -127t46 -82t71 -44t88 -13q55 0 105 18t92 63t73 118t47 183q4 33 6 62t2 55q0 76 -17 126t-46 81t-70 44t-86 13 q-55 0 -106.5 -18t-93 -62.5t-73.5 -117t-46 -183.5q-4 -33 -6 -61t-2 -55zM1245 713h389q23 0 46.5 8t42 26.5t30.5 49t12 77.5q0 53 -27.5 75t-66.5 22h-160q-82 0 -153.5 -60.5t-112.5 -197.5z" />
<glyph unicode="&#x178;" horiz-adv-x="1216" d="M160 1434h360l215 -508q47 68 95.5 135t99.5 137h-2l166 236h364l-616 -830h2l-84 -604h-303l84 604h2zM543 1520l34 258h248l-35 -258h-247zM848 1520l35 258h247l-34 -258h-248z" />
<glyph unicode="&#x2c6;" horiz-adv-x="851" d="M289 1401l379 309l290 -299l-94 -129l-231 180q-27 -16 -51.5 -31.5t-53.5 -31.5l-178 -115z" />
<glyph unicode="&#x2dc;" horiz-adv-x="903" d="M295 1456l61 33q35 18 83 41.5t108 23.5q45 0 75.5 -12t55 -25.5t47.5 -25.5t53 -12q35 0 64.5 16t64.5 35l60 33l37 -183q-37 -12 -66 -26.5t-56.5 -27.5t-59 -22.5t-70.5 -9.5q-41 0 -70 12.5t-53.5 27t-49 26.5t-57.5 12q-14 0 -37.5 -10t-50 -25.5t-52.5 -34 t-42 -32.5z" />
<glyph unicode="&#x2000;" horiz-adv-x="993" />
<glyph unicode="&#x2001;" horiz-adv-x="1987" />
<glyph unicode="&#x2002;" horiz-adv-x="993" />
<glyph unicode="&#x2003;" horiz-adv-x="1987" />
<glyph unicode="&#x2004;" horiz-adv-x="662" />
<glyph unicode="&#x2005;" horiz-adv-x="496" />
<glyph unicode="&#x2006;" horiz-adv-x="331" />
<glyph unicode="&#x2007;" horiz-adv-x="331" />
<glyph unicode="&#x2008;" horiz-adv-x="248" />
<glyph unicode="&#x2009;" horiz-adv-x="397" />
<glyph unicode="&#x200a;" horiz-adv-x="110" />
<glyph unicode="&#x2010;" horiz-adv-x="964" d="M166 487l37 261h768l-37 -261h-768z" />
<glyph unicode="&#x2011;" horiz-adv-x="964" d="M166 487l37 261h768l-37 -261h-768z" />
<glyph unicode="&#x2012;" horiz-adv-x="964" d="M166 487l37 261h768l-37 -261h-768z" />
<glyph unicode="&#x2013;" horiz-adv-x="835" d="M203 487v261h637v-261h-637z" />
<glyph unicode="&#x2014;" horiz-adv-x="1830" d="M203 487v261h1632v-261h-1632z" />
<glyph unicode="&#x2018;" horiz-adv-x="499" d="M207 797l162 737h192l-49 -737h-305z" />
<glyph unicode="&#x2019;" horiz-adv-x="499" d="M264 797l47 737h305l-159 -737h-193z" />
<glyph unicode="&#x201a;" horiz-adv-x="499" d="M125 -199l45 738h305l-158 -738h-192z" />
<glyph unicode="&#x201c;" horiz-adv-x="821" d="M207 797l162 737h192l-49 -737h-305zM530 797l162 737h191l-47 -737h-306z" />
<glyph unicode="&#x201d;" horiz-adv-x="821" d="M264 797l47 737h305l-159 -737h-193zM588 797l47 737h305l-162 -737h-190z" />
<glyph unicode="&#x201e;" horiz-adv-x="821" d="M125 -199l45 738h305l-158 -738h-192zM449 -199l45 738h305l-160 -738h-190z" />
<glyph unicode="&#x2022;" horiz-adv-x="995" d="M203 717q0 82 30.5 154.5t85 127t126 86t155.5 31.5q82 0 153.5 -31.5t126 -86t86 -127t31.5 -154.5q0 -84 -31.5 -156t-86 -126t-126 -85t-153.5 -31q-84 0 -155.5 31t-126 85t-85 126t-30.5 156z" />
<glyph unicode="&#x2026;" horiz-adv-x="1357" d="M98 0l43 319h303l-43 -319h-303zM528 0l43 319h301l-43 -319h-301zM956 0l43 319h306l-43 -319h-306z" />
<glyph unicode="&#x202f;" horiz-adv-x="397" />
<glyph unicode="&#x2039;" horiz-adv-x="688" d="M180 618l385 588l180 -129l-317 -459l94 -231q23 -59 46.5 -117.5t47.5 -113.5l-215 -125z" />
<glyph unicode="&#x203a;" horiz-adv-x="688" d="M113 156l323 462q-49 111 -99 230t-95 229l217 129l221 -588l-385 -587z" />
<glyph unicode="&#x205f;" horiz-adv-x="496" />
<glyph unicode="&#x20ac;" horiz-adv-x="1394" d="M102 487l95 181h135l8 49l2 39q4 8 4 12h-205l95 178h155q45 125 110.5 217t145.5 151.5t171 89.5t188 30h491l-39 -279h-457q-86 0 -164.5 -48t-134.5 -161h574l-94 -178h-531l-10 -70l-2 -30h508l-94 -181h-414q23 -119 88.5 -163.5t151.5 -44.5h456l-39 -279h-491 q-96 0 -179 29.5t-145.5 89t-103.5 151.5t-49 217h-226z" />
<glyph unicode="&#x2122;" horiz-adv-x="2000" d="M203 1251v183h803v-183h-297v-694h-209v694h-297zM1034 557v877h273l211 -582q53 145 107 292.5t106 289.5h272v-877h-203v496l-178 -496h-207l-174 490v-490h-207z" />
<glyph unicode="&#x25fc;" horiz-adv-x="1239" d="M0 0v1239h1239v-1239h-1239z" />
<glyph unicode="&#xfb01;" horiz-adv-x="1269" d="M178 971l37 264h180l13 80q14 88 49 149.5t86 98t115.5 53t138.5 16.5h604l-37 -258h-608q-23 0 -41.5 -12t-22.5 -41l-12 -86h252l-37 -264h-252l-135 -971h-285l135 971h-180zM885 0l172 1235h286l-172 -1235h-286z" />
<glyph unicode="&#xfb02;" horiz-adv-x="1269" d="M178 971l37 264h180l13 80q14 88 49 149.5t86 98t115.5 53t138.5 16.5h604l-230 -1632h-286l192 1374h-321q-23 0 -41.5 -12t-22.5 -41l-12 -86h252l-37 -264h-252l-135 -971h-285l135 971h-180z" />
</font>
</defs>
</svg>
