<?xml version="1.0" standalone="no"?>
<!DOCTYPE svg PUBLIC "-//W3C//DTD SVG 1.1//EN" "http://www.w3.org/Graphics/SVG/1.1/DTD/svg11.dtd" >
<svg xmlns="http://www.w3.org/2000/svg">
<metadata></metadata>
<defs>
<font id="sf_fourche_scitalic" horiz-adv-x="512" >
<font-face units-per-em="2048" ascent="1638" descent="-410" />
<missing-glyph horiz-adv-x="921" />
<glyph horiz-adv-x="0" />
<glyph unicode="&#xd;" horiz-adv-x="921" />
<glyph unicode=" "  horiz-adv-x="921" />
<glyph unicode="&#x09;" horiz-adv-x="921" />
<glyph unicode="&#xa0;" horiz-adv-x="921" />
<glyph unicode="!" d="M119 0l39 287h274l-39 -287h-274zM217 451l117 1085h274l-190 -1085h-201z" />
<glyph unicode="&#x22;" horiz-adv-x="843" d="M289 819l45 717h274l-155 -717h-164zM621 819l45 717h274l-156 -717h-163z" />
<glyph unicode="#" horiz-adv-x="1286" d="M199 573l22 164h246l55 246h-211l23 164h229l68 287h164l-68 -287h205l67 287h164l-67 -287h231l-22 -164h-250l-56 -246h215l-22 -164h-231l-68 -286h-164l68 286h-205l-68 -286h-164l68 286h-229zM631 737h205l57 246h-207z" />
<glyph unicode="$" horiz-adv-x="1341" d="M127 0l33 246h461l49 348h-92q-164 0 -259.5 70.5t-95.5 246.5q0 23 2 48.5t6 54.5q16 119 56.5 199.5t101 130t138 70t169.5 20.5h92l29 204h164l-29 -204h461l-35 -246h-460l-50 -348h95q80 0 145.5 -16.5t111.5 -53.5t70.5 -97.5t24.5 -146.5q0 -25 -2 -51t-6 -55 q-16 -121 -56.5 -201t-99.5 -129t-136 -69.5t-169 -20.5h-94l-31 -205h-164l31 205h-461zM502 975q0 -76 43 -105.5t104 -29.5h56l49 348h-56q-70 0 -124 -38t-68 -136q-2 -10 -3 -19.5t-1 -19.5zM784 246h58q37 0 70.5 10t61 34.5t44 65.5t16.5 103q0 74 -41 104.5 t-102 30.5h-57z" />
<glyph unicode="%" horiz-adv-x="1867" d="M260 967q0 137 35 230t90 150.5t127 82t145 24.5q61 0 113.5 -16.5t91.5 -51t61.5 -91t22.5 -138.5q0 -43 -6 -92q-16 -109 -53 -183.5t-89.5 -120.5t-116.5 -66.5t-132 -20.5q-61 0 -114.5 15.5t-91.5 50t-60.5 91t-22.5 136.5zM436 987q0 -90 37 -124t96 -34 q33 0 64 11.5t57.5 38t46 72.5t29.5 114q4 20 4 36.5v33.5q0 94 -38 128.5t-95 34.5q-37 0 -73 -14t-64.5 -49t-46 -95.5t-17.5 -152.5zM557 0l772 1434h182l-772 -1434h-182zM1120 272q0 137 35 230.5t91.5 151t128 82t145.5 24.5q59 0 111 -15.5t91 -50.5t61.5 -91 t22.5 -138q0 -43 -6 -94q-16 -109 -53 -183.5t-89 -121t-116.5 -66.5t-132.5 -20q-61 0 -114.5 15t-91.5 50t-60.5 91t-22.5 136zM1296 295q0 -92 38 -126t98 -34q33 0 63.5 11.5t56 38t45 72.5t29.5 114q4 20 4 36.5v32.5q0 94 -38 129t-95 35q-37 0 -72.5 -14.5t-64.5 -49 t-46.5 -94t-17.5 -151.5z" />
<glyph unicode="&#x26;" horiz-adv-x="1323" d="M145 295q0 170 67 274.5t167 157.5q-47 39 -75 98.5t-28 145.5q0 131 42 220t110 142t155 77t177 24h461l-35 -246h-461q-33 0 -64.5 -11.5t-56 -37t-40 -67.5t-15.5 -103q0 -72 37 -100.5t90 -28.5h203l-35 -246h-240q-33 0 -64.5 -13.5t-57 -42t-41 -74.5t-15.5 -114 q0 -78 36 -106.5t89 -28.5h84q63 0 124.5 22.5t113 77t91.5 145.5t62 228l21 152h274l-117 -840h-274l18 139q-92 -96 -200.5 -133t-231.5 -37q-78 0 -145.5 16.5t-117.5 55.5t-79 100.5t-29 153.5z" />
<glyph unicode="'" d="M289 819l45 717h274l-155 -717h-164z" />
<glyph unicode="(" horiz-adv-x="733" d="M115 -57q0 35 6 77l155 1106q12 86 41 144.5t70 95.5t91 52.5t104 15.5h233l-27 -185h-184q-31 0 -55.5 -24.5t-34.5 -91.5l-158 -1119q-2 -10 -3 -19t-1 -20q0 -45 17.5 -61t44.5 -16h184l-25 -185h-233q-96 0 -160.5 51.5t-64.5 178.5z" />
<glyph unicode=")" horiz-adv-x="733" d="M78 -287l24 185h183q33 0 57.5 24.5t34.5 91.5l158 1119q2 10 2 19v17q0 47 -16.5 63.5t-45.5 16.5h-182l26 185h234q94 0 159.5 -52.5t65.5 -179.5q0 -37 -6 -76l-156 -1106q-12 -86 -40.5 -144t-69.5 -95t-91 -52.5t-104 -15.5h-233z" />
<glyph unicode="*" horiz-adv-x="1112" d="M227 782l328 160l-283 160l121 180l240 -209l24 361h201l-80 -361l297 209l72 -180l-326 -160l281 -160l-121 -180l-240 205q-6 -86 -11 -178t-11 -178h-201l78 356q-74 -51 -149.5 -102.5t-147.5 -102.5z" />
<glyph unicode="+" horiz-adv-x="1138" d="M190 512l29 205h350l54 389h200l-53 -389h350l-28 -205h-351l-55 -389h-201l56 389h-351z" />
<glyph unicode="," d="M133 -287l25 574h274l-135 -574h-164z" />
<glyph unicode="-" horiz-adv-x="991" d="M188 502l31 225h754l-31 -225h-754z" />
<glyph unicode="." d="M119 0l39 287h274l-39 -287h-274z" />
<glyph unicode="/" horiz-adv-x="880" d="M-49 -287l971 1803h182l-973 -1803h-180z" />
<glyph unicode="0" horiz-adv-x="1507" d="M258 516q0 47 4 96.5t12 104.5q29 207 94.5 350t156.5 231t202 127t231 39q104 0 193.5 -29.5t155 -94t103.5 -170t38 -255.5q0 -47 -3 -96t-11 -102q-29 -207 -95.5 -350.5t-157.5 -231.5t-203 -127t-230 -39q-104 0 -193.5 29t-156 94.5t-103.5 168.5t-37 255zM535 543 q0 -94 18 -156.5t52 -100.5t79 -54.5t98 -16.5q63 0 122 23.5t109 81t88 154.5t58 243q12 94 12 168q0 94 -18 158.5t-52 103.5t-79 55.5t-98 16.5q-66 0 -124.5 -24t-107.5 -81t-86 -154.5t-57 -242.5q-8 -49 -11 -92t-3 -82z" />
<glyph unicode="1" horiz-adv-x="733" d="M229 0l193 1370l289 109l-207 -1479h-275z" />
<glyph unicode="2" horiz-adv-x="1544" d="M201 0l57 420q16 117 56 197.5t100.5 130t138.5 71t170 21.5h295q37 0 70.5 11t61.5 36.5t44 66.5t16 101q0 74 -41 103.5t-102 29.5h-664l35 246h701q80 0 145.5 -15.5t111.5 -52.5t70.5 -96.5t24.5 -147.5q0 -25 -2 -52.5t-6 -55.5q-16 -117 -56.5 -198t-99.5 -130 t-137 -70.5t-170 -21.5h-295q-70 0 -124 -38t-69 -136l-24 -174h848l-33 -246h-1122z" />
<glyph unicode="3" horiz-adv-x="1497" d="M211 0l33 246h680q33 0 64.5 11t57 35.5t41 66.5t15.5 104q0 72 -37 101.5t-92 29.5h-496l35 246h459q33 0 64.5 11t57 35.5t41 66.5t15.5 104q0 72 -37 101.5t-92 29.5h-643l35 246h643q80 0 147.5 -15.5t118.5 -52.5t80 -96.5t29 -145.5q0 -147 -55.5 -245.5 t-139.5 -151.5q61 -37 100 -102.5t39 -163.5q0 -35 -6 -72q-16 -111 -59 -184.5t-106.5 -119.5t-143.5 -65.5t-168 -19.5h-680z" />
<glyph unicode="4" horiz-adv-x="1599" d="M195 287l41 284l880 863h344l-127 -902h185l-35 -245h-185l-38 -287h-275l39 287h-829zM539 532h520l86 605z" />
<glyph unicode="5" horiz-adv-x="1544" d="M201 0l32 246h701q37 0 71.5 12t63.5 40t46.5 74t17.5 115q0 82 -42 115t-102 33h-700l112 799h1067l-34 -246h-793l-43 -307h463q162 0 256 -74t94 -254q0 -27 -2 -54.5t-6 -58.5q-18 -127 -58 -211t-99.5 -135t-137.5 -72.5t-170 -21.5h-737z" />
<glyph unicode="6" horiz-adv-x="1552" d="M260 524q0 45 3 92.5t11 100.5q27 199 90.5 336t152.5 222t196.5 122t224.5 37h555l-35 -246h-518q-102 0 -194.5 -63.5t-147.5 -202.5h518q72 0 133.5 -16.5t107.5 -55.5t71.5 -100.5t25.5 -153.5q0 -25 -2 -52.5t-6 -56.5q-18 -135 -62.5 -228t-104.5 -150.5t-135 -83 t-157 -25.5h-250q-102 0 -189 27.5t-150.5 90t-100.5 162t-37 244.5zM537 580q0 -94 20.5 -158t56 -102.5t85 -56t108.5 -17.5h156q33 0 70.5 15t69.5 50t52.5 89.5t20.5 131.5q0 84 -45.5 115t-106.5 31h-481q-6 -53 -6 -98z" />
<glyph unicode="7" horiz-adv-x="1368" d="M221 0l848 1188h-739l35 246h1067l-35 -242l-832 -1192h-344z" />
<glyph unicode="8" horiz-adv-x="1562" d="M229 309q0 80 18.5 145.5t50.5 118t75 91t90 63.5q-47 39 -76 99.5t-29 146.5q0 35 7 71q14 111 58 185t108.5 120t144.5 65.5t168 19.5h276q80 0 147.5 -15.5t118 -52.5t79 -96.5t28.5 -145.5q0 -147 -56.5 -245.5t-136.5 -151.5q61 -39 99.5 -102.5t38.5 -161.5 q0 -35 -6 -74q-16 -111 -59.5 -184.5t-107 -119.5t-142.5 -65.5t-167 -19.5h-350q-80 0 -148.5 15.5t-118.5 52t-80 96t-30 145.5zM510 377q0 -74 38 -102.5t91 -28.5h350q31 0 62.5 11t57.5 35.5t41 66.5t15 104q0 72 -36.5 101.5t-90.5 29.5h-350q-33 0 -64.5 -11.5 t-57 -37t-41 -66.5t-15.5 -102zM631 971q0 -74 38 -102.5t91 -28.5h276q31 0 62.5 11t57.5 35.5t41 66.5t15 104q0 72 -36.5 101.5t-90.5 29.5h-276q-33 0 -64.5 -11.5t-57 -37t-41 -66.5t-15.5 -102z" />
<glyph unicode="9" horiz-adv-x="1552" d="M260 0l33 246h520q102 0 193.5 65.5t150.5 200.5h-520q-72 0 -133.5 16.5t-107.5 55.5t-72.5 102.5t-26.5 155.5q0 25 2 50.5t6 53.5q18 135 62.5 228.5t106 150.5t137 83t155.5 26h252q100 0 187 -28t150.5 -90.5t100.5 -163.5t37 -247q0 -43 -3 -90t-11 -98 q-29 -201 -92.5 -337t-151.5 -221t-194.5 -122t-223.5 -37h-557zM575 901q0 -84 45.5 -114.5t106.5 -30.5h481q6 55 6 102q0 92 -20 154.5t-56 101.5t-85 56.5t-107 17.5h-158q-70 0 -130 -55.5t-78 -186.5q-2 -12 -3.5 -23.5t-1.5 -21.5z" />
<glyph unicode=":" d="M119 0l39 287h274l-39 -287h-274zM209 655l41 287h274l-41 -287h-274z" />
<glyph unicode=";" d="M133 -287l25 574h274l-135 -574h-164zM209 655l41 287h274l-41 -287h-274z" />
<glyph unicode="&#x3c;" horiz-adv-x="1130" d="M190 514l29 201l873 438l55 -188l-735 -351l637 -350l-109 -188z" />
<glyph unicode="=" horiz-adv-x="1138" d="M162 307l28 205h902l-29 -205h-901zM219 717l29 205h901l-29 -205h-901z" />
<glyph unicode="&#x3e;" horiz-adv-x="1130" d="M156 264l735 350l-637 351l111 188l747 -438l-29 -201l-870 -438z" />
<glyph unicode="?" horiz-adv-x="1267" d="M119 0l39 287h274l-61 -287h-252zM199 451q8 170 50 268t103.5 147t135 62.5t147.5 13.5h203q37 0 71.5 11.5t62 36t44 65.5t16.5 100q0 76 -42 105.5t-103 29.5h-551l35 246h587q80 0 145.5 -15.5t112 -52t72 -97t25.5 -148.5q0 -25 -2 -51.5t-6 -55.5 q-16 -117 -56.5 -197.5t-101 -130t-138 -71t-169.5 -21.5h-240q-29 0 -53.5 -8t-45 -34.5t-36.5 -75t-29 -127.5h-237z" />
<glyph unicode="@" horiz-adv-x="1740" d="M225 717q0 156 58.5 292t160 237.5t237.5 159.5t292 58t292 -58t237.5 -159.5t159.5 -238t58 -291.5q0 -156 -58 -292t-159.5 -237.5t-238 -160t-291.5 -58.5q-156 0 -292 58.5t-237.5 160t-160 237.5t-58.5 292zM369 717q0 -125 47 -235.5t129 -192.5t192.5 -129 t235.5 -47t235.5 47t192.5 129t129 192.5t47 235.5t-47 235.5t-129 192.5t-192.5 129t-235.5 47t-235.5 -47t-192.5 -129t-129 -192.5t-47 -235.5zM621 578q0 66 17 109.5t47 70t70 38t85 11.5h297q0 78 -52.5 108.5t-126.5 30.5h-288v139h309q66 0 123 -14t100 -47 t68.5 -86t25.5 -131v-459h-456q-45 0 -85 12.5t-70 39t-47 71t-17 107.5zM780 578q0 -49 28 -70t64 -21h265v183h-265q-37 0 -64.5 -19.5t-27.5 -72.5z" />
<glyph unicode="A" horiz-adv-x="1386" d="M-29 0l777 1434h294l373 -1434h-303l-70 287h-620l-148 -287h-303zM551 532h432q-35 141 -68.5 280.5t-68.5 283.5z" />
<glyph unicode="B" horiz-adv-x="1404" d="M119 0l200 1434h754q80 0 147.5 -15.5t119 -52.5t80 -96.5t28.5 -145.5q0 -147 -55.5 -245.5t-139.5 -151.5q61 -37 100.5 -102.5t39.5 -163.5q0 -35 -7 -72q-16 -111 -59 -184.5t-106.5 -119.5t-143.5 -65.5t-168 -19.5h-790zM426 246h516q33 0 64.5 11t57.5 35.5 t41 66.5t15 104q0 72 -36.5 101.5t-92.5 29.5h-516zM510 840h479q33 0 64.5 11t57.5 35.5t41 66.5t15 104q0 72 -36.5 101.5t-92.5 29.5h-479z" />
<glyph unicode="C" horiz-adv-x="1212" d="M150 524q0 45 3 92.5t11 100.5q27 199 90 336t151.5 221t196 122t223.5 38h488l-35 -246h-451q-68 0 -129 -22.5t-112 -77t-90 -144.5t-58 -227q-12 -84 -12 -148q0 -92 20.5 -154.5t56.5 -100.5t85 -53t106 -15h451l-33 -246h-487q-100 0 -187.5 27.5t-151 90t-100 163 t-36.5 243.5z" />
<glyph unicode="D" horiz-adv-x="1378" d="M119 0l200 1434h635q100 0 187.5 -28t151 -91.5t100.5 -163.5t37 -246q0 -43 -3.5 -90t-11.5 -98q-29 -199 -92 -336t-151.5 -221t-196 -122t-221.5 -38h-635zM426 246h324q68 0 129 22.5t113 76.5t91 144.5t58 227.5q6 41 8 76.5t2 68.5q0 92 -20.5 154.5t-56.5 100.5 t-85 54.5t-106 16.5h-324z" />
<glyph unicode="E" horiz-adv-x="1230" d="M150 524q0 45 3 92.5t11 100.5q27 199 90 336t151.5 221t196 122t223.5 38h488l-35 -246h-451q-57 0 -112.5 -18.5t-102.5 -59.5t-86 -107.5t-65 -162.5h768l-35 -246h-768q0 -96 20.5 -162.5t55.5 -107.5t84 -59.5t108 -18.5h451l-33 -246h-487q-100 0 -187.5 27.5 t-151 90t-100 163t-36.5 243.5z" />
<glyph unicode="F" horiz-adv-x="1230" d="M100 0l107 758q27 188 88 317t149 209t194.5 115t223.5 35h488l-35 -246h-451q-61 0 -117.5 -18.5t-104.5 -59.5t-86 -107.5t-60 -162.5h770l-35 -246h-774l-82 -594h-275z" />
<glyph unicode="G" horiz-adv-x="1378" d="M150 524q0 45 3 92.5t11 100.5q27 199 90 336t151.5 221t196 122t223.5 38h635l-35 -246h-598q-68 0 -129 -22.5t-112 -77t-90 -144.5t-58 -227q-12 -84 -12 -148q0 -92 20.5 -154.5t56.5 -100.5t85 -53t106 -15h324l49 348h-258l35 246h532l-116 -840h-635 q-100 0 -187.5 27.5t-151 90t-100 163t-36.5 243.5z" />
<glyph unicode="H" horiz-adv-x="1359" d="M119 0l200 1434h275l-84 -594h573l84 594h275l-201 -1434h-274l82 594h-574l-82 -594h-274z" />
<glyph unicode="I" d="M119 0l200 1434h275l-201 -1434h-274z" />
<glyph unicode="J" horiz-adv-x="972" d="M45 0l33 246h229q68 0 129.5 16.5t110.5 54t84 100t47 156.5l121 861h274l-121 -861q-23 -162 -86 -271t-153 -177t-203 -96.5t-236 -28.5h-229z" />
<glyph unicode="K" horiz-adv-x="1249" d="M119 0l200 1434h275l-90 -635l590 635h346l-676 -717l475 -717h-346l-412 635l-88 -635h-274z" />
<glyph unicode="L" horiz-adv-x="1083" d="M170 451q0 29 3 58.5t7 63.5l121 861h274l-120 -861q-6 -41 -6 -75q0 -72 21.5 -120t59 -78t90 -42t111.5 -12h340l-33 -246h-340q-111 0 -207 22.5t-167.5 76t-112.5 139.5t-41 213z" />
<glyph unicode="M" horiz-adv-x="1689" d="M119 0l200 1434h390l190 -1037q123 264 242 518t241 519h390l-201 -1434h-268l133 954q-111 -240 -222.5 -477t-222.5 -477h-293l-172 954l-133 -954h-274z" />
<glyph unicode="N" horiz-adv-x="1359" d="M119 0l200 1434h349l356 -1012l143 1012h275l-201 -1434h-348l-358 1012l-142 -1012h-274z" />
<glyph unicode="O" horiz-adv-x="1396" d="M150 528q0 43 3 90.5t11 98.5q29 207 98.5 350t167.5 231t219 127t254 39q113 0 212 -29.5t173 -97t117 -175t43 -263.5q0 -41 -4 -87t-10 -95q-29 -207 -100.5 -350.5t-171 -231.5t-220.5 -127t-250 -39q-117 0 -216 30t-172 96.5t-113.5 172.5t-40.5 260zM426 563 q0 -100 22.5 -166.5t63.5 -106.5t95.5 -57.5t119.5 -17.5q74 0 142.5 23.5t126 81t100.5 154.5t63 243q6 41 8 76.5t2 70.5q0 100 -23.5 169t-64.5 110t-95 58.5t-118 17.5q-76 0 -144.5 -24t-125.5 -81t-98 -154.5t-62 -242.5q-12 -86 -12 -154z" />
<glyph unicode="P" horiz-adv-x="1378" d="M119 0l200 1434h754q82 0 151.5 -19.5t122 -63.5t82 -114t29.5 -170q0 -25 -2 -50.5t-6 -53.5q-20 -141 -68.5 -235.5t-117 -152t-152.5 -81t-174 -23.5h-479l-66 -471h-274zM494 717h479q33 0 69.5 14t67.5 50t50.5 94.5t19.5 146.5q0 90 -41 128t-101 38h-479z" />
<glyph unicode="Q" horiz-adv-x="1396" d="M150 528q0 43 3 90.5t11 98.5q29 207 98.5 350t167.5 231t219 127t254 39q113 0 212 -29.5t173 -97t117 -175t43 -263.5q0 -41 -4 -87t-10 -95q-25 -180 -82.5 -311.5t-138 -220.5t-180 -138t-208.5 -67h6l-36 -267h-275l37 267h6q-92 14 -168 52t-131 104.5t-84.5 163.5 t-29.5 228zM426 557q0 -145 45 -219t123 -102l20 153h275l-21 -151q51 18 97.5 53t84 92t65.5 139t44 195q6 41 8 76.5t2 70.5q0 100 -23.5 169t-64.5 110t-95 58.5t-118 17.5q-76 0 -144.5 -24t-125.5 -81t-98 -154.5t-62 -242.5q-12 -90 -12 -160z" />
<glyph unicode="R" horiz-adv-x="1404" d="M119 0l200 1434h773q78 0 145.5 -17.5t116.5 -57.5t77.5 -104.5t28.5 -156.5q0 -129 -30.5 -223.5t-83 -159t-119 -101t-135.5 -51.5h6l215 -563h-316l-196 553h-332l-76 -553h-274zM504 799h497q31 0 64 12t59.5 42t43 78t16.5 122t-37 104.5t-90 30.5h-498z" />
<glyph unicode="S" horiz-adv-x="1341" d="M127 0l33 246h682q37 0 70.5 10t61 34.5t44 65.5t16.5 103q0 74 -41 104.5t-102 30.5h-313q-164 0 -259.5 70.5t-95.5 246.5q0 23 2 48.5t6 54.5q16 119 56.5 199.5t101 130t138 70t169.5 20.5h717l-35 -246h-680q-37 0 -71.5 -10.5t-62 -35t-45 -65.5t-17.5 -102 q0 -76 43 -105.5t104 -29.5h314q80 0 145.5 -16.5t111.5 -53.5t70.5 -97.5t24.5 -146.5q0 -25 -2 -51t-6 -55q-16 -121 -56.5 -201t-99.5 -129t-136 -69.5t-169 -20.5h-719z" />
<glyph unicode="T" horiz-adv-x="1198" d="M166 1188l35 246h1196l-35 -246h-461l-166 -1188h-274l166 1188h-461z" />
<glyph unicode="U" horiz-adv-x="1396" d="M172 449q0 35 2 70.5t8 74.5l119 840h274l-118 -840q-4 -29 -6 -53.5t-2 -46.5q0 -80 21.5 -133.5t58 -85t88 -46t110.5 -14.5q66 0 127 18.5t111.5 62.5t86 116.5t52.5 181.5l119 840h274l-119 -840q-25 -178 -89 -298t-156.5 -192.5t-205 -103.5t-235.5 -31 q-111 0 -205 24.5t-164.5 80t-110.5 148t-40 227.5z" />
<glyph unicode="V" horiz-adv-x="1386" d="M172 1434h303l264 -1098q143 274 287.5 548.5t286.5 549.5h303l-774 -1434h-295z" />
<glyph unicode="W" horiz-adv-x="1884" d="M190 1434h291l142 -975l378 975h283l98 -973l420 973h293l-635 -1434h-291l-98 930l-356 -930h-293z" />
<glyph unicode="X" horiz-adv-x="1249" d="M10 0l559 717l-358 717h326l223 -469l354 469h326l-559 -717l358 -717h-326l-225 465l-352 -465h-326z" />
<glyph unicode="Y" horiz-adv-x="1249" d="M193 1434h325l230 -549l385 549h325l-614 -828h2l-84 -606h-275l84 606h2z" />
<glyph unicode="Z" horiz-adv-x="1304" d="M90 0l33 244l909 944h-776l35 246h1122l-35 -244l-909 -944h776l-33 -246h-1122z" />
<glyph unicode="[" horiz-adv-x="733" d="M78 -287l241 1721h496l-27 -185h-258l-190 -1351h258l-25 -185h-495z" />
<glyph unicode="\" horiz-adv-x="880" d="M203 1516h182l465 -1803h-182z" />
<glyph unicode="]" horiz-adv-x="733" d="M78 -287l24 185h258l191 1351h-258l26 185h496l-242 -1721h-495z" />
<glyph unicode="^" horiz-adv-x="1212" d="M195 551l512 883h200l262 -883l-192 -98l-203 745l-412 -745z" />
<glyph unicode="_" horiz-adv-x="1024" d="M-20 -164h1064v-164h-1064v164z" />
<glyph unicode="`" horiz-adv-x="653" d="M340 1571l113 139l278 -295l-72 -88z" />
<glyph unicode="a" horiz-adv-x="1200" d="M-29 0l666 1229h268l324 -1229h-295l-60 238h-483l-12 -23q-29 -51 -59.5 -109.5t-53.5 -105.5h-295zM516 481h301l-51 197q-12 49 -23.5 89t-23.5 99z" />
<glyph unicode="b" horiz-adv-x="1236" d="M119 0l172 1229h643q70 0 130 -13.5t104 -45t70 -84t26 -128.5q0 -117 -43 -199.5t-103 -133.5h-2q49 -35 75 -85.5t26 -123.5q0 -119 -36 -199t-94.5 -128t-135.5 -68.5t-156 -20.5h-676zM418 244h409q20 0 42 7t40.5 25.5t29.5 48t11 72.5q0 53 -25.5 74t-62.5 21h-409 zM487 737h377q47 0 86 33t39 121q0 53 -25.5 73.5t-64.5 20.5h-377z" />
<glyph unicode="c" horiz-adv-x="1073" d="M137 451q0 74 13 163q25 170 79 288t129.5 190.5t169 104.5t191.5 32h426l-35 -244h-395q-51 0 -98.5 -17.5t-87.5 -60.5t-69.5 -114.5t-43.5 -178.5q-4 -35 -7 -63.5t-3 -54.5q0 -72 15 -120t43 -78t65.5 -42t80.5 -12h396l-33 -244h-426q-86 0 -161 23.5t-130 78 t-87 140.5t-32 209z" />
<glyph unicode="d" horiz-adv-x="1212" d="M119 0l172 1229h545q88 0 162.5 -24.5t130 -78t87 -139.5t31.5 -211q0 -74 -12 -162q-25 -170 -79 -287.5t-130 -190.5t-169 -104.5t-193 -31.5h-545zM418 244h248q51 0 99 17.5t88 60.5t69.5 114.5t46.5 177.5q4 31 6 59.5t2 53.5q0 145 -59.5 201.5t-147.5 56.5h-248z " />
<glyph unicode="e" horiz-adv-x="1091" d="M137 451q0 74 13 163q25 170 79 288t129.5 190.5t169 104.5t191.5 32h426l-35 -244h-395q-84 0 -159 -57.5t-116 -190.5h635l-35 -245h-634q4 -133 62 -190.5t142 -57.5h396l-33 -244h-426q-86 0 -161 23.5t-130 78t-87 140.5t-32 209z" />
<glyph unicode="f" horiz-adv-x="1091" d="M100 0l90 649q23 162 77.5 272.5t130 179t167.5 98.5t193 30h424l-35 -244h-393q-90 0 -164 -56.5t-113 -191.5h635l-35 -245h-643l-67 -492h-267z" />
<glyph unicode="g" horiz-adv-x="1212" d="M137 451q0 74 13 163q25 170 79 288t129.5 190.5t169 104.5t191.5 32h547l-35 -244h-516q-51 0 -98.5 -17.5t-87.5 -60.5t-69.5 -114.5t-43.5 -178.5q-4 -35 -7 -63.5t-3 -54.5q0 -72 15 -120t43 -78t65.5 -42t80.5 -12h250l35 248h-215l35 245h481l-102 -737h-547 q-86 0 -161 23.5t-130 78t-87 140.5t-32 209z" />
<glyph unicode="h" horiz-adv-x="1206" d="M119 0l172 1229h266l-70 -492h437l69 492h267l-173 -1229h-266l68 492h-436l-68 -492h-266z" />
<glyph unicode="i" horiz-adv-x="503" d="M119 0l172 1229h266l-172 -1229h-266z" />
<glyph unicode="j" horiz-adv-x="870" d="M45 0l33 244h209q49 0 96 12t86 42t65.5 78t36.5 120l103 733h268l-102 -733q-20 -141 -74.5 -235.5t-133.5 -153t-176.5 -83t-201.5 -24.5h-209z" />
<glyph unicode="k" horiz-adv-x="1118" d="M119 0l172 1229h266l-70 -488q117 123 227.5 244t227.5 244h338l-580 -615q98 -152 203 -308t205 -306h-338l-317 487l-68 -487h-266z" />
<glyph unicode="l" horiz-adv-x="962" d="M162 389q0 25 2 51.5t6 55.5l102 733h267l-103 -733q-4 -16 -4 -30.5v-29.5q0 -53 16.5 -90t46 -59.5t68.5 -32.5t86 -10h301l-32 -244h-302q-94 0 -177 19.5t-144.5 65.5t-97 120.5t-35.5 183.5z" />
<glyph unicode="m" horiz-adv-x="1478" d="M119 0l172 1229h354l152 -817l383 817h352l-172 -1229h-260l96 692l-322 -692h-270l-123 686l-96 -686h-266z" />
<glyph unicode="n" horiz-adv-x="1206" d="M119 0l172 1229h319l275 -772l108 772h267l-173 -1229h-319l-276 772l-107 -772h-266z" />
<glyph unicode="o" horiz-adv-x="1218" d="M137 453q0 72 13 161q25 178 84 300t144 197t189.5 108.5t218.5 33.5q98 0 182.5 -25.5t148 -83t99 -150.5t35.5 -226q0 -35 -2 -74t-8 -80q-25 -178 -86 -299.5t-146 -196.5t-188.5 -109t-214.5 -34q-100 0 -186 26t-148.5 82t-98.5 147.5t-36 222.5zM406 494 q0 -78 18 -131.5t50 -85t75 -45t92 -13.5q57 0 109.5 18.5t96.5 64.5t76.5 122t49.5 190q4 35 6 64t2 57q0 78 -17.5 131.5t-48 85t-72.5 45t-91 13.5q-59 0 -112.5 -18.5t-97.5 -64.5t-77 -122t-49 -191q-4 -35 -7 -63t-3 -57z" />
<glyph unicode="p" horiz-adv-x="1212" d="M119 0l172 1229h643q70 0 131 -17.5t107.5 -55.5t72 -99.5t25.5 -149.5q0 -41 -6 -90q-18 -123 -60.5 -205t-103 -131t-133 -69.5t-152.5 -20.5h-377l-53 -391h-266zM473 635h377q25 0 51.5 10t48 37t35.5 71t14 109q0 66 -28.5 94.5t-71.5 28.5h-377z" />
<glyph unicode="q" horiz-adv-x="1218" d="M137 449q0 76 13 165q25 178 84 300t144 197t189.5 108.5t218.5 33.5q98 0 182.5 -25.5t148 -83t99 -150.5t35.5 -226q0 -35 -2 -74t-8 -80q-23 -154 -70 -265t-113.5 -187t-148.5 -119t-174 -57h6l-32 -224h-267l33 224h6q-156 25 -250 134.5t-94 328.5zM403 479 q0 -100 29 -155.5t78 -77.5l16 116h267l-15 -112q72 35 122 118t73 246q4 35 6 64t2 57q0 78 -17.5 131.5t-48 85t-72.5 45t-91 13.5q-59 0 -112.5 -18.5t-97.5 -64.5t-77 -122t-49 -191q-12 -78 -13 -135z" />
<glyph unicode="r" horiz-adv-x="1253" d="M119 0l172 1229h661q68 0 126.5 -15.5t102.5 -51.5t68.5 -92t24.5 -136q0 -106 -25.5 -186t-66.5 -135.5t-95.5 -90.5t-111.5 -49h6l180 -473h-307l-164 459h-241l-64 -459h-266zM483 702h396q20 0 41.5 9.5t40 31t31 56.5t12.5 88t-26 75.5t-60 22.5h-396z" />
<glyph unicode="s" horiz-adv-x="1183" d="M123 0l33 244h583q49 0 94.5 32.5t45.5 118.5q0 53 -30 75t-75 22h-260q-141 0 -226 61t-85 215q0 23 2 45.5t6 46.5q14 104 50 175t88 114t121 61.5t148 18.5h615l-35 -244h-584q-53 0 -95 -33.5t-42 -122.5q0 -51 30 -71.5t73 -20.5h260q141 0 225 -62.5t84 -215.5 q0 -133 -33 -221t-89 -140.5t-131 -75t-159 -22.5h-614z" />
<glyph unicode="t" horiz-adv-x="1032" d="M137 985l35 244h1030l-35 -244h-381l-137 -985h-266l137 985h-383z" />
<glyph unicode="u" horiz-adv-x="1232" d="M162 387q0 29 3 59.5t7 65.5l100 717h267l-101 -717q-6 -43 -6 -78q0 -61 16.5 -102t46 -65.5t68.5 -36t84 -11.5q51 0 98.5 14.5t85 48t65.5 90t40 140.5l100 717h269l-101 -717q-23 -154 -78 -256t-134 -164.5t-177 -89.5t-203 -27q-96 0 -178 20.5t-142.5 69t-95 127 t-34.5 195.5z" />
<glyph unicode="v" horiz-adv-x="1200" d="M143 1229h297l207 -875l459 875h295l-668 -1229h-268z" />
<glyph unicode="w" horiz-adv-x="1607" d="M162 1229h282l111 -746q72 186 143.5 372.5t143.5 373.5h266l78 -744l321 744h283l-543 -1229h-272l-76 698l-268 -698h-273z" />
<glyph unicode="x" horiz-adv-x="1110" d="M10 0l479 614l-307 615h316l178 -369l280 369h316l-477 -615q74 -152 152.5 -308t152.5 -306h-316l-178 367l-280 -367h-316z" />
<glyph unicode="y" horiz-adv-x="1103" d="M164 1229h317l183 -434l301 434h319l-530 -713h2l-72 -516h-266l71 516h3z" />
<glyph unicode="z" horiz-adv-x="1150" d="M90 0l31 229l729 756h-623l35 244h971l-33 -230l-729 -755h623l-33 -244h-971z" />
<glyph unicode="{" horiz-adv-x="843" d="M190 522l27 185h109q33 0 57.5 24.5t34.5 91.5l43 303q12 86 40.5 144.5t69.5 95.5t91.5 52.5t103.5 15.5h160l-27 -185h-111q-31 0 -55 -24.5t-35 -91.5l-32 -232q-16 -121 -68.5 -189.5t-118.5 -97.5q49 -25 80 -77t31 -138v-34.5t-4 -36.5l-45 -314q-2 -10 -3 -19 t-1 -20q0 -45 17 -61t44 -16h111l-25 -185h-160q-96 0 -160.5 51.5t-64.5 178.5q0 35 6 77l53 386q2 10 3 20t1 20q0 43 -18 59.5t-45 16.5h-109z" />
<glyph unicode="|" horiz-adv-x="659" d="M170 -410l274 1946h201l-274 -1946h-201z" />
<glyph unicode="}" horiz-adv-x="843" d="M78 -287l24 185h109q33 0 57.5 24.5t34.5 91.5l45 314q16 121 67.5 189.5t119.5 96.5q-51 23 -82 74t-31 139q0 33 6 74l33 232q2 10 2 19v17q0 47 -16.5 63.5t-45.5 16.5h-108l26 185h160q94 0 160 -52.5t66 -179.5q0 -37 -7 -76l-43 -303q-2 -10 -3 -19t-1 -20 q0 -45 17.5 -61t44.5 -16h110l-26 -185h-111q-29 0 -54.5 -24.5t-35.5 -91.5l-53 -386q-12 -86 -42 -144t-71 -95t-91 -52.5t-101 -15.5h-160z" />
<glyph unicode="~" horiz-adv-x="1310" d="M211 643q10 8 29.5 17.5t35.5 17.5q55 29 129 59.5t160 30.5q68 0 115 -17.5t87 -37t80 -37t95 -17.5q68 0 139.5 35t137.5 72l53 -197q-35 -10 -75 -28.5t-85 -38t-94 -33.5t-105 -14q-72 0 -117.5 17t-84.5 38.5t-78 39t-96 17.5q-25 0 -62 -13t-77 -31.5t-76.5 -39 t-59.5 -37.5z" />
<glyph unicode="&#xa1;" d="M74 -307l190 1085h201l-117 -1085h-274zM250 942l41 287h274l-41 -287h-274z" />
<glyph unicode="&#xa2;" horiz-adv-x="1288" d="M221 653q0 76 12 166q25 172 79.5 289t130 189.5t167.5 104.5t193 32h59l29 204h164l-29 -204h344l-33 -232h-344l-108 -766h344l-31 -231h-344l-29 -205h-163l28 205h-59q-86 0 -161 23.5t-130 76.5t-87 139t-32 209zM479 694q0 -74 16.5 -123t45 -79.5t67.5 -43 t84 -12.5h29l108 766h-28q-53 0 -103.5 -18.5t-91.5 -62.5t-71.5 -117.5t-45.5 -184.5q-4 -35 -7 -65.5t-3 -59.5z" />
<glyph unicode="&#xa3;" horiz-adv-x="1323" d="M119 0l33 246h221l53 368h-184l28 205h185l30 225q14 109 58.5 184t110 121t147.5 65.5t172 19.5h321l-34 -246h-285q-84 0 -144.5 -32t-70.5 -112l-31 -225h332l-29 -205h-332l-53 -368h590l-33 -246h-1085z" />
<glyph unicode="&#xa5;" horiz-adv-x="1396" d="M223 225l21 144h368l21 143h-369l19 143h342l-359 779h326l229 -549l385 549h326l-580 -779h342l-18 -143h-369l-20 -143h368l-20 -144h-369l-30 -225h-275l31 225h-369z" />
<glyph unicode="&#xa6;" horiz-adv-x="659" d="M188 -287l113 799h201l-113 -799h-201zM332 737l98 697h201l-99 -697h-200z" />
<glyph unicode="&#xa7;" horiz-adv-x="1337" d="M225 573q0 98 41 158t115 88q-74 31 -115 90.5t-41 161.5t27 172t76 112t119.5 60.5t156.5 18.5h678v-232h-643q-70 0 -119 -29.5t-49 -101.5q0 -78 49 -105.5t119 -27.5h299q86 0 156.5 -18.5t120 -61.5t76 -113.5t26.5 -175.5q0 -98 -41 -157.5t-113 -87.5 q74 -31 114 -91.5t40 -158.5q0 -102 -26.5 -172t-76 -112t-120 -59.5t-156.5 -17.5h-678v232h643q70 0 118 28.5t48 100.5q0 78 -48 105.5t-118 27.5h-299q-86 0 -156.5 18.5t-119.5 60.5t-76 112.5t-27 174.5zM471 573q0 -78 49 -106.5t119 -28.5h264q70 0 118 30t48 101 q0 78 -48 107t-118 29h-264q-70 0 -119 -30t-49 -102z" />
<glyph unicode="&#xa8;" horiz-adv-x="770" d="M307 1352l33 225h219l-33 -225h-219zM621 1352l32 225h219l-32 -225h-219z" />
<glyph unicode="&#xa9;" horiz-adv-x="1740" d="M225 717q0 156 58.5 292t160 237.5t237.5 159.5t292 58t292 -58t237.5 -159.5t159.5 -238t58 -291.5q0 -156 -58 -292t-159.5 -237.5t-238 -160t-291.5 -58.5q-156 0 -292 58.5t-237.5 160t-160 237.5t-58.5 292zM369 717q0 -125 47 -235.5t129 -192.5t192.5 -129 t235.5 -47t235.5 47t192.5 129t129 192.5t47 235.5t-47 235.5t-129 192.5t-192.5 129t-235.5 47t-235.5 -47t-192.5 -129t-129 -192.5t-47 -235.5zM563 717q0 119 29 200.5t79 133t117.5 74t143.5 22.5h319v-148h-295q-45 0 -85 -13t-70.5 -46t-48 -87t-17.5 -136 t17.5 -136.5t48 -87t70.5 -46t85 -13.5h295v-147h-319q-76 0 -143.5 22.5t-117.5 73.5t-79 133t-29 201z" />
<glyph unicode="&#xaa;" horiz-adv-x="862" d="M244 870q0 82 21.5 136.5t55 87t77.5 47t87 14.5h260v21q0 63 -37.5 90.5t-97.5 27.5h-266l21 140h284q55 0 102.5 -12.5t82 -38t55 -67.5t20.5 -104q0 -14 -1 -27.5t-3 -29.5l-65 -459h-420q-76 0 -126 39t-50 135zM406 905q0 -39 18 -54t47 -15h229l25 182h-229 q-31 0 -55.5 -19.5t-32.5 -72.5q-2 -8 -2 -21z" />
<glyph unicode="&#xab;" horiz-adv-x="1130" d="M205 614l379 576l153 -111l-323 -465q47 -117 96 -232.5t96 -231.5l-184 -111zM629 614l379 576l153 -111l-323 -465q47 -117 96 -232.5t96 -231.5l-184 -111z" />
<glyph unicode="&#xac;" horiz-adv-x="1228" d="M225 512v205h983v-512h-204v307h-779z" />
<glyph unicode="&#xad;" horiz-adv-x="991" d="M188 502l31 225h754l-31 -225h-754z" />
<glyph unicode="&#xae;" horiz-adv-x="1740" d="M225 717q0 156 58.5 292t160 237.5t237.5 159.5t292 58t292 -58t237.5 -159.5t159.5 -238t58 -291.5q0 -156 -58 -292t-159.5 -237.5t-238 -160t-291.5 -58.5q-156 0 -292 58.5t-237.5 160t-160 237.5t-58.5 292zM369 717q0 -125 47 -235.5t129 -192.5t192.5 -129 t235.5 -47t235.5 47t192.5 129t129 192.5t47 235.5t-47 235.5t-129 192.5t-192.5 129t-235.5 47t-235.5 -47t-192.5 -129t-129 -192.5t-47 -235.5zM602 287v860h510q57 0 107.5 -13.5t88.5 -44t59.5 -79.5t21.5 -121q0 -127 -56.5 -187.5t-140.5 -76.5l194 -338h-198 l-182 331h-232v-331h-172zM774 766h338q43 0 74 25.5t31 97.5q0 61 -31 85.5t-74 24.5h-338v-233z" />
<glyph unicode="&#xaf;" horiz-adv-x="806" d="M307 1352l19 123h569l-18 -123h-570z" />
<glyph unicode="&#xb0;" horiz-adv-x="751" d="M281 1145q0 10 1 21.5t3 21.5q8 57 34.5 107.5t66.5 88t90 59t104 21.5q49 0 89 -18.5t69.5 -50t46 -75.5t16.5 -93q0 -66 -25.5 -123t-67.5 -100t-95.5 -68t-110.5 -25q-96 0 -158.5 66.5t-62.5 167.5zM410 1161q0 -55 30.5 -91t77.5 -36q29 0 57.5 14.5t50 39t35 56.5 t13.5 68q0 55 -32 92t-79 37q-53 0 -98 -45t-53 -108q-2 -10 -2 -27z" />
<glyph unicode="&#xb1;" horiz-adv-x="1138" d="M119 0l28 205h902l-29 -205h-901zM236 840l28 204h350l56 390h200l-55 -390h350l-28 -204h-351l-55 -389h-201l56 389h-350z" />
<glyph unicode="&#xb2;" horiz-adv-x="872" d="M170 573l35 252q20 141 94 196.5t188 55.5h177q41 0 77.5 28t36.5 99q0 47 -24.5 64.5t-59.5 17.5h-401l20 148h424q98 0 156.5 -41t58.5 -148q0 -90 -22.5 -150.5t-61.5 -97t-91 -52t-111 -15.5h-179q-41 0 -71.5 -22.5t-38.5 -82.5l-15 -104h508l-20 -148h-680z" />
<glyph unicode="&#xb3;" horiz-adv-x="841" d="M180 573l21 148h411q37 0 70 28.5t33 100.5q0 45 -21.5 62.5t-52.5 17.5h-301l20 147h279q35 0 69.5 29t34.5 100q0 45 -21.5 62.5t-51.5 17.5h-389l20 148h389q47 0 89 -9.5t73 -32t49.5 -58.5t18.5 -87q0 -86 -36 -145.5t-83 -91.5q37 -25 60.5 -64t23.5 -98 q0 -78 -25.5 -131t-67.5 -85t-94.5 -45.5t-105.5 -13.5h-412z" />
<glyph unicode="&#xb4;" horiz-adv-x="653" d="M319 1415l361 295l72 -139l-385 -244z" />
<glyph unicode="&#xb6;" horiz-adv-x="1361" d="M225 1178q0 72 29 121t77 78.5t113.5 43t139.5 13.5h757v-164h-225v-1557h-205v1557h-123v-1557h-204v1188q-74 0 -139.5 13.5t-113.5 46t-77 85t-29 132.5z" />
<glyph unicode="&#xb7;" d="M184 471l41 287h275l-41 -287h-275z" />
<glyph unicode="&#xb8;" horiz-adv-x="694" d="M68 -354l16 112q6 0 23.5 -8t44 -17t58.5 -17.5t66 -8.5q14 0 33 4t35 13.5t28.5 26t12.5 38.5q0 29 -21.5 39t-48.5 10t-61.5 -8t-50.5 -14l71 245h127l-36 -131q88 -2 134 -42t46 -93t-25.5 -92t-66.5 -63.5t-91.5 -37t-99.5 -12.5q-55 0 -105.5 13.5t-88.5 42.5z" />
<glyph unicode="&#xb9;" horiz-adv-x="409" d="M199 582l116 821l181 67l-125 -888h-172z" />
<glyph unicode="&#xba;" horiz-adv-x="901" d="M260 969q0 23 2 46t6 50q14 106 50 180t87.5 120t115 66.5t130.5 20.5q61 0 113.5 -15.5t90.5 -51t60.5 -92t22.5 -136.5q0 -43 -6 -92q-16 -106 -53 -180t-89.5 -120t-115.5 -66.5t-131 -20.5q-59 0 -111.5 15.5t-90.5 50t-59.5 90t-21.5 135.5zM422 989q0 -98 41 -135 t100 -37q37 0 70 12.5t60.5 41t47 75.5t29.5 119q6 43 6 76q0 98 -41 135t-102 37q-35 0 -73 -15.5t-68.5 -52.5t-50 -99.5t-19.5 -156.5z" />
<glyph unicode="&#xbb;" horiz-adv-x="1130" d="M141 150l324 464q-47 117 -96.5 233t-96.5 232l185 111l217 -576l-381 -575zM565 150l324 464q-47 117 -96.5 233t-96.5 232l185 111l217 -576l-381 -575z" />
<glyph unicode="&#xbc;" horiz-adv-x="1681" d="M199 582l116 821l181 67l-125 -888h-172zM246 0l831 1434h183l-832 -1434h-182zM805 172l24 170l531 518h213l-78 -541h111l-21 -147h-110l-23 -172h-172l23 172h-498zM1016 319h307l51 355z" />
<glyph unicode="&#xbd;" horiz-adv-x="1730" d="M199 582l116 821l181 67l-125 -888h-172zM246 0l831 1434h183l-832 -1434h-182zM920 0l34 252q20 141 94 196.5t189 55.5h176q43 0 78 28.5t35 102.5q0 43 -24.5 60.5t-59.5 17.5h-402l23 147h424q98 0 155.5 -40t57.5 -148q0 -90 -22.5 -150.5t-60.5 -97.5t-90 -52.5 t-112 -15.5h-178q-41 0 -71.5 -22.5t-39.5 -81.5l-14 -105h508l-21 -147h-679z" />
<glyph unicode="&#xbe;" horiz-adv-x="2068" d="M199 573l20 148h412q37 0 69.5 28.5t32.5 100.5q0 45 -21.5 62.5t-52.5 17.5h-301l21 147h278q35 0 70 29t35 100q0 45 -21.5 62.5t-52.5 17.5h-389l20 148h390q47 0 89 -9.5t72.5 -32t49 -58.5t18.5 -87q0 -86 -36 -145.5t-83 -91.5q37 -25 60.5 -64t23.5 -98 q0 -78 -25.5 -131t-67.5 -85t-94 -45.5t-106 -13.5h-411zM633 0l831 1434h183l-832 -1434h-182zM1192 172l25 170l530 518h213l-78 -541h111l-21 -147h-110l-23 -172h-172l23 172h-498zM1403 319h307l51 355z" />
<glyph unicode="&#xbf;" horiz-adv-x="1267" d="M125 6q0 25 2 51.5t6 55.5q16 117 56 197.5t100.5 129.5t137.5 70.5t169 21.5h240q29 0 53 8.5t45.5 35t38 74.5t28.5 128h238q-10 -170 -52 -268t-103.5 -147.5t-135.5 -62.5t-147 -13h-203q-35 0 -69.5 -11.5t-62.5 -37t-45.5 -66.5t-17.5 -100q0 -76 43 -104.5 t103 -28.5h553l-35 -246h-590q-80 0 -145.5 15.5t-111.5 52t-70.5 97t-24.5 148.5zM1006 942l61 287h254l-41 -287h-274z" />
<glyph unicode="&#xc0;" horiz-adv-x="1386" d="M-29 0l777 1434h294l373 -1434h-303l-70 287h-620l-148 -287h-303zM551 532h432q-35 141 -68.5 280.5t-68.5 283.5zM735 1776l113 139l278 -295l-72 -88z" />
<glyph unicode="&#xc1;" horiz-adv-x="1386" d="M-29 0l777 1434h294l373 -1434h-303l-70 287h-620l-148 -287h-303zM551 532h432q-35 141 -68.5 280.5t-68.5 283.5zM714 1620l361 295l72 -139l-385 -244z" />
<glyph unicode="&#xc2;" horiz-adv-x="1386" d="M-29 0l777 1434h294l373 -1434h-303l-70 287h-620l-148 -287h-303zM551 532h432q-35 141 -68.5 280.5t-68.5 283.5zM602 1620l359 295l276 -283l-69 -100l-236 178q-70 -45 -141.5 -89t-140.5 -89z" />
<glyph unicode="&#xc3;" horiz-adv-x="1386" d="M-29 0l777 1434h294l373 -1434h-303l-70 287h-620l-148 -287h-303zM551 532h432q-35 141 -68.5 280.5t-68.5 283.5zM582 1671l45 25q37 20 85 42.5t101 22.5q43 0 73.5 -12t57.5 -26.5t51.5 -26.5t57.5 -12q41 0 79.5 21.5t77.5 43.5h-2l25 17l31 -148 q-23 -6 -47.5 -20.5t-53 -27.5t-61.5 -23.5t-70 -10.5q-47 0 -76.5 12.5t-54.5 27.5t-49.5 27.5t-58.5 12.5q-14 0 -38 -9t-49.5 -22.5t-50 -30t-41.5 -28.5z" />
<glyph unicode="&#xc4;" horiz-adv-x="1386" d="M-29 0l777 1434h294l373 -1434h-303l-70 287h-620l-148 -287h-303zM551 532h432q-35 141 -68.5 280.5t-68.5 283.5zM643 1557l33 225h219l-33 -225h-219zM957 1557l32 225h219l-32 -225h-219z" />
<glyph unicode="&#xc5;" horiz-adv-x="1386" d="M-29 0l777 1434h294l373 -1434h-303l-70 287h-620l-148 -287h-303zM551 532h432q-35 141 -68.5 280.5t-68.5 283.5zM717 1727v16t2 18q6 49 29.5 91.5t58.5 75t77 51t87 18.5q84 0 137 -57.5t53 -143.5q0 -53 -21.5 -102t-57 -86t-82 -59.5t-95.5 -22.5q-82 0 -135 57.5 t-53 143.5zM844 1743q0 -41 22.5 -67.5t57.5 -26.5q43 0 76.5 40t33.5 93q0 39 -22.5 65.5t-57.5 26.5q-39 0 -69.5 -32.5t-38.5 -80.5q-2 -6 -2 -18z" />
<glyph unicode="&#xc6;" horiz-adv-x="2041" d="M100 0l107 758q27 188 88 317t149 209t194.5 115t223.5 35h488l-15 -97q66 49 143.5 73t157.5 24h488l-35 -246h-451q-57 0 -112.5 -18.5t-102.5 -59.5t-86 -107.5t-65 -162.5h768l-35 -246h-768q0 -96 20.5 -162.5t55.5 -107.5t84 -59.5t108 -18.5h451l-33 -246h-487 q-80 0 -151 23.5t-124 72.5l-12 -96h-275l54 389h-500l-53 -389h-275zM463 635h500l77 553h-176q-68 0 -129 -20.5t-111.5 -69.5t-87 -132t-55.5 -208z" />
<glyph unicode="&#xc7;" horiz-adv-x="1212" d="M150 524q0 45 3 92.5t11 100.5q27 199 90 336t151.5 221t196 122t223.5 38h488l-35 -246h-451q-68 0 -129 -22.5t-112 -77t-90 -144.5t-58 -227q-12 -84 -12 -148q0 -92 20.5 -154.5t56.5 -100.5t85 -53t106 -15h451l-33 -246h-416l-18 -70q88 -2 134 -42t46 -93 t-25.5 -92t-66.5 -63.5t-91 -37t-100 -12.5q-55 0 -105 13.5t-89 42.5l16 112q6 0 23.5 -8t44.5 -17t58.5 -17.5t66.5 -8.5q14 0 32.5 4t35 13.5t28.5 26t12 38.5q0 29 -21.5 39t-47.5 10q-27 0 -62 -8t-51 -14l53 184q-90 6 -166.5 39t-133 95.5t-88 158.5t-31.5 231z" />
<glyph unicode="&#xc8;" horiz-adv-x="1230" d="M150 524q0 45 3 92.5t11 100.5q27 199 90 336t151.5 221t196 122t223.5 38h488l-35 -246h-451q-57 0 -112.5 -18.5t-102.5 -59.5t-86 -107.5t-65 -162.5h768l-35 -246h-768q0 -96 20.5 -162.5t55.5 -107.5t84 -59.5t108 -18.5h451l-33 -246h-487q-100 0 -187.5 27.5 t-151 90t-100 163t-36.5 243.5zM655 1776l113 139l278 -295l-72 -88z" />
<glyph unicode="&#xc9;" horiz-adv-x="1230" d="M150 524q0 45 3 92.5t11 100.5q27 199 90 336t151.5 221t196 122t223.5 38h488l-35 -246h-451q-57 0 -112.5 -18.5t-102.5 -59.5t-86 -107.5t-65 -162.5h768l-35 -246h-768q0 -96 20.5 -162.5t55.5 -107.5t84 -59.5t108 -18.5h451l-33 -246h-487q-100 0 -187.5 27.5 t-151 90t-100 163t-36.5 243.5zM634 1620l361 295l72 -139l-385 -244z" />
<glyph unicode="&#xca;" horiz-adv-x="1230" d="M150 524q0 45 3 92.5t11 100.5q27 199 90 336t151.5 221t196 122t223.5 38h488l-35 -246h-451q-57 0 -112.5 -18.5t-102.5 -59.5t-86 -107.5t-65 -162.5h768l-35 -246h-768q0 -96 20.5 -162.5t55.5 -107.5t84 -59.5t108 -18.5h451l-33 -246h-487q-100 0 -187.5 27.5 t-151 90t-100 163t-36.5 243.5zM524 1620l359 295l276 -283l-69 -100l-236 178q-70 -45 -141.5 -89t-140.5 -89z" />
<glyph unicode="&#xcb;" horiz-adv-x="1230" d="M150 524q0 45 3 92.5t11 100.5q27 199 90 336t151.5 221t196 122t223.5 38h488l-35 -246h-451q-57 0 -112.5 -18.5t-102.5 -59.5t-86 -107.5t-65 -162.5h768l-35 -246h-768q0 -96 20.5 -162.5t55.5 -107.5t84 -59.5t108 -18.5h451l-33 -246h-487q-100 0 -187.5 27.5 t-151 90t-100 163t-36.5 243.5zM565 1557l33 225h219l-33 -225h-219zM879 1557l32 225h219l-32 -225h-219z" />
<glyph unicode="&#xcc;" d="M119 0l200 1434h275l-201 -1434h-274zM305 1776l113 139l278 -295l-72 -88z" />
<glyph unicode="&#xcd;" d="M119 0l200 1434h275l-201 -1434h-274zM284 1620l361 295l72 -139l-385 -244z" />
<glyph unicode="&#xce;" d="M119 0l200 1434h275l-201 -1434h-274zM172 1620l359 295l276 -283l-69 -100l-236 178q-70 -45 -141.5 -89t-140.5 -89z" />
<glyph unicode="&#xcf;" d="M119 0l200 1434h275l-201 -1434h-274zM213 1557l33 225h219l-33 -225h-219zM527 1557l32 225h219l-32 -225h-219z" />
<glyph unicode="&#xd0;" horiz-adv-x="1415" d="M131 614l29 205h110l86 615h635q100 0 187.5 -28t151 -91.5t100 -163.5t36.5 -246q0 -43 -3 -90t-11 -98q-29 -199 -92.5 -336t-151.5 -221t-195.5 -122t-221.5 -38h-635l86 614h-111zM463 246h323q68 0 129.5 22.5t113.5 76.5t91 144.5t58 227.5q6 41 8 76.5t2 68.5 q0 92 -20.5 154.5t-56.5 100.5t-85 54.5t-106 16.5h-324l-51 -369h368l-28 -205h-369z" />
<glyph unicode="&#xd1;" horiz-adv-x="1359" d="M119 0l200 1434h349l356 -1012l143 1012h275l-201 -1434h-348l-358 1012l-142 -1012h-274zM568 1671l45 25q37 20 85 42.5t101 22.5q43 0 73.5 -12t57.5 -26.5t51.5 -26.5t57.5 -12q41 0 79.5 21.5t77.5 43.5h-2l25 17l31 -148q-23 -6 -47.5 -20.5t-53 -27.5t-61.5 -23.5 t-70 -10.5q-47 0 -76.5 12.5t-54.5 27.5t-49.5 27.5t-58.5 12.5q-14 0 -38 -9t-49.5 -22.5t-50 -30t-41.5 -28.5z" />
<glyph unicode="&#xd2;" horiz-adv-x="1396" d="M150 528q0 43 3 90.5t11 98.5q29 207 98.5 350t167.5 231t219 127t254 39q113 0 212 -29.5t173 -97t117 -175t43 -263.5q0 -41 -4 -87t-10 -95q-29 -207 -100.5 -350.5t-171 -231.5t-220.5 -127t-250 -39q-117 0 -216 30t-172 96.5t-113.5 172.5t-40.5 260zM426 563 q0 -100 22.5 -166.5t63.5 -106.5t95.5 -57.5t119.5 -17.5q74 0 142.5 23.5t126 81t100.5 154.5t63 243q6 41 8 76.5t2 70.5q0 100 -23.5 169t-64.5 110t-95 58.5t-118 17.5q-76 0 -144.5 -24t-125.5 -81t-98 -154.5t-62 -242.5q-12 -86 -12 -154zM739 1776l113 139l278 -295 l-72 -88z" />
<glyph unicode="&#xd3;" horiz-adv-x="1396" d="M150 528q0 43 3 90.5t11 98.5q29 207 98.5 350t167.5 231t219 127t254 39q113 0 212 -29.5t173 -97t117 -175t43 -263.5q0 -41 -4 -87t-10 -95q-29 -207 -100.5 -350.5t-171 -231.5t-220.5 -127t-250 -39q-117 0 -216 30t-172 96.5t-113.5 172.5t-40.5 260zM426 563 q0 -100 22.5 -166.5t63.5 -106.5t95.5 -57.5t119.5 -17.5q74 0 142.5 23.5t126 81t100.5 154.5t63 243q6 41 8 76.5t2 70.5q0 100 -23.5 169t-64.5 110t-95 58.5t-118 17.5q-76 0 -144.5 -24t-125.5 -81t-98 -154.5t-62 -242.5q-12 -86 -12 -154zM718 1620l361 295l72 -139 l-385 -244z" />
<glyph unicode="&#xd4;" horiz-adv-x="1396" d="M150 528q0 43 3 90.5t11 98.5q29 207 98.5 350t167.5 231t219 127t254 39q113 0 212 -29.5t173 -97t117 -175t43 -263.5q0 -41 -4 -87t-10 -95q-29 -207 -100.5 -350.5t-171 -231.5t-220.5 -127t-250 -39q-117 0 -216 30t-172 96.5t-113.5 172.5t-40.5 260zM426 563 q0 -100 22.5 -166.5t63.5 -106.5t95.5 -57.5t119.5 -17.5q74 0 142.5 23.5t126 81t100.5 154.5t63 243q6 41 8 76.5t2 70.5q0 100 -23.5 169t-64.5 110t-95 58.5t-118 17.5q-76 0 -144.5 -24t-125.5 -81t-98 -154.5t-62 -242.5q-12 -86 -12 -154zM608 1620l359 295l276 -283 l-69 -100l-236 178q-70 -45 -141.5 -89t-140.5 -89z" />
<glyph unicode="&#xd5;" horiz-adv-x="1396" d="M150 528q0 43 3 90.5t11 98.5q29 207 98.5 350t167.5 231t219 127t254 39q113 0 212 -29.5t173 -97t117 -175t43 -263.5q0 -41 -4 -87t-10 -95q-29 -207 -100.5 -350.5t-171 -231.5t-220.5 -127t-250 -39q-117 0 -216 30t-172 96.5t-113.5 172.5t-40.5 260zM426 563 q0 -100 22.5 -166.5t63.5 -106.5t95.5 -57.5t119.5 -17.5q74 0 142.5 23.5t126 81t100.5 154.5t63 243q6 41 8 76.5t2 70.5q0 100 -23.5 169t-64.5 110t-95 58.5t-118 17.5q-76 0 -144.5 -24t-125.5 -81t-98 -154.5t-62 -242.5q-12 -86 -12 -154zM586 1671l45 25 q37 20 85 42.5t101 22.5q43 0 73.5 -12t57.5 -26.5t51.5 -26.5t57.5 -12q41 0 79.5 21.5t77.5 43.5h-2l25 17l31 -148q-23 -6 -47.5 -20.5t-53 -27.5t-61.5 -23.5t-70 -10.5q-47 0 -76.5 12.5t-54.5 27.5t-49.5 27.5t-58.5 12.5q-14 0 -38 -9t-49.5 -22.5t-50 -30 t-41.5 -28.5z" />
<glyph unicode="&#xd6;" horiz-adv-x="1396" d="M150 528q0 43 3 90.5t11 98.5q29 207 98.5 350t167.5 231t219 127t254 39q113 0 212 -29.5t173 -97t117 -175t43 -263.5q0 -41 -4 -87t-10 -95q-29 -207 -100.5 -350.5t-171 -231.5t-220.5 -127t-250 -39q-117 0 -216 30t-172 96.5t-113.5 172.5t-40.5 260zM426 563 q0 -100 22.5 -166.5t63.5 -106.5t95.5 -57.5t119.5 -17.5q74 0 142.5 23.5t126 81t100.5 154.5t63 243q6 41 8 76.5t2 70.5q0 100 -23.5 169t-64.5 110t-95 58.5t-118 17.5q-76 0 -144.5 -24t-125.5 -81t-98 -154.5t-62 -242.5q-12 -86 -12 -154zM649 1557l33 225h219 l-33 -225h-219zM963 1557l32 225h219l-32 -225h-219z" />
<glyph unicode="&#xd7;" horiz-adv-x="1009" d="M168 340l307 274l-231 275l159 151l203 -299l291 299l115 -151l-307 -275l231 -274l-160 -152l-205 297l-288 -297z" />
<glyph unicode="&#xd8;" horiz-adv-x="1396" d="M150 526q0 45 3 91.5t11 99.5q29 207 98.5 350t167.5 231t219 127t254 39q74 0 139.5 -11t124.5 -38l68 101h182l-123 -183h-2q72 -70 113 -177t41 -261q0 -84 -12 -178q-29 -207 -100.5 -350.5t-171 -231.5t-220.5 -127t-250 -39q-147 0 -264 47l-66 -98h-182l119 180h2 q-72 66 -111.5 171.5t-39.5 256.5zM426 557q0 -68 10 -118t31 -87l549 834h4q-66 33 -152 33q-76 0 -144.5 -24t-125.5 -81t-98 -154.5t-62 -242.5q-12 -92 -12 -160zM573 246q35 -16 73 -23.5t81 -7.5q74 0 142.5 23.5t126 81t100.5 154.5t63 243q6 43 8 81t2 72 q0 131 -41 209l-550 -833h-5z" />
<glyph unicode="&#xd9;" horiz-adv-x="1396" d="M172 449q0 35 2 70.5t8 74.5l119 840h274l-118 -840q-4 -29 -6 -53.5t-2 -46.5q0 -80 21.5 -133.5t58 -85t88 -46t110.5 -14.5q66 0 127 18.5t111.5 62.5t86 116.5t52.5 181.5l119 840h274l-119 -840q-25 -178 -89 -298t-156.5 -192.5t-205 -103.5t-235.5 -31 q-111 0 -205 24.5t-164.5 80t-110.5 148t-40 227.5zM739 1776l113 139l278 -295l-72 -88z" />
<glyph unicode="&#xda;" horiz-adv-x="1396" d="M172 449q0 35 2 70.5t8 74.5l119 840h274l-118 -840q-4 -29 -6 -53.5t-2 -46.5q0 -80 21.5 -133.5t58 -85t88 -46t110.5 -14.5q66 0 127 18.5t111.5 62.5t86 116.5t52.5 181.5l119 840h274l-119 -840q-25 -178 -89 -298t-156.5 -192.5t-205 -103.5t-235.5 -31 q-111 0 -205 24.5t-164.5 80t-110.5 148t-40 227.5zM718 1620l361 295l72 -139l-385 -244z" />
<glyph unicode="&#xdb;" horiz-adv-x="1396" d="M172 449q0 35 2 70.5t8 74.5l119 840h274l-118 -840q-4 -29 -6 -53.5t-2 -46.5q0 -80 21.5 -133.5t58 -85t88 -46t110.5 -14.5q66 0 127 18.5t111.5 62.5t86 116.5t52.5 181.5l119 840h274l-119 -840q-25 -178 -89 -298t-156.5 -192.5t-205 -103.5t-235.5 -31 q-111 0 -205 24.5t-164.5 80t-110.5 148t-40 227.5zM608 1620l359 295l276 -283l-69 -100l-236 178q-70 -45 -141.5 -89t-140.5 -89z" />
<glyph unicode="&#xdc;" horiz-adv-x="1396" d="M172 449q0 35 2 70.5t8 74.5l119 840h274l-118 -840q-4 -29 -6 -53.5t-2 -46.5q0 -80 21.5 -133.5t58 -85t88 -46t110.5 -14.5q66 0 127 18.5t111.5 62.5t86 116.5t52.5 181.5l119 840h274l-119 -840q-25 -178 -89 -298t-156.5 -192.5t-205 -103.5t-235.5 -31 q-111 0 -205 24.5t-164.5 80t-110.5 148t-40 227.5zM649 1557l33 225h219l-33 -225h-219zM963 1557l32 225h219l-32 -225h-219z" />
<glyph unicode="&#xdd;" horiz-adv-x="1249" d="M193 1434h325l230 -549l385 549h325l-614 -828h2l-84 -606h-275l84 606h2zM645 1620l361 295l72 -139l-385 -244z" />
<glyph unicode="&#xde;" horiz-adv-x="1378" d="M119 0l200 1434h275l-35 -246h479q82 0 152 -19.5t122 -62.5t81.5 -112.5t29.5 -170.5q0 -25 -2 -51.5t-6 -54.5q-18 -135 -66.5 -225.5t-116 -145.5t-151.5 -77.5t-176 -22.5h-479l-33 -246h-274zM461 492h479q35 0 72 13t66.5 46t48 88t18.5 137q0 90 -41 128t-100 38 h-480z" />
<glyph unicode="&#xdf;" horiz-adv-x="1220" d="M119 0l129 922q18 135 73.5 235t132 167t166 98.5t177.5 31.5q66 0 127 -20.5t109 -59.5t77 -97t29 -134q0 -100 -53.5 -209t-163.5 -201h-4q68 -14 117.5 -46t82.5 -75t49.5 -94t16.5 -106q0 -74 -30 -148t-87 -132t-143 -95t-199 -37h-164l33 246h164q31 0 61.5 8 t55 27.5t41 51.5t16.5 81q0 45 -21.5 71.5t-54.5 44t-69.5 28.5t-69.5 25.5t-54.5 36t-21.5 58.5q0 53 38 104.5t83 102.5t83 102t38 107q0 57 -34 86.5t-79 29.5q-37 0 -77 -17t-74.5 -53t-60.5 -90.5t-36 -127.5l-129 -922h-274z" />
<glyph unicode="&#xe0;" horiz-adv-x="1200" d="M-29 0l666 1229h268l324 -1229h-295l-60 238h-483l-12 -23q-29 -51 -59.5 -109.5t-53.5 -105.5h-295zM516 481h301l-51 197q-12 49 -23.5 89t-23.5 99zM612 1571l113 139l278 -295l-72 -88z" />
<glyph unicode="&#xe1;" horiz-adv-x="1200" d="M-29 0l666 1229h268l324 -1229h-295l-60 238h-483l-12 -23q-29 -51 -59.5 -109.5t-53.5 -105.5h-295zM516 481h301l-51 197q-12 49 -23.5 89t-23.5 99zM591 1415l361 295l72 -139l-385 -244z" />
<glyph unicode="&#xe2;" horiz-adv-x="1200" d="M-29 0l666 1229h268l324 -1229h-295l-60 238h-483l-12 -23q-29 -51 -59.5 -109.5t-53.5 -105.5h-295zM479 1415l359 295l276 -283l-69 -100l-236 178q-70 -45 -141.5 -89t-140.5 -89zM516 481h301l-51 197q-12 49 -23.5 89t-23.5 99z" />
<glyph unicode="&#xe3;" horiz-adv-x="1200" d="M-29 0l666 1229h268l324 -1229h-295l-60 238h-483l-12 -23q-29 -51 -59.5 -109.5t-53.5 -105.5h-295zM459 1466l45 25q37 20 85 42.5t101 22.5q43 0 73.5 -12t57.5 -26.5t51.5 -26.5t57.5 -12q41 0 79.5 21.5t77.5 43.5h-2l25 17l31 -148q-23 -6 -47.5 -20.5t-53 -27.5 t-61.5 -23.5t-70 -10.5q-47 0 -76.5 12.5t-54.5 27.5t-49.5 27.5t-58.5 12.5q-14 0 -38 -9t-49.5 -22.5t-50 -30t-41.5 -28.5zM516 481h301l-51 197q-12 49 -23.5 89t-23.5 99z" />
<glyph unicode="&#xe4;" horiz-adv-x="1200" d="M-29 0l666 1229h268l324 -1229h-295l-60 238h-483l-12 -23q-29 -51 -59.5 -109.5t-53.5 -105.5h-295zM516 481h301l-51 197q-12 49 -23.5 89t-23.5 99zM520 1352l33 225h219l-33 -225h-219zM834 1352l32 225h219l-32 -225h-219z" />
<glyph unicode="&#xe5;" horiz-adv-x="1200" d="M-29 0l666 1229h268l324 -1229h-295l-60 238h-483l-12 -23q-29 -51 -59.5 -109.5t-53.5 -105.5h-295zM516 481h301l-51 197q-12 49 -23.5 89t-23.5 99zM594 1522v16t2 18q6 49 29.5 91.5t58.5 75t77 51t87 18.5q84 0 137 -57.5t53 -143.5q0 -53 -21.5 -102t-57 -86 t-82 -59.5t-95.5 -22.5q-82 0 -135 57.5t-53 143.5zM721 1538q0 -41 22.5 -67.5t57.5 -26.5q43 0 76.5 40t33.5 93q0 39 -22.5 65.5t-57.5 26.5q-39 0 -69.5 -32.5t-38.5 -80.5q-2 -6 -2 -18z" />
<glyph unicode="&#xe6;" horiz-adv-x="1769" d="M100 0l90 649q23 162 77.5 272.5t130 179t167.5 98.5t193 30h424l-8 -58q51 31 106 44.5t119 13.5h424l-35 -244h-391q-86 0 -161 -57.5t-116 -190.5h633l-35 -245h-633q4 -133 62.5 -190.5t144.5 -57.5h391l-32 -244h-424q-66 0 -117 11.5t-94 45.5l-6 -57h-269l45 322 h-374l-45 -322h-267zM444 567h375l60 418h-125q-53 0 -100.5 -16.5t-86.5 -55.5t-67.5 -103.5t-42.5 -160.5z" />
<glyph unicode="&#xe7;" horiz-adv-x="1073" d="M137 451q0 74 13 163q25 170 79 288t129.5 190.5t169 104.5t191.5 32h426l-35 -244h-395q-51 0 -98.5 -17.5t-87.5 -60.5t-69.5 -114.5t-43.5 -178.5q-4 -35 -7 -63.5t-3 -54.5q0 -72 15 -120t43 -78t65.5 -42t80.5 -12h396l-33 -244h-346l-19 -70q88 -2 134 -42t46 -93 t-26.5 -92t-67.5 -63.5t-91 -37t-97 -12.5q-55 0 -105.5 13.5t-89.5 42.5l17 112q6 0 23.5 -8t44 -17t57 -17.5t65.5 -8.5q14 0 33.5 4t36 13.5t29 26t12.5 38.5q0 29 -21.5 39t-48.5 10q-29 0 -62.5 -8t-50.5 -14l54 184q-78 6 -144.5 33.5t-114.5 82t-76 137.5t-28 198z " />
<glyph unicode="&#xe8;" horiz-adv-x="1091" d="M137 451q0 74 13 163q25 170 79 288t129.5 190.5t169 104.5t191.5 32h426l-35 -244h-395q-84 0 -159 -57.5t-116 -190.5h635l-35 -245h-634q4 -133 62 -190.5t142 -57.5h396l-33 -244h-426q-86 0 -161 23.5t-130 78t-87 140.5t-32 209zM557 1571l113 139l278 -295 l-72 -88z" />
<glyph unicode="&#xe9;" horiz-adv-x="1091" d="M137 451q0 74 13 163q25 170 79 288t129.5 190.5t169 104.5t191.5 32h426l-35 -244h-395q-84 0 -159 -57.5t-116 -190.5h635l-35 -245h-634q4 -133 62 -190.5t142 -57.5h396l-33 -244h-426q-86 0 -161 23.5t-130 78t-87 140.5t-32 209zM536 1415l361 295l72 -139 l-385 -244z" />
<glyph unicode="&#xea;" horiz-adv-x="1091" d="M137 451q0 74 13 163q25 170 79 288t129.5 190.5t169 104.5t191.5 32h426l-35 -244h-395q-84 0 -159 -57.5t-116 -190.5h635l-35 -245h-634q4 -133 62 -190.5t142 -57.5h396l-33 -244h-426q-86 0 -161 23.5t-130 78t-87 140.5t-32 209zM425 1415l359 295l276 -283 l-69 -100l-236 178q-70 -45 -141.5 -89t-140.5 -89z" />
<glyph unicode="&#xeb;" horiz-adv-x="1091" d="M137 451q0 74 13 163q25 170 79 288t129.5 190.5t169 104.5t191.5 32h426l-35 -244h-395q-84 0 -159 -57.5t-116 -190.5h635l-35 -245h-634q4 -133 62 -190.5t142 -57.5h396l-33 -244h-426q-86 0 -161 23.5t-130 78t-87 140.5t-32 209zM467 1352l33 225h219l-33 -225 h-219zM781 1352l32 225h219l-32 -225h-219z" />
<glyph unicode="&#xec;" horiz-adv-x="503" d="M119 0l172 1229h266l-172 -1229h-266zM270 1571l113 139l278 -295l-72 -88z" />
<glyph unicode="&#xed;" horiz-adv-x="503" d="M119 0l172 1229h266l-172 -1229h-266zM249 1415l361 295l72 -139l-385 -244z" />
<glyph unicode="&#xee;" horiz-adv-x="503" d="M119 0l172 1229h266l-172 -1229h-266zM137 1415l359 295l276 -283l-69 -100l-236 178q-70 -45 -141.5 -89t-140.5 -89z" />
<glyph unicode="&#xef;" horiz-adv-x="503" d="M119 0l172 1229h266l-172 -1229h-266zM178 1352l33 225h219l-33 -225h-219zM492 1352l32 225h219l-32 -225h-219z" />
<glyph unicode="&#xf0;" horiz-adv-x="1230" d="M115 510l30 209h91l71 510h547q88 0 163 -24.5t130 -78t87 -139.5t32 -211q0 -74 -13 -162q-25 -170 -79 -287.5t-129.5 -190.5t-169 -104.5t-193.5 -31.5h-547l70 510h-90zM434 244h250q51 0 99 17.5t88 60.5t70 114.5t46 177.5q4 31 6 59.5t2 53.5q0 145 -59 201.5 t-148 56.5h-249l-37 -266h307l-31 -209h-307z" />
<glyph unicode="&#xf1;" horiz-adv-x="1206" d="M119 0l172 1229h319l275 -772l108 772h267l-173 -1229h-319l-276 772l-107 -772h-266zM461 1466l45 25q37 20 85 42.5t101 22.5q43 0 73.5 -12t57.5 -26.5t51.5 -26.5t57.5 -12q41 0 79.5 21.5t77.5 43.5h-2l25 17l31 -148q-23 -6 -47.5 -20.5t-53 -27.5t-61.5 -23.5 t-70 -10.5q-47 0 -76.5 12.5t-54.5 27.5t-49.5 27.5t-58.5 12.5q-14 0 -38 -9t-49.5 -22.5t-50 -30t-41.5 -28.5z" />
<glyph unicode="&#xf2;" horiz-adv-x="1218" d="M137 453q0 72 13 161q25 178 84 300t144 197t189.5 108.5t218.5 33.5q98 0 182.5 -25.5t148 -83t99 -150.5t35.5 -226q0 -35 -2 -74t-8 -80q-25 -178 -86 -299.5t-146 -196.5t-188.5 -109t-214.5 -34q-100 0 -186 26t-148.5 82t-98.5 147.5t-36 222.5zM406 494 q0 -78 18 -131.5t50 -85t75 -45t92 -13.5q57 0 109.5 18.5t96.5 64.5t76.5 122t49.5 190q4 35 6 64t2 57q0 78 -17.5 131.5t-48 85t-72.5 45t-91 13.5q-59 0 -112.5 -18.5t-97.5 -64.5t-77 -122t-49 -191q-4 -35 -7 -63t-3 -57zM623 1571l113 139l278 -295l-72 -88z" />
<glyph unicode="&#xf3;" horiz-adv-x="1218" d="M137 453q0 72 13 161q25 178 84 300t144 197t189.5 108.5t218.5 33.5q98 0 182.5 -25.5t148 -83t99 -150.5t35.5 -226q0 -35 -2 -74t-8 -80q-25 -178 -86 -299.5t-146 -196.5t-188.5 -109t-214.5 -34q-100 0 -186 26t-148.5 82t-98.5 147.5t-36 222.5zM406 494 q0 -78 18 -131.5t50 -85t75 -45t92 -13.5q57 0 109.5 18.5t96.5 64.5t76.5 122t49.5 190q4 35 6 64t2 57q0 78 -17.5 131.5t-48 85t-72.5 45t-91 13.5q-59 0 -112.5 -18.5t-97.5 -64.5t-77 -122t-49 -191q-4 -35 -7 -63t-3 -57zM602 1415l361 295l72 -139l-385 -244z" />
<glyph unicode="&#xf4;" horiz-adv-x="1218" d="M137 453q0 72 13 161q25 178 84 300t144 197t189.5 108.5t218.5 33.5q98 0 182.5 -25.5t148 -83t99 -150.5t35.5 -226q0 -35 -2 -74t-8 -80q-25 -178 -86 -299.5t-146 -196.5t-188.5 -109t-214.5 -34q-100 0 -186 26t-148.5 82t-98.5 147.5t-36 222.5zM406 494 q0 -78 18 -131.5t50 -85t75 -45t92 -13.5q57 0 109.5 18.5t96.5 64.5t76.5 122t49.5 190q4 35 6 64t2 57q0 78 -17.5 131.5t-48 85t-72.5 45t-91 13.5q-59 0 -112.5 -18.5t-97.5 -64.5t-77 -122t-49 -191q-4 -35 -7 -63t-3 -57zM489 1415l359 295l276 -283l-69 -100 l-236 178q-70 -45 -141.5 -89t-140.5 -89z" />
<glyph unicode="&#xf5;" horiz-adv-x="1218" d="M137 453q0 72 13 161q25 178 84 300t144 197t189.5 108.5t218.5 33.5q98 0 182.5 -25.5t148 -83t99 -150.5t35.5 -226q0 -35 -2 -74t-8 -80q-25 -178 -86 -299.5t-146 -196.5t-188.5 -109t-214.5 -34q-100 0 -186 26t-148.5 82t-98.5 147.5t-36 222.5zM406 494 q0 -78 18 -131.5t50 -85t75 -45t92 -13.5q57 0 109.5 18.5t96.5 64.5t76.5 122t49.5 190q4 35 6 64t2 57q0 78 -17.5 131.5t-48 85t-72.5 45t-91 13.5q-59 0 -112.5 -18.5t-97.5 -64.5t-77 -122t-49 -191q-4 -35 -7 -63t-3 -57zM467 1466l45 25q37 20 85 42.5t101 22.5 q43 0 73.5 -12t57.5 -26.5t51.5 -26.5t57.5 -12q41 0 79.5 21.5t77.5 43.5h-2l25 17l31 -148q-23 -6 -47.5 -20.5t-53 -27.5t-61.5 -23.5t-70 -10.5q-47 0 -76.5 12.5t-54.5 27.5t-49.5 27.5t-58.5 12.5q-14 0 -38 -9t-49.5 -22.5t-50 -30t-41.5 -28.5z" />
<glyph unicode="&#xf6;" horiz-adv-x="1218" d="M137 453q0 72 13 161q25 178 84 300t144 197t189.5 108.5t218.5 33.5q98 0 182.5 -25.5t148 -83t99 -150.5t35.5 -226q0 -35 -2 -74t-8 -80q-25 -178 -86 -299.5t-146 -196.5t-188.5 -109t-214.5 -34q-100 0 -186 26t-148.5 82t-98.5 147.5t-36 222.5zM406 494 q0 -78 18 -131.5t50 -85t75 -45t92 -13.5q57 0 109.5 18.5t96.5 64.5t76.5 122t49.5 190q4 35 6 64t2 57q0 78 -17.5 131.5t-48 85t-72.5 45t-91 13.5q-59 0 -112.5 -18.5t-97.5 -64.5t-77 -122t-49 -191q-4 -35 -7 -63t-3 -57zM530 1352l33 225h219l-33 -225h-219z M844 1352l32 225h219l-32 -225h-219z" />
<glyph unicode="&#xf7;" horiz-adv-x="1138" d="M190 512l29 205h901l-28 -205h-902zM469 82l33 225h219l-33 -225h-219zM588 922l30 225h220l-31 -225h-219z" />
<glyph unicode="&#xf8;" horiz-adv-x="1220" d="M137 455q0 74 13 159q25 178 85 301t144 200t188.5 111t218.5 34q119 0 209 -35l52 86h163l-94 -156h-4q66 -59 103.5 -154.5t37.5 -232.5q0 -35 -2 -74t-8 -80q-25 -178 -86 -301t-147 -199.5t-190.5 -110.5t-215.5 -34q-121 0 -207 33l-53 -84h-164l94 154h5 q-66 59 -104 152t-38 231zM395 481q0 -106 33 -166l430 693h4q-47 20 -108 20q-59 0 -115.5 -20.5t-103 -67.5t-80 -127t-49.5 -199q-6 -39 -8.5 -71.5t-2.5 -61.5zM528 221q47 -20 109 -20q59 0 115.5 20.5t102.5 67.5t81 127t51 198q4 35 6 64t2 57q0 57 -8 100.5 t-24 75.5l-431 -690h-4z" />
<glyph unicode="&#xf9;" horiz-adv-x="1232" d="M162 387q0 29 3 59.5t7 65.5l100 717h267l-101 -717q-6 -43 -6 -78q0 -61 16.5 -102t46 -65.5t68.5 -36t84 -11.5q51 0 98.5 14.5t85 48t65.5 90t40 140.5l100 717h269l-101 -717q-23 -154 -78 -256t-134 -164.5t-177 -89.5t-203 -27q-96 0 -178 20.5t-142.5 69t-95 127 t-34.5 195.5zM629 1571l113 139l278 -295l-72 -88z" />
<glyph unicode="&#xfa;" horiz-adv-x="1232" d="M162 387q0 29 3 59.5t7 65.5l100 717h267l-101 -717q-6 -43 -6 -78q0 -61 16.5 -102t46 -65.5t68.5 -36t84 -11.5q51 0 98.5 14.5t85 48t65.5 90t40 140.5l100 717h269l-101 -717q-23 -154 -78 -256t-134 -164.5t-177 -89.5t-203 -27q-96 0 -178 20.5t-142.5 69t-95 127 t-34.5 195.5zM608 1415l361 295l72 -139l-385 -244z" />
<glyph unicode="&#xfb;" horiz-adv-x="1232" d="M162 387q0 29 3 59.5t7 65.5l100 717h267l-101 -717q-6 -43 -6 -78q0 -61 16.5 -102t46 -65.5t68.5 -36t84 -11.5q51 0 98.5 14.5t85 48t65.5 90t40 140.5l100 717h269l-101 -717q-23 -154 -78 -256t-134 -164.5t-177 -89.5t-203 -27q-96 0 -178 20.5t-142.5 69t-95 127 t-34.5 195.5zM495 1415l359 295l276 -283l-69 -100l-236 178q-70 -45 -141.5 -89t-140.5 -89z" />
<glyph unicode="&#xfc;" horiz-adv-x="1232" d="M162 387q0 29 3 59.5t7 65.5l100 717h267l-101 -717q-6 -43 -6 -78q0 -61 16.5 -102t46 -65.5t68.5 -36t84 -11.5q51 0 98.5 14.5t85 48t65.5 90t40 140.5l100 717h269l-101 -717q-23 -154 -78 -256t-134 -164.5t-177 -89.5t-203 -27q-96 0 -178 20.5t-142.5 69t-95 127 t-34.5 195.5zM536 1352l33 225h219l-33 -225h-219zM850 1352l32 225h219l-32 -225h-219z" />
<glyph unicode="&#xfd;" horiz-adv-x="1103" d="M164 1229h317l183 -434l301 434h319l-530 -713h2l-72 -516h-266l71 516h3zM544 1415l361 295l72 -139l-385 -244z" />
<glyph unicode="&#xfe;" horiz-adv-x="1212" d="M119 0l172 1229h266l-29 -203h377q70 0 131.5 -17.5t107.5 -55.5t71.5 -99t25.5 -149q0 -41 -6 -91q-16 -119 -58 -197.5t-102.5 -126.5t-133.5 -67.5t-153 -19.5h-376l-27 -203h-266zM446 449h377q25 0 51.5 10t48 33.5t35 64.5t13.5 102q0 66 -29 93.5t-72 27.5h-376z " />
<glyph unicode="&#xff;" horiz-adv-x="1103" d="M164 1229h317l183 -434l301 434h319l-530 -713h2l-72 -516h-266l71 516h3zM473 1352l33 225h219l-33 -225h-219zM787 1352l32 225h219l-32 -225h-219z" />
<glyph unicode="&#x152;" horiz-adv-x="2226" d="M150 528q0 43 3 90.5t11 98.5q29 207 98.5 350t167.5 231t219 127t254 39q152 0 274.5 -64.5t184.5 -203.5q86 119 208 178.5t251 59.5h487l-35 -246h-450q-57 0 -112.5 -18.5t-102.5 -59.5t-86 -107.5t-66 -162.5h768l-35 -246h-768q0 -96 20.5 -162.5t55.5 -107.5 t84 -59.5t109 -18.5h450l-33 -246h-487q-129 0 -234.5 59.5t-158.5 176.5q-100 -141 -240.5 -204t-294.5 -63q-117 0 -216 30t-172 96.5t-113.5 172.5t-40.5 260zM426 563q0 -100 22.5 -166.5t63.5 -106.5t95.5 -57.5t119.5 -17.5q74 0 142.5 23.5t126 81t100.5 154.5 t63 243q6 41 8 76.5t2 70.5q0 100 -23.5 169t-64.5 110t-95 58.5t-118 17.5q-76 0 -144.5 -24t-125.5 -81t-98 -154.5t-62 -242.5q-12 -86 -12 -154z" />
<glyph unicode="&#x153;" horiz-adv-x="1914" d="M137 453q0 72 13 161q25 178 84 300t144 197t189.5 108.5t218.5 33.5q129 0 227.5 -45t151.5 -159q78 100 173.5 140t205.5 40h424l-35 -244h-393q-86 0 -158.5 -56.5t-115.5 -191.5h632l-34 -245h-633q6 -133 63.5 -190.5t141.5 -57.5h393l-33 -244h-424 q-111 0 -195.5 41t-132.5 139q-86 -96 -203.5 -150.5t-234.5 -54.5q-100 0 -186 26t-148.5 82t-98.5 147.5t-36 222.5zM406 494q0 -78 18 -131.5t50 -85t75 -45t92 -13.5q57 0 109.5 18.5t96.5 64.5t76.5 122t49.5 190q4 35 6 64t2 57q0 78 -17.5 131.5t-48 85t-72.5 45 t-91 13.5q-59 0 -112.5 -18.5t-97.5 -64.5t-77 -122t-49 -191q-4 -35 -7 -63t-3 -57z" />
<glyph unicode="&#x178;" horiz-adv-x="1249" d="M193 1434h325l230 -549l385 549h325l-614 -828h2l-84 -606h-275l84 606h2zM575 1557l33 225h219l-33 -225h-219zM889 1557l32 225h219l-32 -225h-219z" />
<glyph unicode="&#x2c6;" horiz-adv-x="876" d="M319 1415l359 295l276 -283l-69 -100l-236 178q-70 -45 -141.5 -89t-140.5 -89z" />
<glyph unicode="&#x2dc;" horiz-adv-x="927" d="M324 1466l45 25q37 20 85 42.5t101 22.5q43 0 73.5 -12t57.5 -26.5t51.5 -26.5t57.5 -12q41 0 79.5 21.5t77.5 43.5h-2l25 17l31 -148q-23 -6 -47.5 -20.5t-53 -27.5t-61.5 -23.5t-70 -10.5q-47 0 -76.5 12.5t-54.5 27.5t-49.5 27.5t-58.5 12.5q-14 0 -38 -9t-49.5 -22.5 t-50 -30t-41.5 -28.5z" />
<glyph unicode="&#x2000;" horiz-adv-x="998" />
<glyph unicode="&#x2001;" horiz-adv-x="1997" />
<glyph unicode="&#x2002;" horiz-adv-x="998" />
<glyph unicode="&#x2003;" horiz-adv-x="1997" />
<glyph unicode="&#x2004;" horiz-adv-x="665" />
<glyph unicode="&#x2005;" horiz-adv-x="499" />
<glyph unicode="&#x2006;" horiz-adv-x="332" />
<glyph unicode="&#x2007;" horiz-adv-x="332" />
<glyph unicode="&#x2008;" horiz-adv-x="249" />
<glyph unicode="&#x2009;" horiz-adv-x="399" />
<glyph unicode="&#x200a;" horiz-adv-x="110" />
<glyph unicode="&#x2010;" horiz-adv-x="991" d="M188 502l31 225h754l-31 -225h-754z" />
<glyph unicode="&#x2011;" horiz-adv-x="991" d="M188 502l31 225h754l-31 -225h-754z" />
<glyph unicode="&#x2012;" horiz-adv-x="991" d="M188 502l31 225h754l-31 -225h-754z" />
<glyph unicode="&#x2013;" horiz-adv-x="860" d="M225 502v225h615v-225h-615z" />
<glyph unicode="&#x2014;" horiz-adv-x="1884" d="M225 502v225h1639v-225h-1639z" />
<glyph unicode="&#x2018;" d="M233 819l156 717h164l-45 -717h-275z" />
<glyph unicode="&#x2019;" d="M289 819l45 717h274l-155 -717h-164z" />
<glyph unicode="&#x201a;" d="M143 -205l47 717h275l-158 -717h-164z" />
<glyph unicode="&#x201c;" horiz-adv-x="843" d="M233 819l156 717h164l-45 -717h-275zM565 819l156 717h164l-45 -717h-275z" />
<glyph unicode="&#x201d;" horiz-adv-x="843" d="M289 819l45 717h274l-155 -717h-164zM621 819l45 717h274l-156 -717h-163z" />
<glyph unicode="&#x201e;" horiz-adv-x="843" d="M143 -205l47 717h275l-158 -717h-164zM475 -205l47 717h275l-158 -717h-164z" />
<glyph unicode="&#x2022;" horiz-adv-x="1024" d="M225 717q0 80 31 150.5t83 123.5t124 84t151 31q80 0 151 -31t124 -84t84 -123.5t31 -150.5t-31 -151.5t-84 -124t-124 -83t-151 -30.5t-151.5 30.5t-123.5 83t-83 124t-31 151.5z" />
<glyph unicode="&#x2026;" horiz-adv-x="1396" d="M119 0l39 287h274l-39 -287h-274zM561 0l39 287h274l-38 -287h-275zM1004 0l38 287h275l-39 -287h-274z" />
<glyph unicode="&#x202f;" horiz-adv-x="399" />
<glyph unicode="&#x2039;" horiz-adv-x="706" d="M205 614l379 576l153 -111l-323 -465q47 -117 96 -232.5t96 -231.5l-184 -111z" />
<glyph unicode="&#x203a;" horiz-adv-x="706" d="M141 150l324 464q-47 117 -96.5 233t-96.5 232l185 111l217 -576l-381 -575z" />
<glyph unicode="&#x205f;" horiz-adv-x="499" />
<glyph unicode="&#x20ac;" horiz-adv-x="1433" d="M133 502l76 143h149q0 35 5.5 72t15.5 71h-205l74 144h164q43 133 108.5 228t145 155.5t172 89.5t190.5 29h488l-35 -246h-451q-98 0 -188 -59.5t-150 -196.5h586l-74 -144h-551q-8 -29 -10 -57.5t-6 -50.5l-4 -35h514l-76 -143h-438q18 -137 92 -196.5t172 -59.5h451 l-33 -246h-488q-98 0 -182 28.5t-147.5 89t-102.5 156t-43 228.5h-219z" />
<glyph unicode="&#x2122;" horiz-adv-x="2058" d="M225 1286v148h787v-148h-307v-713h-173v713h-307zM1081 573v861h248l230 -637l231 637h248v-861h-168v605l-217 -605h-187l-213 601v-601h-172z" />
<glyph unicode="&#x25fc;" horiz-adv-x="1228" d="M0 0v1229h1229v-1229h-1229z" />
<glyph unicode="&#xfb01;" horiz-adv-x="1304" d="M203 997l33 232h184l14 102q12 86 47 144.5t85 95.5t113.5 52t133.5 15h602l-33 -225h-608q-31 0 -54.5 -16.5t-29.5 -59.5l-14 -108h258l-33 -232h-258l-139 -997h-256l139 997h-184zM930 0l172 1229h256l-172 -1229h-256z" />
<glyph unicode="&#xfb02;" horiz-adv-x="1304" d="M203 997l33 232h184l14 102q12 86 47 144.5t85 95.5t113.5 52t133.5 15h602l-229 -1638h-256l196 1413h-352q-31 0 -54.5 -16.5t-29.5 -59.5l-14 -108h258l-33 -232h-258l-139 -997h-256l139 997h-184z" />
</font>
</defs>
</svg>
